<svg width="24" height="24" viewBox="0 0 24 24" fill="none" xmlns="http://www.w3.org/2000/svg">
<g clip-path="url(#clip0_1080_13534)">
<path d="M23.032 12.1208C23.032 9.22709 21.8825 6.45195 19.8364 4.40583C17.7903 2.35971 15.0151 1.21021 12.1215 1.21021C9.22783 1.21021 6.45269 2.35971 4.40656 4.40583C2.36044 6.45195 1.21094 9.22709 1.21094 12.1208C1.21094 15.0144 2.36044 17.7895 4.40656 19.8357C6.45269 21.8818 9.22783 23.0313 12.1215 23.0313C15.0151 23.0313 17.7903 21.8818 19.8364 19.8357C21.8825 17.7895 23.032 15.0144 23.032 12.1208Z" stroke="#4364FA"/>
<path d="M14.6074 9.12961C14.6074 8.46994 14.3453 7.83729 13.8789 7.37084C13.4124 6.90439 12.7798 6.64233 12.1201 6.64233C11.4604 6.64233 10.8278 6.90439 10.3613 7.37084C9.89486 7.83729 9.63281 8.46994 9.63281 9.12961C9.63281 9.45624 9.69715 9.77967 9.82215 10.0814C9.94714 10.3832 10.1304 10.6574 10.3613 10.8884C10.8278 11.3548 11.4604 11.6169 12.1201 11.6169C12.4467 11.6169 12.7702 11.5525 13.0719 11.4275C13.3737 11.3026 13.6479 11.1193 13.8789 10.8884C14.1098 10.6574 14.293 10.3832 14.418 10.0814C14.543 9.77967 14.6074 9.45624 14.6074 9.12961Z" stroke="#4364FA"/>
<path d="M6.45119 10.8127C6.44562 12.122 7.66816 13.0648 8.93822 12.7504C8.94614 12.7484 8.95107 12.7435 8.95301 12.7356C9.11543 12.1159 9.6204 11.6641 10.2645 11.6051C10.2679 11.6048 10.2711 11.6036 10.2738 11.6015C10.2765 11.5993 10.2785 11.5965 10.2796 11.5933L10.3714 11.322C10.3725 11.3187 10.3726 11.3152 10.3716 11.3119C10.3707 11.3086 10.3687 11.3057 10.3661 11.3036C9.68974 10.7511 9.30428 9.93 9.32707 9.05291C9.32723 9.0445 9.32359 9.03852 9.31616 9.03497C7.99471 8.4066 6.45749 9.33872 6.45119 10.8127Z" stroke="#4364FA"/>
<path d="M14.9171 9.05051C14.9399 9.92469 14.5578 10.7499 13.8817 11.3007C13.8736 11.3073 13.8712 11.3156 13.8744 11.3257L13.9624 11.5875C13.9658 11.5973 13.9728 11.6028 13.9833 11.604C14.6216 11.6757 15.137 12.1089 15.2904 12.7373C15.2912 12.7406 15.293 12.7436 15.2954 12.746C15.2978 12.7484 15.3009 12.7501 15.3042 12.7509C16.7675 13.1068 18.1064 11.8154 17.7324 10.3366C17.4238 9.11597 16.0732 8.48154 14.9258 9.03621C14.9232 9.03751 14.9209 9.03955 14.9194 9.04208C14.9178 9.04462 14.917 9.04754 14.9171 9.05051Z" stroke="#4364FA"/>
<path d="M10.3907 11.9397C9.80521 12.0573 9.34146 12.5281 9.24303 13.1254C9.23075 13.2004 9.22461 13.3279 9.22461 13.5077C9.22477 14.8621 9.22477 16.2218 9.22461 17.5868C9.22461 17.59 9.22589 17.5931 9.22816 17.5953C9.23043 17.5976 9.23352 17.5989 9.23673 17.5989H15.012C15.0138 17.5989 15.0155 17.5982 15.0168 17.5969C15.0181 17.5956 15.0188 17.5939 15.0188 17.5921C15.019 16.2421 15.0189 14.8914 15.0185 13.54C15.0185 13.3203 15.0078 13.1596 14.9863 13.0578C14.8433 12.3826 14.2518 11.9169 13.5584 11.9148C12.6634 11.912 11.7684 11.9106 10.8733 11.9104C10.6497 11.9104 10.4888 11.9202 10.3907 11.9397Z" stroke="#4364FA"/>
<path d="M6.82559 13.1437C6.466 13.3093 6.24289 13.5758 6.15626 13.943C6.13396 14.038 6.12289 14.178 6.12305 14.3631C6.12386 15.4388 6.12394 16.5148 6.12329 17.5912C6.12329 17.5931 6.12403 17.5949 6.12535 17.5962C6.12667 17.5975 6.12846 17.5982 6.13032 17.5982H8.90972C8.91139 17.5982 8.91299 17.5976 8.91417 17.5964C8.91535 17.5952 8.91602 17.5936 8.91602 17.5919V13.0545C8.91602 13.0529 8.91538 13.0513 8.91424 13.0502C8.91311 13.0491 8.91156 13.0484 8.90996 13.0484C8.40038 13.0483 7.89048 13.0483 7.38026 13.0487C7.1645 13.0487 7.00135 13.063 6.82559 13.1437Z" stroke="#4364FA"/>
<path d="M17.4299 13.1551C17.2808 13.0843 17.1438 13.0488 17.019 13.0487C16.4571 13.0483 15.8957 13.0483 15.3349 13.0484C15.3304 13.0484 15.3281 13.0506 15.3281 13.055V17.5871C15.3281 17.59 15.3293 17.5929 15.3314 17.595C15.3335 17.5971 15.3363 17.5982 15.3393 17.5982H18.1153C18.1171 17.5982 18.1188 17.5975 18.1201 17.5963C18.1213 17.5951 18.1221 17.5934 18.1221 17.5917C18.1217 16.5281 18.1218 15.464 18.1223 14.3995C18.1223 14.1934 18.1108 14.0414 18.0876 13.9435C18.0028 13.5858 17.7836 13.323 17.4299 13.1551Z" stroke="#4364FA"/>
</g>
<defs>
<clipPath id="clip0_1080_13534">
<rect width="24" height="24" fill="white"/>
</clipPath>
</defs>
</svg>
