<svg width="136" height="90" viewBox="0 0 136 90" fill="none" xmlns="http://www.w3.org/2000/svg">
<g clip-path="url(#clip0_1080_13647)">
<path fill-rule="evenodd" clip-rule="evenodd" d="M1.82307 78.935C1.69925 78.935 1.57664 78.9106 1.46227 78.863C1.34791 78.8155 1.24403 78.7458 1.15659 78.6579C1.06916 78.5701 0.99988 78.4659 0.952733 78.3512C0.905586 78.2365 0.881495 78.1136 0.88184 77.9895C0.88184 77.7216 0.918545 77.4564 0.981469 77.1937C2.49426 65.2044 11.8647 62.0029 18.5136 60.2748C21.8407 59.4107 30.1178 56.1199 26.8195 51.5973C24.9711 49.0576 23.2958 47.2717 21.6205 44.5901C20.4118 42.8016 19.7747 41.2074 19.7747 39.9284C19.7747 38.5653 20.4957 36.9685 21.9403 36.6087C21.7489 33.8641 21.686 30.2529 21.8145 27.314C22.2733 22.2714 25.8835 18.5551 30.5478 16.9083C32.3961 16.2045 31.5021 13.3943 33.5419 13.3313C38.3241 13.2026 46.1633 17.2892 49.2256 20.6089C51.0111 22.5261 52.1568 25.0789 52.3482 28.4643L52.1568 36.9264C53.0482 37.1838 53.6224 37.7564 53.8794 38.6493C54.1337 39.671 53.8793 41.0787 52.9853 43.059C52.9853 43.122 52.9224 43.122 52.9224 43.185C50.9534 46.4338 48.9031 48.5848 46.651 51.5973C45.6442 52.9393 45.8408 54.2262 46.6772 55.3818C45.5026 56.07 44.3569 56.8579 43.2531 57.7876C38.8589 61.4829 35.4715 67.0009 34.3048 75.807L34.1737 76.5687C34.1108 77.0677 34.0741 77.4827 34.0741 77.7926C34.0741 78.1813 34.1082 78.5621 34.1711 78.935H1.82307ZM113.096 45.8771C125.264 45.8771 135.119 55.7574 135.119 67.9385C135.119 80.1248 125.256 89.9999 113.096 89.9999C100.931 89.9999 91.0725 80.1195 91.0725 67.9385C91.0725 55.7495 100.933 45.8771 113.096 45.8771ZM109.622 58.8618C109.614 57.8349 109.52 57.0995 110.791 57.1179L114.908 57.1678C116.237 57.1599 116.591 57.5827 116.575 58.8303V64.4585H122.159C123.185 64.448 123.916 64.3535 123.898 65.6273L123.848 69.7533C123.856 71.0848 123.434 71.4394 122.191 71.4236H116.575V77.0467C116.591 78.2942 116.237 78.717 114.908 78.7092L110.791 78.7564C109.52 78.7774 109.614 78.0421 109.622 77.0152V71.4236H104.003C102.758 71.4394 102.338 71.0848 102.346 69.7533L102.297 65.6273C102.276 64.3535 103.01 64.448 104.032 64.4585H109.622V58.8618ZM40.9354 78.9455C40.2983 78.9455 39.7844 78.4308 39.7844 77.7926C39.7844 77.4643 39.829 77.1412 39.9077 76.8208C41.7508 62.1894 50.5051 59.0062 58.6091 56.9183C62.4999 55.915 70.2605 52.0044 69.3193 46.9618C67.3555 45.1391 65.4075 42.6204 65.0693 38.8647L64.8333 38.8699C64.2906 38.8621 63.7636 38.7386 63.2733 38.4602C62.1905 37.843 61.5954 36.6612 61.3096 35.3112C60.7092 31.1957 60.5598 29.0946 62.749 28.1754L62.7673 28.1702C62.4947 23.0908 63.352 15.6188 58.1451 14.0404C68.4252 1.3183 80.2758 -5.60478 89.1717 5.71482C99.0848 6.23484 103.505 20.3016 97.3492 28.1754H97.0896C99.2814 29.0946 98.9511 31.4557 98.529 35.3112C98.2432 36.6612 97.648 37.843 96.5652 38.4602C96.075 38.7386 95.5506 38.8621 95.0052 38.8699L94.7693 38.8647C94.4311 42.6204 92.4778 45.1391 90.5141 46.9618C90.2493 48.3879 90.6792 49.7247 91.5208 50.9302C87.8372 55.6077 85.6375 61.517 85.6375 67.9385C85.6375 71.8491 86.4529 75.5733 87.9263 78.9455H40.9354Z" fill="#4364FA"/>
</g>
<defs>
<clipPath id="clip0_1080_13647">
<rect width="134.237" height="90" fill="white" transform="translate(0.881836)"/>
</clipPath>
</defs>
</svg>
