<svg width="106" height="90" viewBox="0 0 106 90" fill="none" xmlns="http://www.w3.org/2000/svg">
<path d="M65.7553 31.1433C75.8168 21.0746 84.2633 12.6293 91.0948 5.80745C93.848 3.05785 98.0101 7.0295 95.0017 10.0415C70.1895 34.8586 45.3436 59.7056 20.4642 84.5826C18.9187 86.1245 16.4027 85.4524 15.7162 83.4288C15.3376 82.3194 15.5916 81.319 16.4782 80.4277C19.8472 77.0443 23.2498 73.6429 26.6859 70.2236C26.7004 70.2087 26.7112 70.1905 26.7172 70.1705C26.7232 70.1506 26.7243 70.1295 26.7204 70.109C26.7166 70.0886 26.7078 70.0694 26.6949 70.053C26.682 70.0366 26.6653 70.0237 26.6463 70.0151C16.6867 65.6265 12.5102 53.4564 17.9267 43.9604C20.469 39.5011 24.2574 36.5323 29.2917 35.0539C29.4307 35.0131 29.5098 34.9221 29.5289 34.7807C31.1571 23.6996 41.8392 16.3997 52.7154 19.3254C58.5058 20.8817 63.455 25.22 65.4247 31.0678C65.4942 31.2715 65.6044 31.2967 65.7553 31.1433Z" fill="#4364FA"/>
<path d="M92.0885 41.5802C100.531 52.4492 94.7913 68.4293 81.2051 71.2615C79.8513 71.5443 77.6743 71.6809 74.6743 71.6713C63.0649 71.6401 52.1108 71.6365 41.8121 71.6605C41.786 71.6613 41.7602 71.6541 41.7381 71.64C41.7161 71.6258 41.6989 71.6053 41.6888 71.5812C41.6787 71.557 41.6761 71.5304 41.6814 71.5048C41.6868 71.4791 41.6998 71.4557 41.7187 71.4376L78.5346 34.6253C78.5995 34.5603 78.678 34.511 78.764 34.4811C78.8499 34.4512 78.9411 34.4415 79.0306 34.4528C84.5633 35.1213 88.916 37.4971 92.0885 41.5802Z" fill="#4364FA"/>
</svg>
