<svg width="90" height="90" viewBox="0 0 90 90" fill="none" xmlns="http://www.w3.org/2000/svg">
<g clip-path="url(#clip0_1080_13653)">
<path d="M33.391 46.8861C33.4063 48.5338 33.4039 50.2394 33.384 52.0031C33.3752 52.6904 32.9006 53.0877 32.2625 53.0877C29.559 53.0842 26.7998 53.0847 23.985 53.0894C23.3293 53.0894 22.8494 52.6447 22.8512 51.9715C22.8523 50.2277 22.8523 48.5221 22.8512 46.8545C22.8512 46.7865 22.8184 46.7437 22.7527 46.7262C20.9809 46.2539 19.3174 45.5666 17.7623 44.6642C17.7107 44.6338 17.6645 44.6396 17.6234 44.6818C16.4879 45.8092 15.2803 47.0168 14.0006 48.3047C13.5383 48.7687 12.8756 48.7635 12.4133 48.2994C10.4012 46.2814 8.4418 44.3185 6.53516 42.4107C6.05527 41.9326 6.0957 41.2892 6.5457 40.8392C7.8125 39.576 9.01426 38.376 10.151 37.2392C10.1979 37.1924 10.2049 37.1396 10.1721 37.081C9.25332 35.4756 8.56543 33.8068 8.1084 32.0748C8.10251 32.0508 8.08876 32.0294 8.06932 32.0141C8.04989 31.9988 8.0259 31.9905 8.00117 31.9904C6.36289 31.9939 4.6502 31.9928 2.86309 31.9869C2.20391 31.9834 1.75391 31.5211 1.75566 30.8935C1.76035 28.2228 1.75977 25.4707 1.75391 22.6371C1.75391 22.0201 2.10371 21.4646 2.77168 21.4558C3.83926 21.4394 5.57363 21.4377 7.9748 21.4506C8.04746 21.4506 8.09258 21.416 8.11016 21.3469C8.59062 19.5609 9.28145 17.8922 10.1826 16.3406C10.1946 16.3198 10.1994 16.2957 10.1962 16.2722C10.1931 16.2486 10.1821 16.2269 10.165 16.2105C8.99551 15.048 7.77734 13.8275 6.51055 12.549C6.01133 12.0445 6.13789 11.4012 6.59492 10.9494C8.45586 9.1119 10.4012 7.16893 12.4309 5.12049C12.8756 4.67225 13.5488 4.68104 13.99 5.12401C15.2521 6.39081 16.4615 7.60018 17.6182 8.75214C17.6627 8.79667 17.7125 8.80311 17.7676 8.77147C19.318 7.86796 20.9797 7.18124 22.7527 6.71131C22.7815 6.7039 22.8069 6.68726 22.825 6.66403C22.8432 6.64079 22.853 6.61228 22.8529 6.58299C22.8506 4.86151 22.85 3.13768 22.8512 1.41151C22.8529 0.806823 23.3398 0.348033 23.9551 0.349791C26.6973 0.355651 29.45 0.354479 32.2133 0.346276C32.8813 0.34276 33.3928 0.738268 33.3945 1.4537C33.4004 3.19745 33.401 4.90428 33.3963 6.57421C33.3963 6.641 33.4285 6.68319 33.493 6.70077C35.2895 7.18358 36.9646 7.87733 38.5186 8.78202C38.5353 8.79153 38.5546 8.7953 38.5737 8.79276C38.5927 8.79022 38.6104 8.78151 38.624 8.76796C39.7514 7.64296 40.9537 6.43827 42.2311 5.15389C42.6723 4.70917 43.335 4.64061 43.7955 5.10116C45.7771 7.0828 47.7494 9.05624 49.7123 11.0215C50.2396 11.5488 50.1219 12.1922 49.6367 12.6738C48.4145 13.8879 47.2285 15.0685 46.0789 16.2158C46.0638 16.231 46.0541 16.2508 46.0512 16.272C46.0484 16.2933 46.0525 16.3149 46.0631 16.3336C46.9748 17.9109 47.665 19.5814 48.1338 21.3451C48.1514 21.4107 48.1941 21.4435 48.2621 21.4435C49.9566 21.4482 51.6465 21.4471 53.3316 21.44C54.084 21.4383 54.4953 21.9217 54.4936 22.6512C54.4889 25.1824 54.4883 27.9076 54.4918 30.8267C54.4918 31.5633 54.0277 31.9974 53.3387 31.9957C51.5457 31.991 49.8523 31.9898 48.2586 31.9922C48.2301 31.9928 48.2027 32.0025 48.1805 32.02C48.1583 32.0374 48.1425 32.0616 48.1355 32.0889C47.6715 33.8502 46.9719 35.4902 46.0824 37.0705C46.0461 37.1349 46.0543 37.1935 46.107 37.2463C47.2918 38.4287 48.4918 39.6275 49.707 40.8428C50.1799 41.3156 50.1641 41.9713 49.707 42.4283C47.7559 44.3724 45.7918 46.3371 43.8148 48.3223C43.3842 48.7564 42.718 48.7617 42.282 48.3275C41.0234 47.0724 39.807 45.856 38.6328 44.6783C38.6171 44.6622 38.5965 44.6518 38.5743 44.6486C38.552 44.6454 38.5293 44.6497 38.5098 44.6607C36.9266 45.5748 35.2602 46.2644 33.5105 46.7297C33.4297 46.7508 33.3898 46.8029 33.391 46.8861ZM40.424 26.717C40.424 23.455 39.1282 20.3266 36.8216 18.02C34.515 15.7134 31.3866 14.4176 28.1246 14.4176C24.8626 14.4176 21.7342 15.7134 19.4276 18.02C17.121 20.3266 15.8252 23.455 15.8252 26.717C15.8252 29.979 17.121 33.1074 19.4276 35.414C21.7342 37.7206 24.8626 39.0164 28.1246 39.0164C31.3866 39.0164 34.515 37.7206 36.8216 35.414C39.1282 33.1074 40.424 29.979 40.424 26.717Z" fill="#4364FA"/>
<path d="M38.3166 26.717C38.3166 29.4196 37.243 32.0114 35.332 33.9224C33.421 35.8334 30.8291 36.907 28.1266 36.907C25.424 36.907 22.8321 35.8334 20.9211 33.9224C19.0101 32.0114 17.9365 29.4196 17.9365 26.717C17.9365 24.0144 19.0101 21.4225 20.9211 19.5115C22.8321 17.6005 25.424 16.5269 28.1266 16.5269C30.8291 16.5269 33.421 17.6005 35.332 19.5115C37.243 21.4225 38.3166 24.0144 38.3166 26.717ZM34.0979 26.7187C34.0979 25.1346 33.4685 23.6153 32.3484 22.4952C31.2282 21.375 29.709 20.7457 28.1248 20.7457C26.5407 20.7457 25.0214 21.375 23.9012 22.4952C22.7811 23.6153 22.1518 25.1346 22.1518 26.7187C22.1518 28.3029 22.7811 29.8222 23.9012 30.9423C25.0214 32.0625 26.5407 32.6918 28.1248 32.6918C29.709 32.6918 31.2282 32.0625 32.3484 30.9423C33.4685 29.8222 34.0979 28.3029 34.0979 26.7187Z" fill="#4364FA"/>
<path d="M83.9127 51.7816C83.649 52.7484 83.2307 53.7152 82.742 54.617C82.7033 54.6873 82.7121 54.75 82.7684 54.8051C83.4527 55.4836 84.1711 56.199 84.9234 56.9514C85.4068 57.4348 85.4016 58.0817 84.9375 58.5475C83.6977 59.7897 82.4051 61.0858 81.0598 62.4358C80.543 62.9543 79.8926 62.8822 79.4039 62.3865C78.6293 61.6002 77.9174 60.8865 77.2682 60.2455C77.2528 60.2307 77.2331 60.2211 77.2119 60.2183C77.1907 60.2154 77.1691 60.2194 77.1504 60.2297C76.2527 60.7324 75.2965 61.1279 74.2816 61.4162C74.2523 61.4243 74.2264 61.4419 74.208 61.4664C74.1896 61.4908 74.1797 61.5208 74.1797 61.5516C74.1785 62.5477 74.1791 63.5648 74.1814 64.6031C74.1832 65.2606 73.735 65.7457 73.0863 65.744C71.0871 65.7416 69.2238 65.7404 67.4965 65.7404C66.876 65.7422 66.4436 65.2289 66.4436 64.6154C66.4459 63.5197 66.4465 62.4938 66.4453 61.5375C66.4454 61.5092 66.4364 61.4816 66.4197 61.4588C66.4029 61.436 66.3792 61.4192 66.3522 61.4109C65.3068 61.1004 64.3564 60.7072 63.501 60.2315C63.44 60.1975 63.3844 60.2057 63.334 60.2561C62.6227 60.9733 61.8979 61.6998 61.1596 62.4358C60.7061 62.8858 60.0645 62.9086 59.6215 62.4692C58.2855 61.1438 56.9549 59.8113 55.6295 58.4719C55.2111 58.0518 55.2586 57.4014 55.6734 56.983C56.3707 56.2799 57.1014 55.5527 57.8654 54.8016C57.917 54.75 57.9258 54.6926 57.8918 54.6293C57.3809 53.6988 56.9871 52.7508 56.7105 51.7852C56.6906 51.7149 56.6438 51.6797 56.5699 51.6797C55.5703 51.6785 54.5496 51.6785 53.5078 51.6797C52.8293 51.6815 52.3846 51.2156 52.3846 50.5565C52.3857 48.6756 52.3852 46.8135 52.3828 44.9701C52.3811 44.3742 52.9102 43.9436 53.5008 43.9436C54.5484 43.9447 55.5756 43.9447 56.5822 43.9436C56.6549 43.9436 56.7006 43.909 56.7193 43.8399C56.9982 42.8531 57.3873 41.9068 57.8865 41.001C57.9217 40.9377 57.9135 40.8803 57.8619 40.8287C57.1213 40.0881 56.3953 39.3639 55.684 38.6561C55.2252 38.199 55.2252 37.5451 55.6752 37.0969C56.9818 35.7949 58.2873 34.4877 59.5916 33.1752C60.0346 32.7287 60.6973 32.727 61.142 33.1717C61.8463 33.8748 62.5752 34.6014 63.3287 35.3514C63.3826 35.4053 63.4424 35.4141 63.508 35.3777C64.3799 34.8961 65.3221 34.5065 66.3346 34.2088C66.3967 34.19 66.4283 34.1479 66.4295 34.0822C66.4471 33.2678 66.45 32.5002 66.4383 31.7795C66.4225 30.8725 66.4172 29.8775 67.5686 29.8793C69.399 29.884 71.2271 29.8846 73.0529 29.8811C73.7596 29.8793 74.1885 30.3733 74.185 31.0535C74.1791 32.1692 74.1762 33.1775 74.1762 34.0787C74.1762 34.1514 74.2107 34.1977 74.2799 34.2176C75.2947 34.507 76.2434 34.8973 77.1258 35.3883C77.1879 35.4223 77.2436 35.4147 77.2928 35.3654C78.01 34.6494 78.7119 33.9451 79.3986 33.2525C79.967 32.6795 80.5494 32.69 81.1459 33.2842C82.442 34.5779 83.6859 35.819 84.8777 37.0072C85.4543 37.5815 85.442 38.1668 84.8408 38.7633C84.1436 39.4559 83.451 40.1461 82.7631 40.834C82.7421 40.8554 82.7286 40.8828 82.7245 40.9123C82.7204 40.9417 82.7259 40.9716 82.7402 40.9975C83.2313 41.8775 83.6232 42.8256 83.9162 43.8416C83.9361 43.9108 83.9818 43.9453 84.0533 43.9453C85.0482 43.9453 86.0742 43.9453 87.1313 43.9453C87.7482 43.9453 88.2404 44.39 88.2422 45.007C88.2457 46.732 88.2451 48.59 88.2404 50.5811C88.2387 51.2912 87.7377 51.6885 87.01 51.6832C86.0115 51.6774 85.023 51.6762 84.0445 51.6797C83.9754 51.6797 83.9314 51.7137 83.9127 51.7816ZM79.8012 47.8125C79.8012 46.5667 79.5558 45.333 79.079 44.182C78.6023 43.031 77.9035 41.9852 77.0225 41.1042C76.1416 40.2233 75.0957 39.5245 73.9447 39.0477C72.7937 38.571 71.5601 38.3256 70.3143 38.3256C67.7982 38.3256 65.3851 39.3251 63.606 41.1042C61.8269 42.8834 60.8273 45.2964 60.8273 47.8125C60.8273 50.3286 61.8269 52.7416 63.606 54.5208C65.3851 56.2999 67.7982 57.2994 70.3143 57.2994C71.5601 57.2994 72.7937 57.054 73.9447 56.5773C75.0957 56.1005 76.1416 55.4017 77.0225 54.5208C77.9035 53.6398 78.6023 52.594 79.079 51.443C79.5558 50.292 79.8012 49.0583 79.8012 47.8125Z" fill="#4364FA"/>
<path d="M77.6922 47.8108C77.6922 49.7679 76.9147 51.6448 75.5308 53.0287C74.147 54.4126 72.27 55.1901 70.3129 55.1901C69.3438 55.1901 68.3843 54.9992 67.489 54.6283C66.5937 54.2575 65.7802 53.7139 65.0949 53.0287C64.4097 52.3435 63.8662 51.53 63.4953 50.6347C63.1245 49.7394 62.9336 48.7798 62.9336 47.8108C62.9336 46.8417 63.1245 45.8821 63.4953 44.9868C63.8662 44.0915 64.4097 43.278 65.0949 42.5928C65.7802 41.9076 66.5937 41.364 67.489 40.9932C68.3843 40.6223 69.3438 40.4315 70.3129 40.4315C72.27 40.4315 74.147 41.2089 75.5308 42.5928C76.9147 43.9767 77.6922 45.8536 77.6922 47.8108ZM74.5229 47.8108C74.5229 46.6937 74.0791 45.6225 73.2893 44.8326C72.4994 44.0428 71.4282 43.599 70.3111 43.599C69.1941 43.599 68.1229 44.0428 67.333 44.8326C66.5432 45.6225 66.0994 46.6937 66.0994 47.8108C66.0994 48.9278 66.5432 49.999 67.333 50.7889C68.1229 51.5787 69.1941 52.0225 70.3111 52.0225C71.4282 52.0225 72.4994 51.5787 73.2893 50.7889C74.0791 49.999 74.5229 48.9278 74.5229 47.8108Z" fill="#4364FA"/>
<path d="M17.7573 70.7555L2.48186 86.0309C2.47591 86.0366 2.46883 86.0411 2.46106 86.0439C2.4533 86.0468 2.44502 86.048 2.43676 86.0475C2.4285 86.0471 2.42043 86.0448 2.41306 86.0411C2.4057 86.0373 2.3992 86.032 2.39397 86.0256C1.71429 85.1748 1.19515 84.2104 0.836551 83.1322C-0.921261 77.8289 2.2428 72.2988 7.56194 70.9471C8.40921 70.7315 9.55296 70.6318 10.9932 70.6483C13.1975 70.6729 15.4375 70.6746 17.7133 70.6535C17.7253 70.6532 17.737 70.6565 17.7471 70.6629C17.7572 70.6693 17.7651 70.6786 17.7698 70.6896C17.7746 70.7006 17.7759 70.7127 17.7736 70.7245C17.7714 70.7362 17.7657 70.747 17.7573 70.7555Z" fill="#4364FA"/>
<path d="M9.78191 89.6414C7.65847 89.6326 5.66863 88.9084 3.96882 87.6111C3.96291 87.6067 3.95802 87.6011 3.95448 87.5946C3.95095 87.5882 3.94886 87.581 3.94836 87.5737C3.94786 87.5663 3.94896 87.559 3.95158 87.5521C3.9542 87.5452 3.95829 87.5389 3.96355 87.5338L20.7419 70.7555C20.8028 70.6945 20.8761 70.6641 20.9616 70.6641H35.2772C35.3768 70.6641 35.3915 70.6992 35.3212 70.7695L16.5073 89.5816C16.4663 89.6238 16.4159 89.6449 16.3561 89.6449C14.105 89.652 11.9136 89.6508 9.78191 89.6414Z" fill="#4364FA"/>
<path d="M52.903 70.766L34.0381 89.6309C34.027 89.6421 34.0118 89.6484 33.9959 89.6484H19.5713C19.5595 89.6484 19.548 89.6449 19.5382 89.6383C19.5284 89.6318 19.5208 89.6224 19.5163 89.6115C19.5117 89.6006 19.5106 89.5886 19.5129 89.5771C19.5152 89.5655 19.5208 89.5548 19.5292 89.5465L38.394 70.6816C38.4052 70.6704 38.4203 70.6641 38.4362 70.6641H52.8608C52.8726 70.6641 52.8841 70.6676 52.8939 70.6742C52.9037 70.6807 52.9114 70.6901 52.9159 70.701C52.9204 70.7119 52.9216 70.7239 52.9193 70.7354C52.917 70.747 52.9113 70.7577 52.903 70.766Z" fill="#4364FA"/>
<path d="M55.1934 70.8152C55.1934 70.7714 55.2108 70.7294 55.2418 70.6984C55.2727 70.6674 55.3148 70.65 55.3586 70.65H80.0488C82.5934 70.65 85.0337 71.6499 86.8329 73.4297C88.6322 75.2095 89.643 77.6234 89.643 80.1404V80.1756C89.643 82.6926 88.6322 85.1065 86.8329 86.8863C85.0337 88.6661 82.5934 89.666 80.0488 89.666H55.3586C55.3148 89.666 55.2727 89.6486 55.2418 89.6176C55.2108 89.5866 55.1934 89.5446 55.1934 89.5008V70.8152Z" fill="#4364FA"/>
<path d="M53.0877 73.7033V89.594C53.0877 89.6089 53.0817 89.6232 53.0712 89.6337C53.0606 89.6443 53.0463 89.6502 53.0314 89.6502H37.1408C37.1296 89.6501 37.1187 89.6467 37.1095 89.6404C37.1003 89.6341 37.0931 89.6252 37.089 89.6149C37.0848 89.6045 37.0839 89.5931 37.0862 89.5822C37.0885 89.5713 37.0941 89.5613 37.1021 89.5535L52.991 73.6647C52.9987 73.6566 53.0087 73.6511 53.0196 73.6488C53.0306 73.6464 53.0419 73.6474 53.0523 73.6515C53.0627 73.6557 53.0716 73.6628 53.0779 73.6721C53.0842 73.6813 53.0876 73.6922 53.0877 73.7033Z" fill="#4364FA"/>
</g>
<defs>
<clipPath id="clip0_1080_13653">
<rect width="90" height="90" fill="white"/>
</clipPath>
</defs>
</svg>
