<svg width="1064" height="500" viewBox="0 0 1064 500" fill="none" xmlns="http://www.w3.org/2000/svg">
<g opacity="0.08">
<g clip-path="url(#clip0_1080_13677)">
<path d="M-0.5 -33.9318H213.933C216.481 -33.9318 219.028 -33.2196 220.88 -31.6173L303.782 32.1202C305.634 33.5445 306.793 35.5029 306.793 37.4614V190.217C306.793 192.176 307.95 194.134 309.803 195.558L363.064 236.329C364.917 237.753 367.463 238.644 370.012 238.644H1022.11" stroke="#4364FA" stroke-width="2.68331" stroke-miterlimit="8"/>
<path d="M-0.5 147.845H125.242C127.789 147.845 130.337 148.556 132.189 150.159L303.782 282.085C305.634 283.51 308.183 284.4 310.729 284.4H1021.42" stroke="#4364FA" stroke-width="2.68331" stroke-miterlimit="8"/>
<path d="M-0.268555 397.81H66.4234C68.9708 397.81 71.518 397.097 73.3705 395.495L156.272 331.757C158.125 330.333 160.672 329.443 163.219 329.443H1022.81" stroke="#4364FA" stroke-width="2.68331" stroke-miterlimit="8"/>
<path d="M-0.5 511.575H272.983C275.531 511.575 278.078 510.864 279.93 509.261L481.165 354.546C483.017 353.122 485.564 352.232 488.112 352.232H1021.42" stroke="#4364FA" stroke-width="2.68331" stroke-miterlimit="8"/>
<path d="M-0.5 11.4678H125.242C127.789 11.4678 130.337 12.18 132.189 13.7824L244.732 100.309C246.584 101.733 247.743 103.691 247.743 105.65V190.217C247.743 192.176 248.668 194.134 250.752 195.558L333.655 259.296C335.507 260.72 338.055 261.611 340.602 261.611H1022.81" stroke="#4364FA" stroke-width="2.68331" stroke-miterlimit="8"/>
<path d="M-0.5 193.422H95.6012C98.1486 193.422 100.696 194.134 102.548 195.737L244.5 304.874C246.353 306.298 248.9 307.188 251.447 307.188H1022.81" stroke="#4364FA" stroke-width="2.68331" stroke-miterlimit="8"/>
</g>
</g>
<defs>
<clipPath id="clip0_1080_13677">
<rect width="1024" height="548" fill="white" transform="translate(-0.5 -35)"/>
</clipPath>
</defs>
</svg>
