<svg width="338" height="302" viewBox="0 0 338 302" fill="none" xmlns="http://www.w3.org/2000/svg">
<path d="M18.7902 165.356H3V124.868H113.937M18.7902 165.356L40.6537 299.371H298.156L319.615 165.356M18.7902 165.356H319.615M319.615 165.356H335V124.868H225.278M138.634 124.868L169 14.3366L200.176 124.868M138.634 124.868H200.176M138.634 124.868H113.937M200.176 124.868H225.278M113.937 124.868L146.732 3L169 8.26341L191.268 3L225.278 124.868" stroke="#60D38E" stroke-width="4.6399"/>
<rect x="161.603" y="192.373" width="15.604" height="84.4333" rx="4.96785" stroke="#60D38E" stroke-width="4.6399"/>
<rect x="239.339" y="192.373" width="15.604" height="84.4333" rx="4.96785" stroke="#60D38E" stroke-width="4.6399"/>
<rect x="83.8658" y="192.373" width="15.604" height="84.4333" rx="4.96785" stroke="#60D38E" stroke-width="4.6399"/>
<path d="M20.0049 165.761H319.615" stroke="#60D38E" stroke-width="1.61951" stroke-linecap="round"/>
</svg>
