<?xml version="1.0" encoding="UTF-8"?>
<svg id="Layer_2" data-name="Layer 2" xmlns="http://www.w3.org/2000/svg" viewBox="0 0 23.25 20.25">
  <defs>
    <style>
      .cls-1 {
        fill: #4364fa;
      }
    </style>
  </defs>
  <g id="Layer_1-2" data-name="Layer 1">
    <g>
      <path class="cls-1" d="M12.32,15.75c.19,.13,.38,.32,.35,.71-.07,1.12,.4,2.23,1.26,2.97,.82,.7,1.87,.97,2.88,.74,1.79-.41,2.95-2.13,2.71-3.99-.18-1.35-.89-2.3-2.1-2.82h0c-1.22-.52-2.37-.35-3.42,.5-.19,.15-.37,.35-.56,.55-.09,.1-.19,.21-.29,.31l-.19,.2-.58-.3c-.29-.15-.6-.31-.9-.47-.33,.17-.64,.32-.96,.48l-.69,.35-.35-.47c-.86-1.19-2.41-1.71-3.77-1.27-1.62,.53-2.61,2.15-2.39,3.95,.2,1.65,1.6,2.95,3.26,3.04,.93,.05,1.86-.31,2.54-.99,.72-.71,1.1-1.7,1.05-2.7-.02-.45,.21-.65,.43-.8,.29-.2,.57-.29,.86-.29s.58,.1,.87,.31Zm2.16-.98c.47-.44,1.07-.65,1.68-.63,1.38,.06,2.43,1.19,2.4,2.56-.02,.69-.31,1.36-.81,1.83-.45,.42-1.02,.66-1.61,.66-.03,0-.05,0-.08,0-1.38-.05-2.46-1.2-2.42-2.58,.02-.7,.33-1.37,.84-1.84Zm-6.03,3.67c-.46,.47-1.08,.74-1.72,.75h-.02c-.62,0-1.22-.25-1.68-.71-.48-.48-.76-1.14-.77-1.82,0-.67,.27-1.33,.75-1.81,.47-.47,1.07-.72,1.71-.72h0c1.34,0,2.44,1.13,2.46,2.51,0,.67-.25,1.31-.72,1.8Z"/>
      <path class="cls-1" d="M.75,11.03c3.62,0,7.25,0,10.87,0s7.25,0,10.87,0h.26c.27,0,.49-.24,.49-.53s-.22-.53-.49-.53h-1.04c-.56,0-1.11,0-1.67,0,0,0-.02,0-.03,0-.6,0-.69-.46-.72-.62-.5-2.41-1.04-4.32-1.72-6.01-.36-.9-.8-1.85-1.51-2.62-.7-.76-1.47-.93-2.34-.49-.44,.22-.87,.52-1.29,.81l-.19,.14c-.28,.2-.54,.2-.83,0-.43-.28-.93-.61-1.44-.88C9.56,.1,9.11,0,8.63,0c-.59,.01-1.08,.3-1.6,.94-.77,.95-1.22,2.08-1.62,3.17-.58,1.6-1.06,3.34-1.47,5.34-.07,.36-.29,.54-.64,.54h-.01c-.69-.01-1.38,0-2.07,0H.5c-.27,0-.5,.24-.5,.53s.22,.53,.49,.53h.26Zm4.5-2.87c.49-2.21,1.1-4.95,2.69-6.7,.33-.37,.74-.48,1.21-.34,.51,.15,1,.41,1.58,.82l.34,.25-.75,.82,.69,.79s.08-.08,.11-.12c.29-.33,.57-.63,.89-.92,.43-.39,.89-.74,1.33-1.08l.29-.22c.12-.09,.25-.15,.37-.21,.05-.02,.1-.04,.14-.07,.44-.24,.9-.13,1.2,.27,1.36,1.85,1.99,4.01,2.48,5.88l.11,.4c.16,.59,.32,1.2,.39,1.81l.05,.42H4.84s.41-1.8,.41-1.8Z"/>
    </g>
  </g>
</svg>