<svg width="17" height="18" viewBox="0 0 17 18" fill="none" xmlns="http://www.w3.org/2000/svg">
<path fill-rule="evenodd" clip-rule="evenodd" d="M14.0745 1.12416C13.6145 0.865829 13.1245 0.840829 12.607 0.904996C12.1153 0.966663 11.5162 1.12166 10.797 1.30916L9.11449 1.74583C8.39532 1.93333 7.79699 2.08833 7.33949 2.27416C6.85699 2.46916 6.44032 2.73083 6.17032 3.185C5.89866 3.64166 5.87199 4.13 5.93949 4.64C6.00366 5.12083 6.16449 5.70416 6.35616 6.39916L6.80866 8.03583C7.00032 8.73166 7.16199 9.31416 7.35449 9.76083C7.55866 10.2358 7.83116 10.64 8.29449 10.9C8.75449 11.1575 9.24449 11.1833 9.76283 11.1183C10.2545 11.0575 10.8537 10.9017 11.5728 10.7142L13.2553 10.2775C13.9745 10.0908 14.5728 9.935 15.0303 9.74916C15.5128 9.55416 15.9295 9.29249 16.1995 8.83833C16.4712 8.38166 16.4978 7.89333 16.4303 7.38416C16.3662 6.90333 16.2053 6.31916 16.0137 5.62416L15.5612 3.9875C15.3695 3.2925 15.2078 2.70916 15.0153 2.2625C14.8112 1.7875 14.537 1.38333 14.0745 1.12416ZM11.0703 2.52916C11.8412 2.32916 12.3603 2.19583 12.762 2.14583C13.1462 2.0975 13.3303 2.14 13.4645 2.215C13.5953 2.28833 13.7212 2.41583 13.867 2.75666C14.0212 3.115 14.1612 3.61416 14.3678 4.3625L14.7962 5.915C15.0037 6.66333 15.1403 7.16333 15.1912 7.54833C15.2395 7.91416 15.1962 8.08 15.1245 8.19916C15.052 8.32166 14.9203 8.44583 14.562 8.59083C14.1887 8.74166 13.6703 8.87833 12.8995 9.07833L11.2995 9.49416C10.5287 9.69416 10.0095 9.8275 9.60782 9.8775C9.22282 9.92666 9.03949 9.88416 8.90532 9.80916C8.77449 9.73583 8.64866 9.6075 8.50283 9.2675C8.34866 8.90916 8.20866 8.40916 8.00199 7.66083L7.57366 6.10916C7.36616 5.35916 7.22949 4.86 7.17866 4.47583C7.13032 4.10916 7.17366 3.94416 7.24533 3.82416C7.31783 3.70166 7.44949 3.5775 7.80782 3.4325C8.18116 3.28166 8.69949 3.14583 9.47032 2.945L11.0703 2.52916Z" fill="#4364FA"/>
<path fill-rule="evenodd" clip-rule="evenodd" d="M1.6664 2.93747C1.50852 2.89877 1.34177 2.92309 1.20153 3.00529C1.0613 3.08749 0.958598 3.22109 0.915232 3.37776C0.871865 3.53442 0.891241 3.70181 0.969248 3.84443C1.04726 3.98704 1.17776 4.09365 1.33307 4.14164L2.75223 4.53581C3.10723 4.63414 3.3714 4.90247 3.4614 5.22831L5.08807 11.1141C5.02513 11.1266 4.96259 11.1411 4.90057 11.1575C3.25307 11.585 2.2464 13.2425 2.69807 14.88C3.14807 16.5091 4.85973 17.4483 6.50057 17.0216C7.93723 16.6491 8.8864 15.3416 8.8064 13.9283L15.8231 12.105C15.9025 12.0843 15.9771 12.0483 16.0426 11.9988C16.1081 11.9493 16.1633 11.8875 16.2049 11.8167C16.2465 11.7459 16.2737 11.6677 16.285 11.5864C16.2964 11.5051 16.2916 11.4223 16.271 11.3429C16.2504 11.2634 16.2143 11.1888 16.1648 11.1233C16.1154 11.0578 16.0535 11.0027 15.9827 10.9611C15.9119 10.9195 15.8337 10.8923 15.7524 10.8809C15.6711 10.8696 15.5884 10.8743 15.5089 10.895L8.47723 12.7225C8.26687 12.3205 7.97081 11.9696 7.60996 11.6945C7.24911 11.4195 6.83228 11.2271 6.3889 11.1308L4.6664 4.89497C4.56067 4.51985 4.35955 4.17851 4.08265 3.90424C3.80575 3.62997 3.46252 3.43212 3.0864 3.32997L1.66723 2.93664L1.6664 2.93747ZM5.21557 12.3666C6.22557 12.105 7.2389 12.6908 7.4989 13.6325C7.75723 14.5658 7.19057 15.5516 6.18723 15.8125C5.17723 16.075 4.1639 15.4883 3.9039 14.5466C3.64557 13.6133 4.21223 12.6275 5.21557 12.3666Z" fill="#4364FA"/>
</svg>
