<svg width="227" height="62" viewBox="0 0 227 62" fill="none" xmlns="http://www.w3.org/2000/svg">
<path d="M55.5374 31.2922C55.5374 24.3144 52.7655 17.6224 47.8315 12.6884C42.8975 7.75431 36.2054 4.98242 29.2277 4.98242C22.2499 4.98242 15.5579 7.75431 10.6239 12.6884C5.68986 17.6224 2.91797 24.3144 2.91797 31.2922C2.91797 38.2699 5.68986 44.9619 10.6239 49.8959C15.5579 54.8299 22.2499 57.6018 29.2277 57.6018C36.2054 57.6018 42.8975 54.8299 47.8315 49.8959C52.7655 44.9619 55.5374 38.2699 55.5374 31.2922Z" fill="#4364FA"/>
<path d="M35.2242 24.0823C35.2242 22.4916 34.5923 20.966 33.4675 19.8412C32.3426 18.7164 30.8171 18.0845 29.2264 18.0845C27.6357 18.0845 26.1101 18.7164 24.9852 19.8412C23.8604 20.966 23.2285 22.4916 23.2285 24.0823C23.2285 24.8699 23.3836 25.6499 23.6851 26.3776C23.9865 27.1053 24.4283 27.7664 24.9852 28.3234C26.1101 29.4483 27.6357 30.0802 29.2264 30.0802C30.014 30.0802 30.794 29.925 31.5216 29.6235C32.2492 29.3221 32.9106 28.8804 33.4675 28.3234C34.0244 27.7664 34.4661 27.1053 34.7675 26.3776C35.069 25.6499 35.2242 24.8699 35.2242 24.0823Z" stroke="white" stroke-width="2.63063"/>
<path d="M15.5518 28.1371C15.5384 31.2943 18.4864 33.568 21.549 32.8096C21.5681 32.8051 21.58 32.793 21.5847 32.774C21.9764 31.2798 23.1941 30.1902 24.7473 30.0482C24.7555 30.0474 24.7633 30.0442 24.7697 30.0392C24.7761 30.034 24.781 30.0271 24.7835 30.0195L25.0051 29.3653C25.0077 29.3574 25.0079 29.349 25.0056 29.3411C25.0033 29.3329 24.9986 29.3261 24.9922 29.3208C23.3612 27.9886 22.4318 26.0086 22.4867 23.8936C22.4871 23.8733 22.4783 23.8589 22.4604 23.8503C19.2738 22.3351 15.567 24.5828 15.5518 28.1371Z" stroke="white" stroke-width="2.63063"/>
<path d="M35.9706 23.8872C36.0256 25.9952 35.1044 27.9852 33.4739 29.3133C33.4544 29.3293 33.4486 29.3493 33.4565 29.3735L33.6686 30.0048C33.6767 30.0288 33.6936 30.0419 33.7188 30.0446C35.2583 30.2177 36.501 31.2623 36.8711 32.7775C36.8729 32.7854 36.8771 32.7928 36.8829 32.7986C36.8887 32.8044 36.8963 32.8083 36.9042 32.8104C40.433 33.6685 43.6615 30.5544 42.7595 26.9884C42.0153 24.0451 38.7586 22.5152 35.9917 23.8527C35.9854 23.8559 35.9798 23.8608 35.9762 23.8669C35.9725 23.873 35.9706 23.8801 35.9706 23.8872Z" stroke="white" stroke-width="2.63063"/>
<path d="M25.054 30.8562C23.6423 31.1395 22.524 32.2749 22.2866 33.7151C22.257 33.8961 22.2422 34.2034 22.2422 34.6372C22.2426 37.9031 22.2426 41.1816 22.2422 44.4733C22.2422 44.481 22.2453 44.4886 22.2507 44.4941C22.2562 44.4994 22.2637 44.5025 22.2714 44.5025H36.198L36.2095 44.4978L36.2143 44.4862C36.2148 41.2308 36.2145 37.9738 36.2138 34.7148C36.2138 34.1852 36.1877 33.7977 36.1359 33.552C35.791 31.9242 34.3647 30.8012 32.6927 30.7959C30.5345 30.7893 28.3763 30.7857 26.2179 30.7854C25.6785 30.7854 25.2906 30.8088 25.054 30.8562Z" stroke="white" stroke-width="2.63063"/>
<path d="M16.4558 33.7591C15.5887 34.1587 15.0507 34.8011 14.8418 35.6866C14.788 35.9157 14.7613 36.2535 14.7617 36.6996C14.7637 39.2937 14.7639 41.8885 14.7623 44.4839L14.7673 44.496L14.7793 44.501H21.4815L21.4923 44.4965L21.4967 44.4857V33.5442L21.4924 33.5337L21.4821 33.5295C20.2533 33.5292 19.0237 33.5292 17.7934 33.53C17.2731 33.53 16.8797 33.5644 16.4558 33.7591Z" stroke="white" stroke-width="2.63063"/>
<path d="M42.0301 33.7867C41.6705 33.616 41.3403 33.5305 41.0394 33.53C39.6843 33.5292 38.3306 33.5292 36.9782 33.5295C36.9674 33.5295 36.9619 33.5347 36.9619 33.5452V44.4742C36.9619 44.4813 36.9648 44.4881 36.9698 44.4931C36.9748 44.4981 36.9816 44.501 36.9887 44.501H43.6829L43.6945 44.4963L43.6992 44.4852C43.6984 41.9204 43.6987 39.3544 43.6997 36.7875C43.6997 36.2906 43.6718 35.9238 43.6161 35.6879C43.4117 34.8253 42.8829 34.1916 42.0301 33.7867Z" stroke="white" stroke-width="2.63063"/>
<path d="M76.6396 30.7949C76.6396 28.1543 77.1136 25.6745 78.0615 23.3555C79.0094 21.0195 80.3128 19.0137 81.9717 17.3379C83.6305 15.6621 85.6279 14.3418 87.9639 13.377C90.3167 12.4121 92.8389 11.9297 95.5303 11.9297C99.8805 11.9297 103.604 13.1146 106.702 15.4844C109.817 17.8542 111.916 20.9857 112.999 24.8789H106.956C106.16 22.4922 104.73 20.6217 102.665 19.2676C100.6 17.9134 98.2217 17.2363 95.5303 17.2363C93.0928 17.2363 90.8753 17.8288 88.8779 19.0137C86.8805 20.1816 85.3148 21.8066 84.1807 23.8887C83.0465 25.9538 82.4795 28.2559 82.4795 30.7949C82.4795 34.7051 83.7236 37.9466 86.2119 40.5195C88.7002 43.0924 91.8063 44.3789 95.5303 44.3789C98.2217 44.3789 100.591 43.7103 102.64 42.373C104.688 41.0358 106.127 39.1738 106.956 36.7871H113.101C112.068 40.6803 109.969 43.8034 106.804 46.1562C103.655 48.5091 99.8975 49.6855 95.5303 49.6855C92.8389 49.6855 90.3167 49.2116 87.9639 48.2637C85.611 47.2988 83.6051 45.987 81.9463 44.3281C80.3044 42.6523 79.0094 40.6465 78.0615 38.3105C77.1136 35.9746 76.6396 33.4694 76.6396 30.7949ZM118.966 14.0625C118.966 13.0638 119.304 12.2428 119.981 11.5996C120.659 10.9564 121.513 10.6348 122.546 10.6348C123.612 10.6348 124.484 10.9564 125.161 11.5996C125.855 12.2428 126.202 13.0638 126.202 14.0625C126.202 15.0951 125.855 15.9329 125.161 16.5762C124.484 17.2194 123.612 17.541 122.546 17.541C121.496 17.541 120.633 17.2194 119.956 16.5762C119.296 15.9329 118.966 15.0951 118.966 14.0625ZM119.804 49V21.8066H125.263V49H119.804ZM133.108 49V21.8066H138.364V26.5293H138.72C139.194 25.2767 140.082 24.168 141.386 23.2031C142.689 22.2383 144.229 21.7559 146.007 21.7559H148.394V27.0625H145.854C143.586 27.0625 141.8 27.8411 140.497 29.3984C139.211 30.9557 138.567 33.0208 138.567 35.5938V49H133.108ZM151.745 35.416C151.745 32.7585 152.338 30.3464 153.522 28.1797C154.707 25.9961 156.375 24.278 158.524 23.0254C160.691 21.7559 163.129 21.1211 165.837 21.1211C169.104 21.1211 171.956 22.0521 174.394 23.9141C176.848 25.776 178.38 28.2474 178.989 31.3281H173.378C172.904 29.7708 171.981 28.5182 170.61 27.5703C169.256 26.6055 167.682 26.123 165.888 26.123C163.349 26.123 161.292 27.0033 159.718 28.7637C158.144 30.5241 157.356 32.7415 157.356 35.416C157.356 38.1074 158.16 40.3333 159.769 42.0938C161.377 43.8542 163.45 44.7344 165.989 44.7344C167.733 44.7344 169.29 44.2604 170.661 43.3125C172.032 42.3646 172.955 41.1204 173.429 39.5801H178.989C178.397 42.6439 176.882 45.0983 174.444 46.9434C172.007 48.7715 169.155 49.6855 165.888 49.6855C163.823 49.6855 161.901 49.3216 160.124 48.5938C158.364 47.849 156.874 46.8418 155.655 45.5723C154.437 44.2858 153.48 42.7708 152.786 41.0273C152.092 39.2669 151.745 37.3965 151.745 35.416ZM184.448 42.2461V10H189.907V41.916C189.907 42.6439 190.085 43.2025 190.44 43.5918C190.796 43.9811 191.312 44.1758 191.989 44.1758H193.132V49H190.897C188.849 49 187.258 48.4076 186.124 47.2227C185.007 46.0378 184.448 44.3789 184.448 42.2461ZM197.245 35.4922C197.245 32.6654 197.838 30.1602 199.022 27.9766C200.207 25.776 201.824 24.0833 203.872 22.8984C205.937 21.7135 208.256 21.1211 210.829 21.1211C212.894 21.1211 214.773 21.485 216.466 22.2129C218.159 22.9408 219.555 23.9395 220.655 25.209C221.772 26.4785 222.627 27.9596 223.22 29.6523C223.829 31.3451 224.134 33.1647 224.134 35.1113V37.1426H202.704C202.806 39.5293 203.61 41.4505 205.116 42.9062C206.623 44.362 208.612 45.0898 211.083 45.0898C212.81 45.0898 214.35 44.7005 215.704 43.9219C217.075 43.1432 218.032 42.0938 218.573 40.7734H223.88C223.169 43.4479 221.654 45.6061 219.335 47.248C217.033 48.873 214.231 49.6855 210.931 49.6855C206.885 49.6855 203.593 48.3568 201.054 45.6992C198.515 43.0247 197.245 39.6224 197.245 35.4922ZM202.806 32.9277H218.726C218.556 30.6934 217.735 28.9329 216.263 27.6465C214.79 26.3431 212.979 25.6914 210.829 25.6914C208.73 25.6914 206.919 26.3685 205.396 27.7227C203.872 29.0768 203.009 30.8118 202.806 32.9277Z" fill="#0B1319"/>
</svg>
