<svg width="37" height="33" viewBox="0 0 37 33" fill="none" xmlns="http://www.w3.org/2000/svg">
<g clip-path="url(#clip0_145_1810)">
<path d="M2.72278 26.9629C1.46222 26.9629 0.166016 27.973 0.166016 29.7411C0.166016 31.3575 1.30567 32.4992 2.72278 32.4992C3.89252 32.4992 4.41386 31.714 4.41386 31.714V32.0563C4.41386 32.218 4.5668 32.3985 4.7561 32.3985H5.60165V27.0837H4.41386V27.7581C4.41386 27.7581 3.88816 26.9629 2.72278 26.9629ZM2.93437 28.0497C3.97208 28.0497 4.51641 28.9623 4.51641 29.7407C4.51641 30.6077 3.87012 31.4312 2.93657 31.4312C2.15618 31.4312 1.37445 30.7991 1.37445 29.7293C1.37445 28.7635 2.04718 28.0497 2.93437 28.0497Z" fill="black"/>
<path d="M7.25337 32.3992C7.07088 32.3992 6.91113 32.2683 6.91113 32.0569V27.0843H8.09891V27.742C8.36807 27.3375 8.8939 26.9619 9.70102 26.9619C11.0202 26.9619 11.7227 28.0135 11.7227 28.9969V32.3991H10.8973C10.6808 32.3991 10.5349 32.218 10.5349 32.0368V29.2586C10.5349 28.7135 10.2009 28.0515 9.42857 28.0515C8.59517 28.0515 8.09892 28.8391 8.09892 29.5807V32.3991L7.25337 32.3992Z" fill="black"/>
<path d="M15.1847 26.9634C13.9241 26.9634 12.6279 27.9735 12.6279 29.7416C12.6279 31.358 13.7676 32.4997 15.1847 32.4997C16.3544 32.4997 16.8758 31.7145 16.8758 31.7145V32.0568C16.8758 32.2185 17.0287 32.399 17.218 32.399H18.0635V24.4268H16.8758V27.7586C16.8758 27.7586 16.3501 26.9634 15.1847 26.9634ZM15.3963 28.0502C16.434 28.0502 16.9783 28.9628 16.9783 29.7412C16.9783 30.6082 16.332 31.4317 15.3985 31.4317C14.6181 31.4317 13.8364 30.7996 13.8364 29.7298C13.8364 28.764 14.5091 28.0502 15.3963 28.0502Z" fill="black"/>
<path d="M19.7153 32.3987C19.5328 32.3987 19.373 32.2678 19.373 32.0564V27.0838H20.5608V27.9696C20.7653 27.4734 21.2064 27.0234 21.9902 27.0234C22.2087 27.0234 22.413 27.0637 22.413 27.0637V28.2917C22.413 28.2917 22.1579 28.1911 21.8493 28.1911C21.0159 28.1911 20.5608 28.9787 20.5608 29.7202V32.3987H19.7153Z" fill="black"/>
<path d="M29.6186 32.3988C29.4361 32.3988 29.2764 32.2679 29.2764 32.0566V27.084H30.4642V32.3988L29.6186 32.3988Z" fill="black"/>
<path d="M33.9464 26.9634C32.6859 26.9634 31.3896 27.9735 31.3896 29.7416C31.3896 31.358 32.5293 32.4997 33.9464 32.4997C35.1162 32.4997 35.6375 31.7145 35.6375 31.7145V32.0568C35.6375 32.2185 35.7904 32.399 35.9797 32.399H36.8253V24.4268H35.6375V27.7586C35.6375 27.7586 35.1118 26.9634 33.9464 26.9634ZM34.158 28.0502C35.1957 28.0502 35.74 28.9628 35.74 29.7412C35.74 30.6082 35.0937 31.4317 34.1602 31.4317C33.3798 31.4317 32.5981 30.7996 32.5981 29.7298C32.5981 28.764 33.2708 28.0502 34.158 28.0502Z" fill="black"/>
<path d="M29.8615 25.9379C30.2953 25.9379 30.6469 25.5863 30.6469 25.1526C30.6469 24.7188 30.2953 24.3672 29.8615 24.3672C29.4278 24.3672 29.0762 24.7188 29.0762 25.1526C29.0762 25.5863 29.4278 25.9379 29.8615 25.9379Z" fill="black"/>
<path d="M25.543 26.9609C24.2228 26.9609 22.7725 27.9464 22.7725 29.7315C22.7725 31.3582 24.0079 32.4992 25.5401 32.4992C27.4285 32.4992 28.3506 30.9811 28.3506 29.7418C28.3506 28.221 27.1632 26.9609 25.543 26.9609ZM25.5473 28.0702C26.4602 28.0702 27.1412 28.8059 27.1412 29.7348C27.1412 30.6798 26.4183 31.409 25.55 31.409C24.744 31.409 23.9605 30.7531 23.9605 29.7507C23.9605 28.7316 24.7057 28.0702 25.5473 28.0702Z" fill="black"/>
<path d="M27.445 6.68987L30.484 1.42542C30.6555 1.13029 30.5518 0.755396 30.2607 0.583902C29.9695 0.412411 29.5906 0.512113 29.4231 0.807242L26.3442 6.13949C23.9952 5.06666 21.351 4.46842 18.5074 4.46842C15.6638 4.46842 13.0196 5.06665 10.6705 6.13949L7.59159 0.807242C7.4201 0.512113 7.04521 0.412411 6.75008 0.583902C6.45495 0.755396 6.35524 1.13029 6.52674 1.42542L9.56576 6.68987C4.32523 9.52949 0.775708 14.8338 0.189453 21.0434H36.8253C36.239 14.8338 32.6895 9.52943 27.445 6.68987ZM10.0962 15.8987C9.24671 15.8987 8.56073 15.2087 8.56073 14.3632C8.56073 13.5137 9.2507 12.8277 10.0962 12.8277C10.9457 12.8277 11.6317 13.5177 11.6317 14.3632C11.6357 15.2087 10.9457 15.8987 10.0962 15.8987ZM26.9146 15.8987C26.0651 15.8987 25.3791 15.2087 25.3791 14.3632C25.3791 13.5137 26.0691 12.8277 26.9146 12.8277C27.7641 12.8277 28.45 13.5177 28.45 14.3632C28.454 15.2087 27.7641 15.8987 26.9146 15.8987Z" fill="#3DDC84"/>
</g>
<defs>
<clipPath id="clip0_145_1810">
<rect width="36.6603" height="32" fill="white" transform="translate(0.169922 0.5)"/>
</clipPath>
</defs>
</svg>
