<svg width="20" height="20" viewBox="0 0 20 20" fill="none" xmlns="http://www.w3.org/2000/svg">
<path d="M14.6875 8.19444V6.38889C14.6875 3.89594 12.5888 1.875 10 1.875C7.41117 1.875 5.3125 3.89594 5.3125 6.38889V8.19444M7 18.125H13C14.5751 18.125 15.3627 18.125 15.9643 17.8298C16.4936 17.5702 16.9238 17.1558 17.1935 16.6462C17.5 16.0669 17.5 15.3085 17.5 13.7917V12.5278C17.5 11.011 17.5 10.2526 17.1935 9.67322C16.9238 9.16361 16.4936 8.74929 15.9643 8.48964C15.3627 8.19444 14.5751 8.19444 13 8.19444H7C5.42485 8.19444 4.63728 8.19444 4.03565 8.48964C3.50645 8.74929 3.07619 9.16361 2.80654 9.67322C2.5 10.2526 2.5 11.011 2.5 12.5278V13.7917C2.5 15.3085 2.5 16.0669 2.80654 16.6462C3.07619 17.1558 3.50645 17.5702 4.03565 17.8298C4.63728 18.125 5.42485 18.125 7 18.125Z" stroke="white" stroke-width="1.66667" stroke-linecap="round" stroke-linejoin="round"/>
<path d="M9.76299 13.2919C9.76821 13.2919 9.77113 13.2979 9.76789 13.302L7.84181 15.7441C7.83728 15.7498 7.84459 15.7573 7.85045 15.753L12.172 12.5329C12.1769 12.5292 12.1742 12.5215 12.1682 12.5216L10.5856 12.5459C10.5804 12.546 10.5774 12.5399 10.5807 12.5358L11.9645 10.7914C11.9677 10.7873 11.9648 10.7812 11.9596 10.7812H10.1551C10.1532 10.7812 10.1514 10.7821 10.1502 10.7836L8.16887 13.2817C8.16562 13.2858 8.16854 13.2919 8.17377 13.2919H9.76299Z" fill="white" stroke="white" stroke-width="0.5" stroke-miterlimit="10"/>
</svg>
