<svg width="73" height="72" viewBox="0 0 73 72" fill="none" xmlns="http://www.w3.org/2000/svg">
<path d="M9.51416 39.0002C10.2504 45.5818 13.3799 51.6633 18.3076 56.088C23.2352 60.5128 29.6172 62.9721 36.2398 62.9984C42.8625 63.0246 49.2638 60.6159 54.2263 56.2303C59.1888 51.8448 62.3665 45.7883 63.1548 39.2127C63.9432 32.6371 62.2873 26.0011 58.5021 20.5667C54.7169 15.1324 49.0664 11.2787 42.6253 9.73871C36.1841 8.1987 29.4016 9.07973 23.5677 12.2142C17.7338 15.3488 13.2554 20.5181 10.9842 26.7392M9.33398 12.0029V27.0029H24.334M33.334 36C33.334 36.7956 33.6501 37.5587 34.2127 38.1213C34.7753 38.6839 35.5383 39 36.334 39C37.1296 39 37.8927 38.6839 38.4553 38.1213C39.0179 37.5587 39.334 36.7956 39.334 36C39.334 35.2044 39.0179 34.4413 38.4553 33.8787C37.8927 33.3161 37.1296 33 36.334 33C35.5383 33 34.7753 33.3161 34.2127 33.8787C33.6501 34.4413 33.334 35.2044 33.334 36Z" stroke="#2152D4" stroke-width="3.5" stroke-linecap="round" stroke-linejoin="round"/>
</svg>
