<svg width="72" height="72" viewBox="0 0 72 72" fill="none" xmlns="http://www.w3.org/2000/svg">
<path d="M9 63V57C9 53.8174 10.2643 50.7652 12.5147 48.5147C14.7652 46.2643 17.8174 45 21 45H33C35.88 45 38.52 46.014 40.59 47.703M48 9.38965C50.5812 10.0506 52.8691 11.5518 54.5029 13.6566C56.1367 15.7614 57.0235 18.3501 57.0235 21.0146C57.0235 23.6792 56.1367 26.2679 54.5029 28.3727C52.8691 30.4775 50.5812 31.9787 48 32.6396M48 57H66M57 48V66M15 21C15 24.1826 16.2643 27.2348 18.5147 29.4853C20.7652 31.7357 23.8174 33 27 33C30.1826 33 33.2348 31.7357 35.4853 29.4853C37.7357 27.2348 39 24.1826 39 21C39 17.8174 37.7357 14.7652 35.4853 12.5147C33.2348 10.2643 30.1826 9 27 9C23.8174 9 20.7652 10.2643 18.5147 12.5147C16.2643 14.7652 15 17.8174 15 21Z" stroke="#2152D4" stroke-width="3.5" stroke-linecap="round" stroke-linejoin="round"/>
</svg>
