<svg width="23" height="22" viewBox="0 0 23 22" fill="none" xmlns="http://www.w3.org/2000/svg">
<path d="M16.6251 14.5171C17.9597 15.1876 19.1039 16.2635 19.9391 17.6088C20.1045 17.8752 20.1872 18.0085 20.2157 18.1929C20.2738 18.5678 20.0175 19.0287 19.6684 19.177C19.4966 19.25 19.3033 19.25 18.9168 19.25M14.7918 10.5712C16.15 9.89623 17.0834 8.49462 17.0834 6.875C17.0834 5.25538 16.15 3.85377 14.7918 3.17878M12.9584 6.875C12.9584 9.15317 11.1116 11 8.83343 11C6.55525 11 4.70843 9.15317 4.70843 6.875C4.70843 4.59683 6.55525 2.75 8.83343 2.75C11.1116 2.75 12.9584 4.59683 12.9584 6.875ZM2.47106 17.3601C3.9325 15.1658 6.23869 13.75 8.83343 13.75C11.4282 13.75 13.7344 15.1658 15.1958 17.3601C15.516 17.8409 15.676 18.0812 15.6576 18.3883C15.6433 18.6273 15.4866 18.92 15.2955 19.0645C15.0502 19.25 14.7128 19.25 14.0379 19.25H3.62892C2.95408 19.25 2.61667 19.25 2.37133 19.0645C2.18031 18.92 2.02359 18.6273 2.00924 18.3883C1.99081 18.0812 2.15089 17.8409 2.47106 17.3601Z" stroke="white" stroke-width="1.83333" stroke-linecap="round" stroke-linejoin="round"/>
</svg>
