<svg width="20" height="23" viewBox="0 0 20 23" fill="none" xmlns="http://www.w3.org/2000/svg">
<path d="M14.0004 8.5V5.5C14.0004 3.29086 12.2095 1.5 10.0004 1.5C7.79123 1.5 6.00037 3.29086 6.00037 5.5V8.5M1.59237 9.85196L0.992373 16.252C0.821775 18.0717 0.736477 18.9815 1.03842 19.6843C1.30367 20.3016 1.76849 20.8121 2.35839 21.1338C3.0299 21.5 3.94374 21.5 5.77142 21.5H14.2293C16.057 21.5 16.9708 21.5 17.6423 21.1338C18.2322 20.8121 18.6971 20.3016 18.9623 19.6843C19.2643 18.9815 19.179 18.0717 19.0084 16.252L18.4084 9.85196C18.2643 8.31535 18.1923 7.54704 17.8467 6.96616C17.5424 6.45458 17.0927 6.04511 16.555 5.78984C15.9444 5.5 15.1727 5.5 13.6293 5.5L6.37142 5.5C4.82806 5.5 4.05638 5.5 3.44579 5.78984C2.90803 6.04511 2.45838 6.45458 2.15403 6.96616C1.80846 7.54703 1.73643 8.31534 1.59237 9.85196Z" stroke="#4364FA" stroke-width="1.5" stroke-linecap="round" stroke-linejoin="round"/>
</svg>
