<svg width="22" height="19" viewBox="0 0 22 19" fill="none" xmlns="http://www.w3.org/2000/svg">
<path d="M13 4.5H15.3373C15.5818 4.5 15.7041 4.5 15.8192 4.52763C15.9213 4.55213 16.0188 4.59253 16.1083 4.64736C16.2092 4.7092 16.2957 4.79568 16.4686 4.96863L20.5314 9.03137C20.7043 9.20432 20.7908 9.2908 20.8526 9.39172C20.9075 9.48119 20.9479 9.57873 20.9724 9.68077C21 9.79586 21 9.91815 21 10.1627V13C21 13.4659 21 13.6989 20.9239 13.8827C20.8224 14.1277 20.6277 14.3224 20.3827 14.4239C20.1989 14.5 19.9659 14.5 19.5 14.5M14.5 14.5H13M13 14.5V4.7C13 3.5799 13 3.01984 12.782 2.59202C12.5903 2.21569 12.2843 1.90973 11.908 1.71799C11.4802 1.5 10.9201 1.5 9.8 1.5H4.2C3.0799 1.5 2.51984 1.5 2.09202 1.71799C1.71569 1.90973 1.40973 2.21569 1.21799 2.59202C1 3.01984 1 3.5799 1 4.7V12.5C1 13.6046 1.89543 14.5 3 14.5M13 14.5H9M9 14.5C9 16.1569 7.65685 17.5 6 17.5C4.34315 17.5 3 16.1569 3 14.5M9 14.5C9 12.8431 7.65685 11.5 6 11.5C4.34315 11.5 3 12.8431 3 14.5M19.5 15C19.5 16.3807 18.3807 17.5 17 17.5C15.6193 17.5 14.5 16.3807 14.5 15C14.5 13.6193 15.6193 12.5 17 12.5C18.3807 12.5 19.5 13.6193 19.5 15Z" stroke="#4364FA" stroke-width="1.5" stroke-linecap="round" stroke-linejoin="round"/>
</svg>
