<svg width="49" height="48" viewBox="0 0 49 48" fill="none" xmlns="http://www.w3.org/2000/svg">
<rect x="0.5" width="48" height="48" rx="18" fill="white"/>
<path fill-rule="evenodd" clip-rule="evenodd" d="M20.9396 12.1582L26.7031 12.1582C26.9223 12.1582 27.1324 12.2452 27.2873 12.4002L33.8967 19.0096C34.0516 19.1645 34.1387 19.3746 34.1387 19.5938V29.7635C34.1387 30.6589 34.1387 31.3811 34.0909 31.9659C34.0417 32.5681 33.9378 33.097 33.6885 33.5863C33.2924 34.3636 32.6605 34.9955 31.8832 35.3916C31.3939 35.6409 30.865 35.7449 30.2628 35.7941C29.678 35.8418 28.9558 35.8418 28.0604 35.8418H20.9397C20.0443 35.8418 19.322 35.8418 18.7372 35.7941C18.1351 35.7449 17.6062 35.6409 17.1168 35.3916C16.3395 34.9955 15.7076 34.3636 15.3116 33.5863C15.0622 33.097 14.9583 32.5681 14.9091 31.9659C14.8613 31.3811 14.8613 30.6589 14.8613 29.7635V18.2365C14.8613 17.3411 14.8613 16.6189 14.9091 16.0341C14.9583 15.4319 15.0622 14.903 15.3116 14.4137C15.7076 13.6364 16.3395 13.0045 17.1168 12.6084C17.6062 12.3591 18.1351 12.2552 18.7372 12.206C19.322 12.1582 20.0442 12.1582 20.9396 12.1582ZM18.8718 13.8528C18.3718 13.8937 18.0845 13.9698 17.867 14.0807C17.4006 14.3183 17.0214 14.6975 16.7838 15.1638C16.673 15.3814 16.5968 15.6687 16.556 16.1686C16.5143 16.6783 16.5137 17.3328 16.5137 18.2719V29.7281C16.5137 30.6672 16.5143 31.3218 16.556 31.8314C16.5968 32.3314 16.673 32.6186 16.7838 32.8362C17.0214 33.3025 17.4006 33.6817 17.867 33.9193C18.0845 34.0302 18.3718 34.1063 18.8718 34.1472C19.3814 34.1888 20.036 34.1895 20.975 34.1895H28.025C28.964 34.1895 29.6186 34.1888 30.1283 34.1472C30.6282 34.1063 30.9155 34.0302 31.133 33.9193C31.5994 33.6817 31.9786 33.3025 32.2162 32.8362C32.3271 32.6186 32.4032 32.3314 32.4441 31.8314C32.4857 31.3218 32.4863 30.6672 32.4863 29.7281V20.42L28.4368 20.42C28.1531 20.42 27.8926 20.42 27.6749 20.4023C27.4401 20.3831 27.1832 20.3392 26.9295 20.2099C26.5668 20.0251 26.2719 19.7302 26.0871 19.3674C25.9578 19.1137 25.9139 18.8569 25.8947 18.6221C25.8769 18.4044 25.8769 18.1439 25.877 17.8602L25.877 13.8105H20.975C20.036 13.8105 19.3814 13.8112 18.8718 13.8528ZM27.5293 14.9789L31.318 18.7677H28.4656C28.1435 18.7677 27.9517 18.767 27.8094 18.7554C27.7226 18.7483 27.6861 18.7389 27.6763 18.7359C27.6272 18.71 27.587 18.6698 27.5611 18.6206C27.558 18.6109 27.5487 18.5744 27.5416 18.4876C27.53 18.3453 27.5293 18.1534 27.5293 17.8313V14.9789ZM27.5621 18.6235C27.562 18.6235 27.5618 18.623 27.5614 18.6218C27.5619 18.6229 27.5621 18.6235 27.5621 18.6235ZM27.6735 18.7349C27.6735 18.7349 27.6741 18.7351 27.6751 18.7355C27.674 18.7351 27.6734 18.7349 27.6735 18.7349ZM19.2676 20.6953C19.2676 20.239 19.6375 19.8691 20.0938 19.8691H22.2969C22.7532 19.8691 23.1231 20.239 23.1231 20.6953C23.1231 21.1516 22.7532 21.5215 22.2969 21.5215H20.0938C19.6375 21.5215 19.2676 21.1516 19.2676 20.6953ZM19.2676 25.1016C19.2676 24.6453 19.6375 24.2754 20.0938 24.2754H28.9063C29.3625 24.2754 29.7324 24.6453 29.7324 25.1016C29.7324 25.5579 29.3625 25.9277 28.9063 25.9277H20.0938C19.6375 25.9277 19.2676 25.5579 19.2676 25.1016ZM19.2676 29.5078C19.2676 29.0515 19.6375 28.6817 20.0938 28.6817H28.9063C29.3625 28.6817 29.7324 29.0515 29.7324 29.5078C29.7324 29.9641 29.3625 30.334 28.9063 30.334H20.0938C19.6375 30.334 19.2676 29.9641 19.2676 29.5078Z" fill="#2761FC"/>
</svg>
