<svg width="48" height="48" viewBox="0 0 48 48" fill="none" xmlns="http://www.w3.org/2000/svg">
<rect width="48" height="48" rx="18" fill="white"/>
<path d="M15 18.52C15 16.5878 15 15.6217 15.3679 14.8837C15.6914 14.2346 16.2077 13.7068 16.8428 13.376C17.5647 13 18.5098 13 20.4 13H24.0133C24.8387 13 25.2515 13 25.6399 13.0953C25.9843 13.1798 26.3135 13.3192 26.6154 13.5084C26.9561 13.7218 27.2479 14.0201 27.8316 14.6168L31.4184 18.2832C32.0021 18.8799 32.2939 19.1783 32.5026 19.5264C32.6877 19.8351 32.8241 20.1716 32.9067 20.5236C33 20.9207 33 21.3426 33 22.1865V30.48C33 32.4121 33 33.3782 32.6321 34.1162C32.3086 34.7654 31.7922 35.2932 31.1573 35.6239C30.4352 36 29.4901 36 27.6 36H20.4C18.5098 36 17.5647 36 16.8428 35.6239C16.2077 35.2932 15.6914 34.7654 15.3679 34.1162C15 33.3782 15 32.4121 15 30.48V18.52Z" stroke="#2761FC" stroke-width="2" stroke-linecap="round" stroke-linejoin="round"/>
<path d="M20 26.8C20 26.5199 20 26.3799 20.0613 26.273C20.1152 26.1789 20.2013 26.1024 20.3071 26.0545C20.4275 26 20.585 26 20.9 26H28.1C28.415 26 28.5725 26 28.6929 26.0545C28.7987 26.1024 28.8847 26.1789 28.9387 26.273C29 26.3799 29 26.5199 29 26.8V30.2C29 30.48 29 30.62 28.9387 30.727C28.8847 30.821 28.7987 30.8975 28.6929 30.9455C28.5725 31 28.415 31 28.1 31H20.9C20.585 31 20.4275 31 20.3071 30.9455C20.2013 30.8975 20.1152 30.821 20.0613 30.727C20 30.62 20 30.48 20 30.2V26.8Z" stroke="#2761FC" stroke-width="2" stroke-linecap="round" stroke-linejoin="round"/>
</svg>
