<svg width="49" height="48" viewBox="0 0 49 48" fill="none" xmlns="http://www.w3.org/2000/svg">
<rect x="0.5" width="48" height="48" rx="18" fill="white"/>
<path d="M30.125 21.8333V19.6667C30.125 16.6751 27.6066 14.25 24.5 14.25C21.3934 14.25 18.875 16.6751 18.875 19.6667V21.8333M20.9 33.75H28.1C29.9902 33.75 30.9353 33.75 31.6572 33.3958C32.2923 33.0842 32.8086 32.587 33.1321 31.9755C33.5 31.2803 33.5 30.3702 33.5 28.55V27.0333C33.5 25.2132 33.5 24.3031 33.1321 23.6079C32.8086 22.9963 32.2923 22.4992 31.6572 22.1876C30.9353 21.8333 29.9902 21.8333 28.1 21.8333H20.9C19.0098 21.8333 18.0647 21.8333 17.3428 22.1876C16.7077 22.4992 16.1914 22.9963 15.8679 23.6079C15.5 24.3031 15.5 25.2132 15.5 27.0333V28.55C15.5 30.3702 15.5 31.2803 15.8679 31.9755C16.1914 32.587 16.7077 33.0842 17.3428 33.3958C18.0647 33.75 19.0098 33.75 20.9 33.75Z" stroke="#2761FC" stroke-width="2" stroke-linecap="round" stroke-linejoin="round"/>
<path d="M24.2156 27.9503C24.2218 27.9503 24.2254 27.9575 24.2215 27.9624L21.9102 30.8929C21.9047 30.8998 21.9135 30.9088 21.9205 30.9036L27.1064 27.0394C27.1122 27.0351 27.1091 27.0258 27.1018 27.0259L25.2028 27.0551C25.1965 27.0552 25.1929 27.0479 25.1968 27.0429L26.8574 24.9497C26.8613 24.9447 26.8578 24.9375 26.8515 24.9375H24.6861C24.6838 24.9375 24.6816 24.9385 24.6802 24.9403L22.3026 27.9381C22.2987 27.943 22.3022 27.9503 22.3085 27.9503H24.2156Z" fill="#2761FC" stroke="#2761FC" stroke-width="0.6" stroke-miterlimit="10"/>
</svg>
