<svg width="48" height="48" viewBox="0 0 48 48" fill="none" xmlns="http://www.w3.org/2000/svg">
<rect width="48" height="48" rx="18" fill="white"/>
<g clip-path="url(#clip0_362_9320)">
<path d="M20.9791 32.9181L21.6439 34.909H24.9678L25.6325 32.9181C26.505 32.715 27.3359 32.3493 28.0839 31.9023L29.621 32.6744C29.8289 32.7962 30.1196 32.7557 30.2858 32.5525L32.3217 30.5616L31.3662 28.6927C31.8231 27.9206 32.1555 27.1081 32.4048 26.2955L34.4406 25.6454V22.395L32.4048 21.745C32.197 20.8917 31.8231 20.0791 31.3662 19.3478L32.3217 17.4788L29.9534 15.1629L28.0422 16.0974C27.2529 15.6505 26.4219 15.3255 25.5909 15.0817L24.9262 13.0908H21.6024L20.9376 15.0817C20.0651 15.2848 19.2341 15.6505 18.4863 16.0974L16.5751 15.1629L14.2068 17.4788L15.1624 19.3478C14.7054 20.1198 14.373 20.9324 14.1237 21.745L12.0879 22.395V25.6454L14.1237 26.2955C14.3315 27.1487 14.7054 27.9613 15.1624 28.6927L14.2068 30.5616L16.2427 32.5525C16.4089 32.715 16.6997 32.7557 16.9074 32.6744L18.4447 31.9023C19.2341 32.3493 20.0651 32.6744 20.896 32.9181H20.9791Z" stroke="#2761FC" stroke-width="2" stroke-linecap="round" stroke-linejoin="round"/>
<path d="M23.2625 29.302C26.2456 29.302 28.6638 26.9372 28.6638 24.0202C28.6638 21.1031 26.2456 18.7383 23.2625 18.7383C20.2795 18.7383 17.8613 21.1031 17.8613 24.0202C17.8613 26.9372 20.2795 29.302 23.2625 29.302Z" stroke="#2761FC" stroke-width="2" stroke-linecap="round" stroke-linejoin="round"/>
</g>
<defs>
<clipPath id="clip0_362_9320">
<rect width="25" height="24" fill="white" transform="translate(11 12)"/>
</clipPath>
</defs>
</svg>
