<svg width="72" height="72" viewBox="0 0 72 72" fill="none" xmlns="http://www.w3.org/2000/svg">
<path d="M32.998 21C32.998 24.1826 31.7338 27.2348 29.4833 29.4853C27.2329 31.7357 24.1806 33 20.998 33C17.8154 33 14.7632 31.7357 12.5128 29.4853C10.2623 27.2348 8.99805 24.1826 8.99805 21C8.99805 17.8174 10.2623 14.7652 12.5128 12.5147C14.7632 10.2643 17.8154 9 20.998 9M32.998 21C32.998 17.8174 31.7338 14.7652 29.4833 12.5147C27.2329 10.2643 24.1806 9 20.998 9M32.998 21H20.998V9M26.998 51V63M50.998 42V63M38.998 39V63M62.998 36V63" stroke="#2152D4" stroke-width="3.5" stroke-linecap="round" stroke-linejoin="round"/>
</svg>
