<svg width="72" height="72" viewBox="0 0 72 72" fill="none" xmlns="http://www.w3.org/2000/svg">
<path d="M26.994 61.455C21.7311 59.5929 17.1748 56.1452 13.9524 51.5866C10.7299 47.028 8.99974 41.5826 9 36C9 32.4543 9.69838 28.9433 11.0553 25.6675C12.4121 22.3918 14.4009 19.4153 16.9081 16.9081C19.4153 14.4009 22.3918 12.4121 25.6675 11.0553C28.9433 9.69838 32.4543 9 36 9C39.5457 9 43.0567 9.69838 46.3325 11.0553C49.6082 12.4121 52.5847 14.4009 55.0919 16.9081C57.5991 19.4153 59.5879 22.3918 60.9447 25.6675C62.3016 28.9433 63 32.4543 63 36M36 21V36M36 45H42C42.7956 45 43.5587 45.3161 44.1213 45.8787C44.6839 46.4413 45 47.2044 45 48V51C45 51.7956 44.6839 52.5587 44.1213 53.1213C43.5587 53.6839 42.7956 54 42 54H39C38.2044 54 37.4413 54.3161 36.8787 54.8787C36.3161 55.4413 36 56.2044 36 57V60C36 60.7956 36.3161 61.5587 36.8787 62.1213C37.4413 62.6839 38.2044 63 39 63H45M54 45V51C54 51.7956 54.3161 52.5587 54.8787 53.1213C55.4413 53.6839 56.2044 54 57 54H60M63 45V63" stroke="#2152D4" stroke-width="3.5" stroke-linecap="round" stroke-linejoin="round"/>
</svg>
