<svg width="32" height="32" viewBox="0 0 32 32" fill="none" xmlns="http://www.w3.org/2000/svg">
<path d="M15.9993 16C15.6457 16 15.3066 15.8595 15.0565 15.6095C14.8065 15.3594 14.666 15.0203 14.666 14.6667C14.666 14.313 14.8065 13.9739 15.0565 13.7239C15.3066 13.4738 15.6457 13.3333 15.9993 13.3333C16.353 13.3333 16.6921 13.4738 16.9422 13.7239C17.1922 13.9739 17.3327 14.313 17.3327 14.6667C17.3327 15.0203 17.1922 15.3594 16.9422 15.6095C16.6921 15.8595 16.353 16 15.9993 16ZM15.9993 16V19.3333M16.0004 4C19.1149 6.75543 23.1797 8.19009 27.3338 8C27.9386 10.0574 28.1236 12.2153 27.8779 14.3456C27.6323 16.4759 26.9609 18.535 25.9036 20.4007C24.8464 22.2664 23.4249 23.9005 21.7237 25.206C20.0225 26.5114 18.0761 27.4616 16.0004 28C13.9247 27.4616 11.9784 26.5114 10.2772 25.206C8.57591 23.9005 7.15444 22.2664 6.09722 20.4007C5.04001 18.535 4.36861 16.4759 4.12293 14.3456C3.87725 12.2153 4.06231 10.0574 4.6671 8C8.82113 8.19009 12.886 6.75543 16.0004 4Z" stroke="#2761FC" stroke-width="2" stroke-linecap="round" stroke-linejoin="round"/>
</svg>
