<svg width="72" height="72" viewBox="0 0 72 72" fill="none" xmlns="http://www.w3.org/2000/svg">
<path d="M36.0005 63C31.3301 61.7886 26.9509 59.6507 23.1231 56.7134C19.2953 53.7761 16.097 50.0994 13.7183 45.9016C11.3395 41.7038 9.82888 37.0707 9.27611 32.2775C8.72333 27.4844 9.1397 22.629 10.5005 18C19.8471 18.4277 28.993 15.1997 36.0005 9C43.008 15.1997 52.1539 18.4277 61.5005 18C63.2045 23.799 63.4055 29.871 62.1695 35.67M57.0039 63C55.4126 63 53.8865 62.3679 52.7613 61.2426C51.636 60.1174 51.0039 58.5913 51.0039 57C51.0039 55.4087 51.636 53.8826 52.7613 52.7574C53.8865 51.6321 55.4126 51 57.0039 51M57.0039 63C58.5952 63 60.1213 62.3679 61.2465 61.2426C62.3718 60.1174 63.0039 58.5913 63.0039 57C63.0039 55.4087 62.3718 53.8826 61.2465 52.7574C60.1213 51.6321 58.5952 51 57.0039 51M57.0039 63V67.5M57.0039 51V46.5M66.0982 51.75L62.2012 54M51.8102 60L47.9102 62.25M47.9102 51.75L51.8102 54M62.2012 60L66.1012 62.25" stroke="#2152D4" stroke-width="3.5" stroke-linecap="round" stroke-linejoin="round"/>
</svg>
