<svg width="200" height="25" viewBox="0 0 200 25" fill="none" xmlns="http://www.w3.org/2000/svg">
<path fill-rule="evenodd" clip-rule="evenodd" d="M13.8469 0L5.02151 9.90287H12.1766L3.48058 19.7195L0 9.90287V0H12.9094H13.8469ZM15.7111 6.9611L21.918 0H25.8188V9.90287L22.349 19.7195L12.9094 24.6763L3.48063 19.7195L22.8663 6.86412L15.7111 6.9611Z" fill="#4364FA"/>
<path d="M40.5761 18.1131C37.3467 18.1131 35.0215 16.111 35.0215 13.2048H37.2821C37.3036 14.7548 38.5738 15.9818 40.6622 15.9818C42.4491 15.9818 43.6548 15.1638 43.6548 13.8075C43.6548 9.73882 35.4951 12.7527 35.4951 6.6819C35.4951 4.39998 37.3467 2.48402 40.533 2.48402C43.095 2.48402 45.657 3.86179 45.7001 7.00482H43.3534C43.3534 5.51941 42.3415 4.5722 40.5115 4.5722C38.66 4.5722 37.7988 5.56247 37.7988 6.63885C37.7988 10.277 46.0445 7.54301 46.0445 13.6353C46.0445 16.154 44.0423 18.1131 40.5761 18.1131Z" fill="#0B1319"/>
<path d="M53.617 17.8332C51.3995 17.8332 50.0647 16.6061 50.0647 14.2596V8.42564H48.0409V6.59579H49.5264C49.914 6.59579 50.1938 6.31593 50.1938 5.86385V3.38818H52.3252V6.57427H55.5977V8.42564H52.3252V14.195C52.3252 15.2714 52.7774 15.9172 53.9615 15.9172H55.4901V17.8332H53.617Z" fill="#0B1319"/>
<path d="M63.3616 18.1131C59.9815 18.1131 57.6994 15.6159 57.6994 12.236C57.6994 8.66244 60.1107 6.29441 63.3185 6.29441C66.8278 6.29441 68.8301 8.87772 68.8301 12.0853V12.9249H59.9599C60.0461 14.8839 61.3594 16.2186 63.4262 16.2186C64.8471 16.2186 66.0743 15.5297 66.5264 14.4318H68.7224C68.1411 16.6061 66.1389 18.1131 63.3616 18.1131ZM60.003 11.1812H66.591C66.4403 9.28674 65.0624 8.18883 63.3185 8.18883C61.5962 8.18883 60.1752 9.41591 60.003 11.1812Z" fill="#0B1319"/>
<path d="M73.9537 17.8332C72.2529 17.8332 71.2841 16.7999 71.2841 15.0346V1.6875H73.5447V14.9054C73.5447 15.5082 73.8461 15.8311 74.4058 15.8311H74.8795V17.8332H73.9537Z" fill="#0B1319"/>
<path d="M80.3293 17.8332C78.6285 17.8332 77.6597 16.7999 77.6597 15.0346V1.6875H79.9202V14.9054C79.9202 15.5082 80.2217 15.8311 80.7814 15.8311H81.2551V17.8332H80.3293Z" fill="#0B1319"/>
<path d="M88.8588 18.1131C85.4787 18.1131 83.1966 15.6159 83.1966 12.236C83.1966 8.66244 85.6079 6.29441 88.8158 6.29441C92.3251 6.29441 94.3273 8.87772 94.3273 12.0853V12.9249H85.4572C85.5433 14.8839 86.8566 16.2186 88.9234 16.2186C90.3443 16.2186 91.5715 15.5297 92.0236 14.4318H94.2196C93.6383 16.6061 91.6361 18.1131 88.8588 18.1131ZM85.5002 11.1812H92.0882C91.9375 9.28674 90.5596 8.18883 88.8158 8.18883C87.0934 8.18883 85.6725 9.41591 85.5002 11.1812Z" fill="#0B1319"/>
<path d="M97.2859 17.8332V6.57427H99.4604V8.53328H99.6111C99.9555 7.62912 101.032 6.55274 102.625 6.55274H103.616V8.74855H102.561C100.644 8.74855 99.5465 10.1909 99.5465 12.2791V17.8332H97.2859Z" fill="#0B1319"/>
<path d="M117.147 18.1131C113.917 18.1131 111.592 16.111 111.592 13.2048H113.853C113.874 14.7548 115.145 15.9818 117.233 15.9818C119.02 15.9818 120.225 15.1638 120.225 13.8075C120.225 9.73882 112.066 12.7527 112.066 6.6819C112.066 4.39998 113.917 2.48402 117.104 2.48402C119.666 2.48402 122.228 3.86179 122.271 7.00482H119.924C119.924 5.51941 118.912 4.5722 117.082 4.5722C115.231 4.5722 114.369 5.56247 114.369 6.63885C114.369 10.277 122.615 7.54301 122.615 13.6353C122.615 16.154 120.613 18.1131 117.147 18.1131Z" fill="#0B1319"/>
<path d="M130.403 18.1131C127.023 18.1131 124.741 15.6159 124.741 12.236C124.741 8.66244 127.152 6.29441 130.36 6.29441C133.869 6.29441 135.871 8.87772 135.871 12.0853V12.9249H127.001C127.087 14.8839 128.401 16.2186 130.468 16.2186C131.889 16.2186 133.116 15.5297 133.568 14.4318H135.764C135.183 16.6061 133.18 18.1131 130.403 18.1131ZM127.044 11.1812H133.632C133.482 9.28674 132.104 8.18883 130.36 8.18883C128.638 8.18883 127.217 9.41591 127.044 11.1812Z" fill="#0B1319"/>
<path d="M143.89 18.1131C140.402 18.1131 138.034 15.5297 138.034 12.2145C138.034 8.87772 140.445 6.29441 143.868 6.29441C146.538 6.29441 148.798 7.9305 149.315 10.5138H146.99C146.602 9.22216 145.375 8.36105 143.89 8.36105C141.758 8.36105 140.359 10.0402 140.359 12.2145C140.359 14.4318 141.823 16.0679 143.933 16.0679C145.375 16.0679 146.624 15.2068 147.011 13.9367H149.315C148.82 16.52 146.538 18.1131 143.89 18.1131Z" fill="#0B1319"/>
<path d="M156.252 18.1131C153.69 18.1131 152.119 16.2402 152.119 13.8075V6.57427H154.379V13.3985C154.379 14.9916 155.477 16.0249 156.898 16.0249C158.47 16.0249 159.633 14.8193 159.633 13.1832V6.57427H161.893V17.8332H159.697V16.3263H159.546C159.094 17.252 157.932 18.1131 156.252 18.1131Z" fill="#0B1319"/>
<path d="M165.416 17.8332V6.57427H167.59V8.53328H167.741C168.085 7.62912 169.162 6.55274 170.755 6.55274H171.745V8.74855H170.69C168.774 8.74855 167.676 10.1909 167.676 12.2791V17.8332H165.416Z" fill="#0B1319"/>
<path d="M175.707 4.809C174.846 4.809 174.222 4.22776 174.222 3.36665C174.222 2.5486 174.846 1.94583 175.707 1.94583C176.59 1.94583 177.215 2.5486 177.215 3.36665C177.215 4.22776 176.59 4.809 175.707 4.809ZM174.566 17.8332V6.57427H176.827V17.8332H174.566Z" fill="#0B1319"/>
<path d="M184.941 17.8332C182.723 17.8332 181.388 16.6061 181.388 14.2596V8.42564H179.364V6.59579H180.85C181.237 6.59579 181.517 6.31593 181.517 5.86385V3.38818H183.649V6.57427H186.921V8.42564H183.649V14.195C183.649 15.2714 184.101 15.9172 185.285 15.9172H186.814V17.8332H184.941Z" fill="#0B1319"/>
<path d="M189.86 22.7845V20.761H190.85C191.884 20.761 192.487 20.2873 192.831 19.3832L193.24 18.3068L188.697 6.57427H191.152L194.274 15.2714H194.424L197.525 6.57427H200L194.833 20.0721C194.187 21.7943 193.154 22.7845 191.13 22.7845H189.86Z" fill="#0B1319"/>
</svg>
