<svg width="312" height="298" viewBox="0 0 312 298" fill="none" xmlns="http://www.w3.org/2000/svg">
<path d="M18.5498 298C8.30327 298 0.925781 291.653 0.925781 282.441H8.09834C8.16665 287.354 12.1969 291.244 18.823 291.244C24.4927 291.244 28.3181 288.651 28.3181 284.352C28.3181 271.454 2.4286 281.008 2.4286 261.763C2.4286 254.53 8.30326 248.456 18.4132 248.456C26.542 248.456 34.6709 252.824 34.8076 262.787H27.3618C27.3618 258.078 24.1512 255.076 18.3448 255.076C12.4702 255.076 9.73778 258.215 9.73778 261.627C9.73778 273.16 35.9005 264.493 35.9005 283.806C35.9005 291.79 29.5477 298 18.5498 298Z" fill="#0B1319"/>
<path d="M59.2439 297.113C52.2079 297.113 47.9727 293.223 47.9727 285.785V267.291H41.5516V261.49H46.265C47.4945 261.49 48.3826 260.603 48.3826 259.17V251.322H55.1453V261.422H65.5284V267.291H55.1453V285.58C55.1453 288.992 56.5798 291.039 60.3368 291.039H65.1868V297.113H59.2439Z" fill="#0B1319"/>
<path d="M89.4791 298C78.7544 298 71.5135 290.084 71.5135 279.37C71.5135 268.042 79.1643 260.535 89.3425 260.535C100.477 260.535 106.83 268.724 106.83 278.892V281.554H78.6861C78.9593 287.764 83.1262 291.995 89.684 291.995C94.1925 291.995 98.0861 289.811 99.5206 286.331H106.488C104.644 293.223 98.2911 298 89.4791 298ZM78.8227 276.026H99.7256C99.2474 270.021 94.8756 266.54 89.3425 266.54C83.8776 266.54 79.3692 270.43 78.8227 276.026Z" fill="#0B1319"/>
<path d="M122.403 297.113C117.007 297.113 113.933 293.837 113.933 288.241V245.931H121.106V287.832C121.106 289.743 122.062 290.766 123.838 290.766H125.341V297.113H122.403Z" fill="#0B1319"/>
<path d="M141.949 297.113C136.553 297.113 133.479 293.837 133.479 288.241V245.931H140.651V287.832C140.651 289.743 141.608 290.766 143.384 290.766H144.887V297.113H141.949Z" fill="#0B1319"/>
<path d="M168.329 298C157.604 298 150.364 290.084 150.364 279.37C150.364 268.042 158.014 260.535 168.193 260.535C179.327 260.535 185.68 268.724 185.68 278.892V281.554H157.536C157.809 287.764 161.976 291.995 168.534 291.995C173.043 291.995 176.936 289.811 178.371 286.331H185.338C183.494 293.223 177.141 298 168.329 298ZM157.673 276.026H178.576C178.097 270.021 173.726 266.54 168.193 266.54C162.728 266.54 158.219 270.43 157.673 276.026Z" fill="#0B1319"/>
<path d="M194.384 297.113V261.422H201.283V267.632H201.762C202.855 264.766 206.27 261.354 211.325 261.354H214.467V268.315H211.12C205.04 268.315 201.557 272.887 201.557 279.506V297.113H194.384Z" fill="#0B1319"/>
<path d="M245.209 298C230.864 298 220.276 287.422 220.276 273.228C220.276 259.17 230.933 248.456 245.278 248.456C259.691 248.456 270.211 259.307 270.211 273.228C270.211 287.286 259.623 298 245.209 298ZM245.278 291.039C255.319 291.039 262.628 283.464 262.628 273.228C262.628 263.128 255.319 255.417 245.278 255.417C235.236 255.417 227.927 263.128 227.927 273.228C227.927 283.464 235.236 291.039 245.278 291.039Z" fill="#0B1319"/>
<path d="M293.724 298C283.478 298 276.1 291.653 276.1 282.441H283.273C283.341 287.354 287.372 291.244 293.998 291.244C299.667 291.244 303.493 288.651 303.493 284.352C303.493 271.454 277.603 281.008 277.603 261.763C277.603 254.53 283.478 248.456 293.588 248.456C301.717 248.456 309.846 252.824 309.982 262.787H302.536C302.536 258.078 299.326 255.076 293.52 255.076C287.645 255.076 284.912 258.215 284.912 261.627C284.912 273.16 311.075 264.493 311.075 283.806C311.075 291.79 304.722 298 293.724 298Z" fill="#0B1319"/>
<path d="M212.22 82.0274L170.791 128.512H218.634C218.634 128.437 72.6152 230.235 72.6152 230.235L147.172 148.132H99.3288L158.265 81.9519H212.145L212.22 82.0274Z" fill="#4364FA"/>
<path d="M99.4045 148.208L140.833 101.723H92.9902L239.009 0L164.453 82.1028H212.296L153.36 148.283H99.4045V148.208Z" fill="#4364FA"/>
<path opacity="0.2" d="M72.6152 230.235L218.634 128.437L170.791 128.512L212.22 82.0273L99.4043 148.208H147.172L72.6152 230.235Z" fill="url(#paint0_linear_707_1971)"/>
<defs>
<linearGradient id="paint0_linear_707_1971" x1="145.625" y1="0.301793" x2="145.625" y2="230.235" gradientUnits="userSpaceOnUse">
<stop stop-color="white"/>
<stop offset="0.932292" stop-color="white" stop-opacity="0"/>
</linearGradient>
</defs>
</svg>
