<svg width="390" height="711" viewBox="0 0 390 711" fill="none" xmlns="http://www.w3.org/2000/svg">
<g filter="url(#filter0_d_707_1977)">
<rect x="42" y="26" width="305.043" height="626" rx="42.584" fill="black"/>
<g filter="url(#filter1_f_707_1977)">
<path d="M45.2891 67.8156C45.2891 46.0694 62.9178 28.4407 84.664 28.4407H304.085C326.411 28.4407 344.51 46.5395 344.51 68.8656V609.92C344.51 631.956 326.646 649.82 304.61 649.82H83.089C62.2127 649.82 45.2891 632.896 45.2891 612.02V67.8156Z" stroke="white" stroke-opacity="0.5" stroke-width="0.2625"/>
</g>
<g filter="url(#filter2_f_707_1977)">
<path d="M47.5352 67.9507C47.5352 47.5093 64.1062 30.9382 84.5476 30.9382H304.223C324.954 30.9382 341.76 47.7443 341.76 68.4757V610.272C341.76 631.148 324.837 648.072 303.961 648.072H83.7601C63.7536 648.072 47.5352 631.853 47.5352 611.847V67.9507Z" fill="black"/>
<path d="M47.5352 67.9507C47.5352 47.5093 64.1062 30.9382 84.5476 30.9382H304.223C324.954 30.9382 341.76 47.7443 341.76 68.4757V610.272C341.76 631.148 324.837 648.072 303.961 648.072H83.7601C63.7536 648.072 47.5352 631.853 47.5352 611.847V67.9507Z" fill="url(#paint0_angular_707_1977)"/>
</g>
<g filter="url(#filter3_f_707_1977)">
<path d="M47.7832 68.4502C47.7832 48.0088 64.3542 31.4378 84.7957 31.4378H303.972C324.703 31.4378 341.509 48.2439 341.509 68.9753V609.772C341.509 630.649 324.585 647.572 303.709 647.572H84.0082C64.0017 647.572 47.7832 631.354 47.7832 611.347V68.4502Z" fill="url(#paint1_angular_707_1977)"/>
</g>
<path d="M52.2793 67.9835C52.2793 50.0067 66.8524 35.4336 84.8293 35.4336H305.251C322.793 35.4336 337.013 49.6541 337.013 67.1961V611.013C337.013 629.135 322.323 643.826 304.201 643.826H80.1042C64.7369 643.826 52.2793 631.368 52.2793 616.001V67.9835Z" fill="black"/>
<mask id="mask0_707_1977" style="mask-type:alpha" maskUnits="userSpaceOnUse" x="57" y="41" width="275" height="597">
<rect x="57.9863" y="41.9872" width="273.781" height="595.524" rx="23.1" fill="#D9D9D9"/>
</mask>
<g mask="url(#mask0_707_1977)">
<rect x="57.9863" y="41.9872" width="273.781" height="595.524" rx="23.1" fill="#F7F6FC"/>
<path d="M133.635 406.675C129.054 406.675 125.756 403.838 125.756 399.719H128.962C128.993 401.916 130.795 403.655 133.757 403.655C136.292 403.655 138.002 402.495 138.002 400.573C138.002 394.807 126.428 399.078 126.428 390.475C126.428 387.241 129.054 384.525 133.574 384.525C137.208 384.525 140.842 386.478 140.903 390.932H137.575C137.575 388.827 136.139 387.485 133.543 387.485C130.917 387.485 129.695 388.888 129.695 390.414C129.695 395.57 141.392 391.695 141.392 400.329C141.392 403.899 138.552 406.675 133.635 406.675Z" fill="#0B1319"/>
<path d="M151.828 406.278C148.683 406.278 146.789 404.539 146.789 401.214V392.946H143.918V390.353H146.026C146.575 390.353 146.972 389.956 146.972 389.315V385.807H149.996V390.322H154.638V392.946H149.996V401.122C149.996 402.648 150.637 403.563 152.317 403.563H154.485V406.278H151.828Z" fill="#0B1319"/>
<path d="M165.345 406.675C160.551 406.675 157.313 403.136 157.313 398.346C157.313 393.281 160.734 389.925 165.284 389.925C170.262 389.925 173.102 393.587 173.102 398.132V399.322H160.52C160.642 402.099 162.505 403.99 165.437 403.99C167.453 403.99 169.193 403.014 169.835 401.458H172.95C172.125 404.539 169.285 406.675 165.345 406.675ZM160.581 396.851H169.926C169.712 394.166 167.758 392.61 165.284 392.61C162.841 392.61 160.825 394.349 160.581 396.851Z" fill="#0B1319"/>
<path d="M180.065 406.278C177.652 406.278 176.278 404.814 176.278 402.312V383.397H179.485V402.129C179.485 402.983 179.912 403.441 180.706 403.441H181.378V406.278H180.065Z" fill="#0B1319"/>
<path d="M188.803 406.278C186.39 406.278 185.016 404.814 185.016 402.312V383.397H188.223V402.129C188.223 402.983 188.65 403.441 189.444 403.441H190.116V406.278H188.803Z" fill="#0B1319"/>
<path d="M200.597 406.675C195.802 406.675 192.565 403.136 192.565 398.346C192.565 393.281 195.985 389.925 200.536 389.925C205.514 389.925 208.354 393.587 208.354 398.132V399.322H195.772C195.894 402.099 197.757 403.99 200.688 403.99C202.704 403.99 204.445 403.014 205.086 401.458H208.201C207.376 404.539 204.536 406.675 200.597 406.675ZM195.833 396.851H205.178C204.964 394.166 203.009 392.61 200.536 392.61C198.093 392.61 196.077 394.349 195.833 396.851Z" fill="#0B1319"/>
<path d="M212.245 406.278V390.322H215.33V393.098H215.543C216.032 391.817 217.559 390.292 219.819 390.292H221.224V393.404H219.727C217.009 393.404 215.452 395.448 215.452 398.407V406.278H212.245Z" fill="#0B1319"/>
<path d="M234.968 406.675C228.554 406.675 223.821 401.946 223.821 395.6C223.821 389.315 228.585 384.525 234.998 384.525C241.442 384.525 246.145 389.376 246.145 395.6C246.145 401.885 241.411 406.675 234.968 406.675ZM234.998 403.563C239.487 403.563 242.755 400.177 242.755 395.6C242.755 391.085 239.487 387.637 234.998 387.637C230.509 387.637 227.241 391.085 227.241 395.6C227.241 400.177 230.509 403.563 234.998 403.563Z" fill="#0B1319"/>
<path d="M256.657 406.675C252.076 406.675 248.778 403.838 248.778 399.719H251.985C252.015 401.916 253.817 403.655 256.779 403.655C259.314 403.655 261.024 402.495 261.024 400.573C261.024 394.807 249.45 399.078 249.45 390.475C249.45 387.241 252.076 384.525 256.596 384.525C260.23 384.525 263.864 386.478 263.926 390.932H260.597C260.597 388.827 259.161 387.485 256.566 387.485C253.939 387.485 252.718 388.888 252.718 390.414C252.718 395.57 264.414 391.695 264.414 400.329C264.414 403.899 261.574 406.675 256.657 406.675Z" fill="#0B1319"/>
<path d="M220.218 310.12L201.696 330.902H223.085C223.085 330.868 157.805 376.379 157.805 376.379L191.137 339.674H169.748L196.096 310.086H220.184L220.218 310.12Z" fill="#4364FA"/>
<path d="M169.782 339.707L188.303 318.925H166.914L232.195 273.448L198.863 310.154H220.252L193.904 339.741H169.782V339.707Z" fill="#4364FA"/>
<path opacity="0.2" d="M157.805 376.379L223.085 330.868L201.696 330.902L220.218 310.12L169.781 339.707H191.137L157.805 376.379Z" fill="url(#paint2_linear_707_1977)"/>
<path d="M290.984 426.774L594.242 426.296L-331.155 1071.03L140.43 552.524L141.952 550.851H139.69H-164.048L99.8349 254.472L101.32 252.804L99.0865 252.807L-204.172 253.285L721.241 -391.462L249.64 127.541L248.12 129.213H250.38H554.117L290.236 425.109L288.748 426.778L290.984 426.774Z" stroke="#4364FA" stroke-width="2"/>
<path d="M117.213 607V597.2H120.377C122.239 597.2 123.345 598.278 123.345 599.706C123.345 600.672 122.882 601.4 122.099 601.82V601.904C122.757 602.128 123.681 602.828 123.681 604.214C123.681 605.978 122.309 607 120.657 607H117.213ZM118.333 601.442H120.335C121.441 601.442 122.183 600.784 122.183 599.79C122.183 598.824 121.427 598.208 120.377 598.208H118.333V601.442ZM118.333 606.006H120.461C121.623 606.006 122.505 605.446 122.505 604.186C122.505 602.898 121.469 602.394 120.335 602.394H118.333V606.006ZM128.711 607.182C126.569 607.182 125.085 605.6 125.085 603.374C125.085 601.134 126.569 599.538 128.627 599.538C130.153 599.538 130.965 600.518 131.189 600.896H131.273V599.72H132.379V607H131.315V605.852H131.231C131.049 606.118 130.293 607.182 128.711 607.182ZM128.781 606.188C130.363 606.188 131.315 604.9 131.315 603.374C131.315 601.582 130.195 600.546 128.753 600.546C127.255 600.546 126.219 601.722 126.219 603.374C126.219 605.082 127.255 606.188 128.781 606.188ZM137.172 607.182C135.45 607.182 134.47 606.244 134.344 604.886H135.422C135.548 605.754 136.164 606.216 137.228 606.216C138.32 606.216 138.922 605.684 138.922 604.942C138.922 602.898 134.568 604.452 134.568 601.568C134.568 600.336 135.674 599.538 137.2 599.538C138.544 599.538 139.664 600.322 139.776 601.638H138.712C138.614 600.952 138.096 600.49 137.13 600.49C136.22 600.49 135.632 600.938 135.632 601.568C135.632 603.416 140 601.876 140 604.886C140 606.258 138.866 607.182 137.172 607.182ZM145.254 607.182C143.028 607.182 141.614 605.544 141.614 603.36C141.614 601.036 143.196 599.538 145.184 599.538C147.396 599.538 148.712 601.162 148.712 603.262V603.752H142.776C142.832 605.208 143.77 606.174 145.268 606.174C146.234 606.174 147.158 605.712 147.494 604.858H148.642C148.236 606.216 146.962 607.182 145.254 607.182ZM142.804 602.772H147.536C147.438 601.316 146.416 600.546 145.184 600.546C143.966 600.546 142.916 601.428 142.804 602.772ZM153.744 607.182C151.602 607.182 150.118 605.6 150.118 603.374C150.118 601.134 151.602 599.538 153.66 599.538C155.186 599.538 155.998 600.518 156.222 600.896H156.306V596.5H157.412V607H156.348V605.852H156.264C156.082 606.118 155.326 607.182 153.744 607.182ZM153.814 606.188C155.396 606.188 156.348 604.9 156.348 603.374C156.348 601.582 155.228 600.546 153.786 600.546C152.288 600.546 151.252 601.722 151.252 603.374C151.252 605.082 152.288 606.188 153.814 606.188ZM166.955 607.182C164.771 607.182 163.161 605.572 163.161 603.36C163.161 601.162 164.799 599.538 166.969 599.538C169.167 599.538 170.763 601.176 170.763 603.36C170.763 605.544 169.139 607.182 166.955 607.182ZM166.955 606.174C168.523 606.174 169.629 604.984 169.629 603.36C169.629 601.75 168.523 600.546 166.955 600.546C165.387 600.546 164.295 601.764 164.295 603.36C164.295 604.998 165.401 606.174 166.955 606.174ZM172.717 607V599.72H173.823V600.784H173.907C174.215 600.126 174.999 599.538 176.133 599.538C177.827 599.538 178.849 600.812 178.849 602.422V607H177.743V602.492C177.743 601.33 176.889 600.574 175.867 600.574C174.719 600.574 173.823 601.456 173.823 602.66V607H172.717ZM189.666 607.182C186.656 607.182 184.458 604.998 184.458 602.1C184.458 599.216 186.67 597.018 189.666 597.018C192.662 597.018 194.874 599.244 194.874 602.1C194.874 604.97 192.648 607.182 189.666 607.182ZM189.666 605.054C191.36 605.054 192.564 603.794 192.564 602.1C192.564 600.434 191.36 599.146 189.666 599.146C187.958 599.146 186.754 600.434 186.754 602.1C186.754 603.794 187.958 605.054 189.666 605.054ZM196.348 610.22V599.608H198.49V600.434H198.602C198.812 600.098 199.428 599.426 200.66 599.426C202.676 599.426 204.062 600.938 204.062 603.262C204.062 605.586 202.704 607.182 200.716 607.182C199.512 607.182 198.868 606.566 198.63 606.16H198.518V610.22H196.348ZM200.17 605.222C201.178 605.222 201.864 604.438 201.864 603.304C201.864 602.142 201.178 601.386 200.17 601.386C199.134 601.386 198.476 602.198 198.476 603.304C198.476 604.48 199.176 605.222 200.17 605.222ZM208.826 607.182C206.684 607.182 205.074 605.572 205.074 603.346C205.074 601.036 206.614 599.426 208.868 599.426C211.304 599.426 212.578 601.218 212.578 603.276V603.906H207.132C207.202 604.844 207.888 605.516 208.91 605.516C209.764 605.516 210.338 605.096 210.548 604.634H212.508C212.172 606.188 210.828 607.182 208.826 607.182ZM207.174 602.464H210.562C210.478 601.68 209.834 601.078 208.868 601.078C207.944 601.078 207.272 601.736 207.174 602.464ZM214.012 607V599.608H216.056V600.42H216.168C216.462 599.916 217.162 599.426 218.156 599.426C219.794 599.426 220.802 600.532 220.802 602.072V607H218.632V602.744C218.632 601.988 218.184 601.442 217.442 601.442C216.686 601.442 216.182 602.072 216.182 602.856V607H214.012ZM229.306 607.182C226.926 607.182 225.47 605.824 225.484 603.808H227.598C227.64 604.578 228.256 605.152 229.376 605.152C230.3 605.152 230.846 604.802 230.846 604.186C230.846 602.366 225.736 603.99 225.736 599.958C225.736 598.32 227.01 597.018 229.264 597.018C231.308 597.018 232.82 598.068 232.904 600.14H230.692C230.678 599.468 230.174 598.992 229.264 598.992C228.396 598.992 227.948 599.384 227.948 599.902C227.948 601.638 233.156 600.056 233.156 604.018C233.156 605.838 231.77 607.182 229.306 607.182ZM238.089 607.182C235.723 607.182 234.113 605.488 234.113 603.304C234.113 601.12 235.709 599.426 238.103 599.426C240.469 599.426 242.079 601.12 242.079 603.304C242.079 605.488 240.469 607.182 238.089 607.182ZM238.089 605.222C239.125 605.222 239.881 604.424 239.881 603.304C239.881 602.184 239.125 601.386 238.089 601.386C237.067 601.386 236.311 602.184 236.311 603.304C236.311 604.438 237.067 605.222 238.089 605.222ZM246.106 607.182C244.468 607.182 243.46 606.076 243.46 604.536V599.608H245.63V603.864C245.63 604.634 246.078 605.166 246.82 605.166C247.576 605.166 248.08 604.536 248.08 603.752V599.608H250.25V607H248.192V606.188H248.08C247.8 606.678 247.1 607.182 246.106 607.182ZM251.951 607V599.608H253.995V600.728H254.107C254.359 600.182 255.017 599.552 256.011 599.552H256.725V601.596H255.871C254.807 601.596 254.121 602.366 254.121 603.64V607H251.951ZM261.426 607.182C259.046 607.182 257.506 605.474 257.506 603.304C257.506 601.12 259.032 599.426 261.412 599.426C263.47 599.426 264.94 600.672 265.15 602.478H262.952C262.756 601.848 262.196 601.386 261.426 601.386C260.362 601.386 259.704 602.24 259.704 603.304C259.704 604.382 260.39 605.222 261.44 605.222C262.168 605.222 262.742 604.802 262.924 604.214H265.136C264.898 605.964 263.456 607.182 261.426 607.182ZM269.926 607.182C267.784 607.182 266.174 605.572 266.174 603.346C266.174 601.036 267.714 599.426 269.968 599.426C272.404 599.426 273.678 601.218 273.678 603.276V603.906H268.232C268.302 604.844 268.988 605.516 270.01 605.516C270.864 605.516 271.438 605.096 271.648 604.634H273.608C273.272 606.188 271.928 607.182 269.926 607.182ZM268.274 602.464H271.662C271.578 601.68 270.934 601.078 269.968 601.078C269.044 601.078 268.372 601.736 268.274 602.464Z" fill="#0B1319"/>
</g>
<ellipse cx="75.9668" cy="60.1151" rx="9.4473" ry="9.44668" fill="black"/>
<ellipse cx="75.8859" cy="60.0341" rx="7.11836" ry="7.11789" fill="#0A0A0A"/>
<ellipse cx="75.8859" cy="60.0341" rx="7.11836" ry="7.11789" fill="url(#paint3_radial_707_1977)"/>
<g filter="url(#filter4_i_707_1977)">
<ellipse cx="2.94343" cy="2.94359" rx="2.94343" ry="2.94359" transform="matrix(-0.323348 -0.94628 0.946293 -0.32331 74.2617 63.9052)" fill="black"/>
<ellipse cx="2.94343" cy="2.94359" rx="2.94343" ry="2.94359" transform="matrix(-0.323348 -0.94628 0.946293 -0.32331 74.2617 63.9052)" fill="url(#paint4_angular_707_1977)"/>
<ellipse cx="2.94343" cy="2.94359" rx="2.94343" ry="2.94359" transform="matrix(-0.323348 -0.94628 0.946293 -0.32331 74.2617 63.9052)" fill="url(#paint5_radial_707_1977)"/>
</g>
<g filter="url(#filter5_f_707_1977)">
<ellipse cx="77.0111" cy="59.6594" rx="0.749399" ry="0.749253" fill="#BA7FD6"/>
</g>
<path d="M57.4849 608.918C57.2352 618.533 57.4849 643.383 101.194 637.389C77.0916 644.008 44.597 642.784 57.4849 608.918Z" fill="black"/>
<path d="M331.665 606.42C331.665 638.888 307.001 636.882 304.004 637.307C301.381 639.804 343.904 641.135 331.665 606.42Z" fill="black"/>
<path d="M57.4837 65.9604C57.7335 58.343 62.9286 42.8435 81.7111 41.7446C72.9692 40.8705 55.8852 44.4819 57.4837 65.9604Z" fill="black"/>
<path d="M303.256 41.7344C314.246 41.7344 331.729 45.8553 331.729 68.4577C333.603 56.8443 330.53 35.2409 303.256 41.7344Z" fill="#020203"/>
</g>
<defs>
<filter id="filter0_d_707_1977" x="4.19617e-05" y="0.800024" width="389.043" height="710" filterUnits="userSpaceOnUse" color-interpolation-filters="sRGB">
<feFlood flood-opacity="0" result="BackgroundImageFix"/>
<feColorMatrix in="SourceAlpha" type="matrix" values="0 0 0 0 0 0 0 0 0 0 0 0 0 0 0 0 0 0 127 0" result="hardAlpha"/>
<feOffset dy="16.8"/>
<feGaussianBlur stdDeviation="21"/>
<feComposite in2="hardAlpha" operator="out"/>
<feColorMatrix type="matrix" values="0 0 0 0 0.0431373 0 0 0 0 0.0745098 0 0 0 0 0.0980392 0 0 0 0.1 0"/>
<feBlend mode="normal" in2="BackgroundImageFix" result="effect1_dropShadow_707_1977"/>
<feBlend mode="normal" in="SourceGraphic" in2="effect1_dropShadow_707_1977" result="shape"/>
</filter>
<filter id="filter1_f_707_1977" x="44.1082" y="27.2594" width="301.582" height="623.742" filterUnits="userSpaceOnUse" color-interpolation-filters="sRGB">
<feFlood flood-opacity="0" result="BackgroundImageFix"/>
<feBlend mode="normal" in="SourceGraphic" in2="BackgroundImageFix" result="shape"/>
<feGaussianBlur stdDeviation="0.524999" result="effect1_foregroundBlur_707_1977"/>
</filter>
<filter id="filter2_f_707_1977" x="47.0102" y="30.4132" width="295.275" height="618.183" filterUnits="userSpaceOnUse" color-interpolation-filters="sRGB">
<feFlood flood-opacity="0" result="BackgroundImageFix"/>
<feBlend mode="normal" in="SourceGraphic" in2="BackgroundImageFix" result="shape"/>
<feGaussianBlur stdDeviation="0.2625" result="effect1_foregroundBlur_707_1977"/>
</filter>
<filter id="filter3_f_707_1977" x="47.2582" y="30.9128" width="294.777" height="617.184" filterUnits="userSpaceOnUse" color-interpolation-filters="sRGB">
<feFlood flood-opacity="0" result="BackgroundImageFix"/>
<feBlend mode="normal" in="SourceGraphic" in2="BackgroundImageFix" result="shape"/>
<feGaussianBlur stdDeviation="0.2625" result="effect1_foregroundBlur_707_1977"/>
</filter>
<filter id="filter4_i_707_1977" x="73.1504" y="57.224" width="5.88867" height="5.88843" filterUnits="userSpaceOnUse" color-interpolation-filters="sRGB">
<feFlood flood-opacity="0" result="BackgroundImageFix"/>
<feBlend mode="normal" in="SourceGraphic" in2="BackgroundImageFix" result="shape"/>
<feColorMatrix in="SourceAlpha" type="matrix" values="0 0 0 0 0 0 0 0 0 0 0 0 0 0 0 0 0 0 127 0" result="hardAlpha"/>
<feMorphology radius="0.2625" operator="erode" in="SourceAlpha" result="effect1_innerShadow_707_1977"/>
<feOffset/>
<feGaussianBlur stdDeviation="0.393749"/>
<feComposite in2="hardAlpha" operator="arithmetic" k2="-1" k3="1"/>
<feColorMatrix type="matrix" values="0 0 0 0 0 0 0 0 0 0 0 0 0 0 0 0 0 0 1 0"/>
<feBlend mode="normal" in2="shape" result="effect1_innerShadow_707_1977"/>
</filter>
<filter id="filter5_f_707_1977" x="75.2117" y="57.8602" width="3.59804" height="3.59853" filterUnits="userSpaceOnUse" color-interpolation-filters="sRGB">
<feFlood flood-opacity="0" result="BackgroundImageFix"/>
<feBlend mode="normal" in="SourceGraphic" in2="BackgroundImageFix" result="shape"/>
<feGaussianBlur stdDeviation="0.524999" result="effect1_foregroundBlur_707_1977"/>
</filter>
<radialGradient id="paint0_angular_707_1977" cx="0" cy="0" r="1" gradientUnits="userSpaceOnUse" gradientTransform="translate(194.648 339.505) rotate(90) scale(308.567 147.113)">
<stop offset="0.00370279"/>
<stop offset="0.0860873"/>
<stop offset="0.142579"/>
<stop offset="0.551797" stop-color="#898686"/>
<stop offset="0.597149"/>
<stop offset="0.62222"/>
<stop offset="0.635363"/>
<stop offset="0.644459" stop-color="#898686"/>
<stop offset="0.86974" stop-color="#1C1C1C"/>
<stop offset="0.875025"/>
</radialGradient>
<radialGradient id="paint1_angular_707_1977" cx="0" cy="0" r="1" gradientUnits="userSpaceOnUse" gradientTransform="translate(194.646 339.505) rotate(90) scale(308.067 165.742)">
<stop offset="0.000303672" stop-color="#4A4A4A"/>
<stop offset="0.0904875" stop-color="#404040"/>
<stop offset="0.111563"/>
<stop offset="0.136566" stop-color="#404040"/>
<stop offset="0.404505" stop-color="#848484"/>
<stop offset="0.596482" stop-color="#5E5E5E"/>
<stop offset="0.607769"/>
<stop offset="0.614698"/>
<stop offset="0.626401" stop-color="#535353"/>
<stop offset="0.872212" stop-color="#585858"/>
<stop offset="0.886458"/>
<stop offset="0.902914" stop-color="#575757"/>
</radialGradient>
<linearGradient id="paint2_linear_707_1977" x1="190.445" y1="273.583" x2="190.445" y2="376.379" gradientUnits="userSpaceOnUse">
<stop stop-color="white"/>
<stop offset="0.932292" stop-color="white" stop-opacity="0"/>
</linearGradient>
<radialGradient id="paint3_radial_707_1977" cx="0" cy="0" r="1" gradientUnits="userSpaceOnUse" gradientTransform="translate(75.8859 60.0341) rotate(90) scale(7.11789 7.11836)">
<stop offset="0.552083" stop-opacity="0"/>
<stop offset="0.666667" stop-color="#5B5B5B" stop-opacity="0.21"/>
<stop offset="0.708333" stop-opacity="0"/>
</radialGradient>
<radialGradient id="paint4_angular_707_1977" cx="0" cy="0" r="1" gradientUnits="userSpaceOnUse" gradientTransform="translate(2.94343 2.9436) rotate(89.9999) scale(2.94357 2.78295)">
<stop offset="0.109898" stop-opacity="0.718268"/>
<stop offset="0.266542" stop-color="#6777CA"/>
<stop offset="0.473888" stop-color="#6C86CA"/>
<stop offset="0.665391" stop-color="#5583C7"/>
<stop offset="0.865938" stop-opacity="0.718268"/>
<stop offset="1" stop-color="#5351BA" stop-opacity="0"/>
</radialGradient>
<radialGradient id="paint5_radial_707_1977" cx="0" cy="0" r="1" gradientUnits="userSpaceOnUse" gradientTransform="translate(2.94343 2.94359) rotate(90) scale(2.94359 2.94343)">
<stop offset="0.0520833"/>
<stop offset="0.671875" stop-color="#767676" stop-opacity="0"/>
</radialGradient>
</defs>
</svg>
