<svg width="1168" height="657" viewBox="0 0 1168 657" fill="none" xmlns="http://www.w3.org/2000/svg">
<mask id="mask0_408_1398" style="mask-type:alpha" maskUnits="userSpaceOnUse" x="0" y="0" width="1168" height="657">
<rect width="1168" height="657" rx="10" fill="#F7F6FC"/>
</mask>
<g mask="url(#mask0_408_1398)">
<rect width="1168" height="657" rx="10" fill="#F7F6FC"/>
<g filter="url(#filter0_d_408_1398)">
<mask id="mask1_408_1398" style="mask-type:alpha" maskUnits="userSpaceOnUse" x="600" y="132" width="467" height="413">
<rect x="595" y="329" width="404" height="255.2" rx="16" transform="rotate(-30 595 329)" fill="#4364FA"/>
</mask>
<g mask="url(#mask1_408_1398)">
<rect x="595" y="329" width="404" height="255.2" transform="rotate(-30 595 329)" fill="white"/>
<mask id="path-5-inside-1_408_1398" fill="white">
<path fill-rule="evenodd" clip-rule="evenodd" d="M789.593 245.62L824.004 79.8547L885.335 44.4453L975.209 200.111L1009.75 385.919L906.318 549.524L713.088 557.195L901.209 179.146L789.593 245.62ZM697.107 153.119L648.224 388.896L760.72 323.947L713.088 557.195L569.273 434.479L479.399 278.813L682.367 161.629L697.107 153.119Z"/>
</mask>
<path d="M824.004 79.8547L823.004 78.1226L822.228 78.5707L822.046 79.4482L824.004 79.8547ZM789.593 245.62L787.635 245.214L786.711 249.665L790.616 247.339L789.593 245.62ZM885.335 44.4453L887.067 43.4453L886.067 41.7132L884.335 42.7132L885.335 44.4453ZM975.209 200.111L977.175 199.746L977.113 199.408L976.941 199.111L975.209 200.111ZM1009.75 385.919L1011.44 386.988L1011.86 386.325L1011.71 385.553L1009.75 385.919ZM906.318 549.524L906.398 551.522L907.447 551.48L908.009 550.592L906.318 549.524ZM713.088 557.195L711.79 558.716L712.385 559.224L713.167 559.193L713.088 557.195ZM901.209 179.146L903 180.037L906.03 173.947L900.186 177.428L901.209 179.146ZM648.224 388.896L646.266 388.49L645.36 392.859L649.224 390.628L648.224 388.896ZM697.107 153.119L699.065 153.525L699.971 149.156L696.107 151.387L697.107 153.119ZM760.72 323.947L762.68 324.347L763.569 319.992L759.72 322.215L760.72 323.947ZM569.273 434.479L567.541 435.479L567.713 435.777L567.975 436L569.273 434.479ZM479.399 278.813L478.399 277.081L476.667 278.081L477.667 279.813L479.399 278.813ZM822.046 79.4482L787.635 245.214L791.551 246.027L825.963 80.2612L822.046 79.4482ZM884.335 42.7132L823.004 78.1226L825.004 81.5867L886.335 46.1773L884.335 42.7132ZM976.941 199.111L887.067 43.4453L883.603 45.4453L973.477 201.111L976.941 199.111ZM1011.71 385.553L977.175 199.746L973.243 200.477L1007.78 386.284L1011.71 385.553ZM908.009 550.592L1011.44 386.988L1008.06 384.85L904.628 548.455L908.009 550.592ZM713.167 559.193L906.398 551.522L906.239 547.525L713.009 555.197L713.167 559.193ZM899.419 178.255L711.297 556.304L714.878 558.086L903 180.037L899.419 178.255ZM790.616 247.339L902.232 180.864L900.186 177.428L788.569 243.902L790.616 247.339ZM650.182 389.302L699.065 153.525L695.149 152.713L646.266 388.49L650.182 389.302ZM759.72 322.215L647.224 387.164L649.224 390.628L761.72 325.679L759.72 322.215ZM715.047 557.595L762.68 324.347L758.761 323.546L711.128 556.795L715.047 557.595ZM567.975 436L711.79 558.716L714.386 555.674L570.571 432.957L567.975 436ZM477.667 279.813L567.541 435.479L571.005 433.479L481.131 277.813L477.667 279.813ZM681.367 159.897L478.399 277.081L480.399 280.545L683.367 163.361L681.367 159.897ZM696.107 151.387L681.367 159.897L683.367 163.361L698.107 154.851L696.107 151.387Z" fill="#F7F6FC" mask="url(#path-5-inside-1_408_1398)"/>
<path d="M797.633 481.6L794.273 475.78L796.152 474.695C797.257 474.057 798.284 474.318 798.773 475.166C799.105 475.74 799.08 476.33 798.758 476.849L798.787 476.898C799.255 476.806 800.043 476.905 800.518 477.728C801.123 478.775 800.659 479.853 799.678 480.419L797.633 481.6ZM796.392 477.915L797.581 477.229C798.238 476.85 798.453 476.204 798.112 475.614C797.781 475.041 797.121 474.934 796.497 475.294L795.283 475.995L796.392 477.915ZM797.957 480.626L799.221 479.896C799.911 479.498 800.243 478.863 799.811 478.114C799.369 477.349 798.581 477.405 797.907 477.794L796.719 478.481L797.957 480.626ZM804.532 477.761C803.21 478.524 801.808 478.036 801.06 476.739C800.263 475.359 800.689 473.927 801.869 473.245C803.183 472.487 804.521 473 805.241 474.247L805.409 474.538L801.884 476.574C802.417 477.419 803.305 477.671 804.194 477.157C804.768 476.826 805.158 476.235 805.065 475.613L805.747 475.219C805.971 476.165 805.546 477.175 804.532 477.761ZM801.565 475.982L804.375 474.36C803.817 473.529 802.946 473.422 802.215 473.844C801.492 474.262 801.17 475.145 801.565 475.982ZM809.64 474.812C808.335 475.565 806.849 475.104 806.11 473.824C805.37 472.543 805.739 471.011 807.011 470.277C807.95 469.735 809.15 469.796 809.939 470.626L809.257 471.02C808.756 470.555 807.996 470.506 807.373 470.866C806.45 471.399 806.249 472.49 806.791 473.43C807.353 474.403 808.413 474.722 809.319 474.199C809.943 473.839 810.289 473.151 810.128 472.49L810.802 472.101C811.134 473.195 810.579 474.269 809.64 474.812ZM814.672 471.906C813.4 472.641 811.976 472.21 811.213 470.888C810.445 469.558 810.779 468.101 812.001 467.396C812.908 466.873 813.726 467.176 813.988 467.324L814.038 467.295L813.635 466.597L814.292 466.217L816.788 470.541L816.156 470.905L815.762 470.224L815.713 470.252C815.696 470.473 815.611 471.364 814.672 471.906ZM814.373 471.292C815.312 470.75 815.436 469.658 814.913 468.752C814.298 467.688 813.278 467.457 812.422 467.951C811.532 468.465 811.32 469.518 811.887 470.499C812.472 471.514 813.467 471.815 814.373 471.292ZM819.796 468.948C818.79 469.529 817.747 469.122 817.195 468.166L815.625 465.448L816.282 465.068L817.837 467.762C818.236 468.452 819.002 468.608 819.609 468.258C820.291 467.864 820.52 467.033 820.107 466.318L818.61 463.724L819.267 463.345L821.763 467.668L821.106 468.048L820.741 467.416L820.691 467.445C820.734 467.941 820.47 468.559 819.796 468.948ZM824.665 466.137C823.643 466.727 822.739 466.506 822.199 465.743L822.839 465.373C823.211 465.845 823.736 465.909 824.368 465.544C825.016 465.169 825.191 464.647 824.937 464.206C824.236 462.993 822.183 465.408 821.194 463.696C820.772 462.964 821.155 462.111 822.061 461.588C822.859 461.127 823.793 461.208 824.311 461.951L823.679 462.316C823.386 461.942 822.92 461.846 822.346 462.177C821.806 462.489 821.61 462.957 821.826 463.331C822.46 464.428 824.526 462.016 825.558 463.803C826.028 464.618 825.671 465.556 824.665 466.137ZM829.465 463.366C828.143 464.129 826.742 463.641 825.993 462.344C825.196 460.964 825.622 459.532 826.803 458.85C828.116 458.092 829.455 458.605 830.175 459.852L830.343 460.143L826.817 462.178C827.35 463.024 828.238 463.276 829.128 462.762C829.701 462.431 830.092 461.84 829.998 461.217L830.68 460.824C830.905 461.769 830.479 462.78 829.465 463.366ZM826.498 461.587L829.308 459.964C828.751 459.133 827.88 459.026 827.148 459.449C826.425 459.866 826.104 460.75 826.498 461.587ZM835.983 462.008L835.637 461.409L835.962 461.222C836.386 460.977 836.521 460.655 836.446 460.199L836.344 459.561L831.959 456.017L832.691 455.595L836.141 458.48L836.191 458.451L835.426 454.016L836.166 453.589L837.171 460.091C837.287 460.811 837.139 461.341 836.432 461.749L835.983 462.008ZM841.483 456.427C840.186 457.176 838.678 456.772 837.92 455.458C837.166 454.153 837.582 452.627 838.871 451.883C840.176 451.129 841.685 451.555 842.434 452.852C843.183 454.148 842.78 455.678 841.483 456.427ZM841.138 455.828C842.069 455.291 842.318 454.205 841.761 453.24C841.209 452.284 840.139 451.948 839.208 452.486C838.277 453.024 838.046 454.121 838.593 455.069C839.155 456.042 840.215 456.361 841.138 455.828ZM846.435 453.568C845.429 454.149 844.385 453.743 843.833 452.787L842.264 450.068L842.92 449.689L844.476 452.382C844.874 453.072 845.64 453.229 846.247 452.878C846.929 452.485 847.159 451.654 846.746 450.939L845.248 448.345L845.905 447.966L848.401 452.289L847.744 452.668L847.379 452.036L847.33 452.065C847.372 452.561 847.108 453.179 846.435 453.568ZM849.811 451.474L847.315 447.151L847.964 446.777L848.43 447.583L848.479 447.554C848.393 447.117 848.563 446.431 849.194 446.066L849.56 445.855L849.939 446.512L849.582 446.718C848.792 447.174 848.707 448.044 849.182 448.867L850.468 451.095L849.811 451.474ZM856.375 450.235L852.736 443.933L854.009 443.198L854.292 443.689L854.358 443.65C854.368 443.379 854.503 442.769 855.235 442.346C856.432 441.655 857.773 442.078 858.57 443.458C859.367 444.838 859.108 446.251 857.927 446.933C857.212 447.346 856.619 447.201 856.338 447.041L856.272 447.08L857.664 449.491L856.375 450.235ZM856.931 445.956C857.53 445.611 857.668 444.91 857.279 444.236C856.881 443.546 856.214 443.333 855.616 443.678C855.001 444.033 854.888 444.741 855.267 445.398C855.671 446.096 856.341 446.297 856.931 445.956ZM860.702 445.186L858.168 440.797L859.382 440.096L859.766 440.761L859.832 440.723C859.795 440.312 859.97 439.712 860.56 439.371L860.984 439.127L861.685 440.341L861.178 440.633C860.546 440.998 860.402 441.691 860.839 442.447L861.991 444.442L860.702 445.186ZM862.211 437.809C861.77 438.063 861.301 437.979 861.051 437.547C860.802 437.115 860.964 436.666 861.405 436.412C861.845 436.157 862.315 436.241 862.564 436.673C862.814 437.106 862.652 437.554 862.211 437.809ZM864.389 443.058L861.854 438.669L863.143 437.925L865.677 442.314L864.389 443.058ZM867.76 441.112L863.671 437.62L865.01 436.847L867.575 439.179L867.642 439.14L866.905 435.752L868.26 434.97L869.248 440.252L867.76 441.112ZM873.091 438.178C871.885 438.874 870.544 438.452 869.747 437.071C868.95 435.691 869.218 434.273 870.398 433.592C871.088 433.193 871.703 433.337 871.987 433.483L872.054 433.445L871.766 432.946L873.054 432.202L875.589 436.592L874.309 437.331L874.021 436.832L873.954 436.871C873.945 437.142 873.814 437.761 873.091 438.178ZM872.71 436.846C873.325 436.491 873.432 435.775 873.058 435.127C872.655 434.428 871.976 434.232 871.386 434.573C870.787 434.919 870.649 435.62 871.038 436.293C871.431 436.975 872.103 437.197 872.71 436.846ZM878.675 434.954C877.262 435.77 875.762 435.284 875.018 433.995C874.269 432.698 874.595 431.169 876.008 430.353C877.23 429.647 878.53 429.883 879.274 430.884L877.969 431.637C877.636 431.33 877.145 431.248 876.688 431.512C876.056 431.877 875.958 432.61 876.323 433.241C876.693 433.882 877.388 434.145 878.012 433.785C878.444 433.536 878.641 433.089 878.547 432.678L879.861 431.919C880.32 433.04 879.881 434.258 878.675 434.954ZM882.65 435.065L881.992 433.926L882.499 433.633C882.848 433.431 882.938 433.125 882.886 432.767L882.841 432.516L878.521 429.046L879.868 428.269L882.44 430.497L882.507 430.458L881.813 427.145L883.177 426.358L884.213 432.455C884.38 433.434 884.154 434.196 883.232 434.729L882.65 435.065ZM888.734 429.003L886.238 424.679L886.895 424.3L887.255 424.924L887.305 424.895C887.282 424.376 887.506 423.803 888.146 423.434C888.794 423.059 889.451 423.102 889.965 423.436L890.024 423.403C889.993 422.678 890.332 422.171 890.939 421.821C891.904 421.264 892.921 421.586 893.468 422.534L895.086 425.335L894.429 425.715L892.936 423.129C892.466 422.314 891.818 422.134 891.178 422.503C890.571 422.854 890.289 423.593 890.754 424.4L892.242 426.977L891.586 427.356L890.021 424.646C889.622 423.956 888.917 423.809 888.31 424.159C887.703 424.51 887.466 425.289 887.888 426.021L889.391 428.623L888.734 429.003ZM898.379 423.578C897.107 424.313 895.683 423.882 894.92 422.56C894.152 421.23 894.486 419.773 895.708 419.068C896.614 418.544 897.433 418.848 897.695 418.996L897.745 418.967L897.342 418.268L897.999 417.889L900.495 422.212L899.863 422.577L899.469 421.896L899.419 421.924C899.402 422.145 899.318 423.036 898.379 423.578ZM898.08 422.964C899.019 422.421 899.143 421.33 898.62 420.424C898.005 419.36 896.985 419.129 896.129 419.623C895.239 420.137 895.027 421.19 895.593 422.171C896.179 423.185 897.173 423.487 898.08 422.964ZM903.599 420.42C902.801 420.881 902.061 420.732 901.557 419.859L900.136 417.398L899.321 417.869L898.999 417.311L899.648 416.937C899.764 416.87 899.812 416.742 899.731 416.601L899.131 415.562L899.746 415.206L900.471 416.462L901.801 415.694L902.123 416.251L900.793 417.019L902.209 419.472C902.477 419.937 902.81 420.111 903.309 419.823L903.908 419.477L904.239 420.051L903.599 420.42ZM907.147 418.372C906.349 418.833 905.608 418.684 905.104 417.811L903.684 415.35L902.869 415.82L902.547 415.263L903.196 414.889C903.312 414.821 903.36 414.694 903.279 414.552L902.679 413.513L903.294 413.158L904.019 414.413L905.349 413.645L905.671 414.202L904.34 414.97L905.756 417.423C906.025 417.889 906.358 418.062 906.857 417.774L907.456 417.429L907.787 418.002L907.147 418.372ZM910.898 416.35C909.577 417.113 908.175 416.625 907.426 415.328C906.63 413.948 907.056 412.516 908.236 411.835C909.55 411.076 910.888 411.589 911.608 412.836L911.776 413.127L908.251 415.163C908.783 416.008 909.672 416.26 910.561 415.747C911.135 415.415 911.525 414.824 911.432 414.202L912.114 413.808C912.338 414.754 911.913 415.764 910.898 416.35ZM907.932 414.571L910.742 412.949C910.184 412.118 909.313 412.011 908.582 412.433C907.858 412.851 907.537 413.735 907.932 414.571ZM914.057 414.382L911.561 410.059L912.21 409.685L912.675 410.491L912.725 410.462C912.639 410.024 912.808 409.339 913.44 408.974L913.806 408.763L914.185 409.42L913.827 409.626C913.038 410.082 912.952 410.952 913.427 411.775L914.714 414.003L914.057 414.382ZM918.878 411.743C917.856 412.333 916.952 412.112 916.412 411.349L917.052 410.979C917.424 411.452 917.948 411.515 918.58 411.15C919.229 410.776 919.404 410.253 919.149 409.813C918.449 408.599 916.396 411.014 915.407 409.302C914.985 408.57 915.368 407.717 916.274 407.194C917.072 406.733 918.006 406.815 918.524 407.558L917.892 407.923C917.599 407.549 917.133 407.452 916.559 407.783C916.018 408.095 915.823 408.563 916.039 408.937C916.672 410.034 918.738 407.622 919.77 409.41C920.241 410.224 919.884 411.162 918.878 411.743ZM925.804 407.6C925.006 408.061 924.266 407.912 923.762 407.039L922.341 404.578L921.526 405.048L921.205 404.491L921.853 404.117C921.97 404.05 922.018 403.922 921.936 403.781L921.336 402.741L921.952 402.386L922.676 403.642L924.007 402.874L924.328 403.431L922.998 404.199L924.414 406.651C924.683 407.117 925.016 407.29 925.515 407.002L926.113 406.657L926.444 407.23L925.804 407.6ZM927.664 406.526L924.064 400.291L924.721 399.911L926.19 402.455L926.24 402.427C926.197 401.93 926.478 401.303 927.151 400.914C928.157 400.333 929.218 400.73 929.77 401.686L931.339 404.404L930.682 404.784L929.137 402.106C928.738 401.416 927.955 401.27 927.349 401.62C926.683 402.004 926.401 402.821 926.804 403.52L928.321 406.147L927.664 406.526ZM934.647 402.639C933.325 403.402 931.923 402.914 931.175 401.617C930.378 400.237 930.804 398.805 931.984 398.124C933.298 397.365 934.636 397.878 935.356 399.125L935.524 399.416L931.999 401.452C932.531 402.297 933.42 402.549 934.309 402.036C934.883 401.704 935.273 401.113 935.18 400.491L935.862 400.097C936.086 401.043 935.661 402.053 934.647 402.639ZM931.68 400.86L934.49 399.238C933.932 398.407 933.061 398.3 932.33 398.722C931.606 399.14 931.285 400.024 931.68 400.86ZM940.135 399.326L937.639 395.003L938.296 394.624L938.656 395.247L938.706 395.218C938.683 394.699 938.907 394.127 939.547 393.757C940.196 393.383 940.852 393.425 941.367 393.76L941.425 393.726C941.394 393.001 941.734 392.495 942.341 392.144C943.305 391.587 944.322 391.909 944.869 392.857L946.487 395.659L945.83 396.038L944.337 393.452C943.867 392.638 943.22 392.457 942.579 392.827C941.973 393.177 941.69 393.917 942.156 394.723L943.644 397.3L942.987 397.68L941.422 394.969C941.024 394.279 940.318 394.132 939.711 394.483C939.104 394.833 938.867 395.613 939.29 396.345L940.792 398.947L940.135 399.326ZM949.88 393.844C948.583 394.593 947.075 394.189 946.316 392.875C945.563 391.57 945.979 390.044 947.267 389.3C948.573 388.546 950.082 388.972 950.831 390.269C951.58 391.566 951.177 393.095 949.88 393.844ZM949.534 393.245C950.465 392.708 950.714 391.622 950.157 390.657C949.605 389.701 948.536 389.366 947.605 389.903C946.674 390.441 946.443 391.539 946.99 392.486C947.551 393.459 948.611 393.778 949.534 393.245ZM954.732 391.043C953.709 391.633 952.805 391.412 952.265 390.649L952.905 390.279C953.278 390.752 953.802 390.815 954.434 390.45C955.082 390.076 955.257 389.553 955.003 389.113C954.302 387.899 952.249 390.314 951.26 388.602C950.838 387.87 951.221 387.017 952.127 386.494C952.926 386.033 953.86 386.115 954.377 386.858L953.745 387.223C953.452 386.849 952.986 386.752 952.412 387.083C951.872 387.395 951.676 387.863 951.892 388.237C952.526 389.334 954.592 386.922 955.624 388.71C956.094 389.524 955.738 390.462 954.732 391.043ZM959.327 388.245C958.529 388.706 957.789 388.557 957.285 387.684L955.864 385.223L955.05 385.694L954.728 385.136L955.377 384.762C955.493 384.695 955.541 384.567 955.46 384.426L954.86 383.387L955.475 383.031L956.2 384.287L957.53 383.519L957.851 384.076L956.521 384.844L957.937 387.296C958.206 387.762 958.539 387.936 959.038 387.648L959.636 387.302L959.968 387.876L959.327 388.245Z" fill="white"/>
<path d="M642.944 350.609C639.764 352.445 636.335 351.794 634.682 348.931L636.908 347.646C637.811 349.161 639.76 349.647 641.817 348.46C643.576 347.444 644.298 345.953 643.527 344.616C641.213 340.608 634.892 348.216 631.438 342.236C630.141 339.987 630.874 337.047 634.012 335.236C636.535 333.779 639.842 333.68 641.672 336.752L639.361 338.086C638.516 336.622 636.981 336.265 635.178 337.305C633.355 338.358 633.07 339.823 633.683 340.883C635.752 344.468 642.317 337.086 645.782 343.088C647.215 345.57 646.358 348.638 642.944 350.609Z" fill="#0B1319"/>
<path d="M655.627 342.918C653.443 344.179 651.431 343.729 650.096 341.417L646.778 335.67L644.785 336.821L643.744 335.018L645.207 334.173C645.589 333.953 645.705 333.518 645.448 333.073L644.04 330.634L646.139 329.422L647.951 332.561L651.174 330.7L652.227 332.524L649.004 334.385L652.286 340.069C652.898 341.129 653.711 341.508 654.877 340.835L656.382 339.966L657.472 341.853L655.627 342.918Z" fill="#0B1319"/>
<path d="M665.383 337.654C662.054 339.576 658.386 338.413 656.464 335.083C654.431 331.562 655.459 327.859 658.618 326.035C662.074 324.039 665.515 325.446 667.339 328.606L667.817 329.433L659.082 334.477C660.281 336.358 662.333 336.926 664.369 335.751C665.768 334.943 666.585 333.566 666.405 332.228L668.568 330.979C669.232 333.452 668.118 336.075 665.383 337.654ZM658.132 332.734L664.62 328.988C663.394 327.208 661.413 326.91 659.695 327.901C657.999 328.88 657.298 330.897 658.132 332.734Z" fill="#0B1319"/>
<path d="M675.654 331.356C673.979 332.323 672.437 331.856 671.433 330.117L663.842 316.967L666.068 315.682L673.586 328.704C673.929 329.298 674.409 329.445 674.961 329.126L675.427 328.857L676.566 330.829L675.654 331.356Z" fill="#0B1319"/>
<path d="M681.933 327.731C680.258 328.698 678.716 328.231 677.712 326.492L670.12 313.342L672.346 312.057L679.865 325.079C680.207 325.673 680.688 325.82 681.239 325.501L681.706 325.232L682.844 327.205L681.933 327.731Z" fill="#0B1319"/>
<path d="M690.492 323.157C687.163 325.079 683.495 323.916 681.573 320.586C679.54 317.066 680.568 313.362 683.727 311.538C687.183 309.543 690.624 310.949 692.448 314.11L692.926 314.937L684.191 319.98C685.39 321.861 687.442 322.429 689.478 321.254C690.877 320.446 691.694 319.07 691.514 317.731L693.677 316.483C694.341 318.955 693.227 321.578 690.492 323.157ZM683.241 318.237L689.729 314.492C688.503 312.711 686.522 312.413 684.804 313.404C683.108 314.384 682.407 316.4 683.241 318.237Z" fill="#0B1319"/>
<path d="M698.631 318.09L692.227 306.998L694.368 305.762L695.483 307.692L695.631 307.606C695.456 306.519 695.904 304.847 697.473 303.941L698.448 303.378L699.697 305.541L698.658 306.141C696.771 307.23 696.51 309.276 697.698 311.333L700.857 316.805L698.631 318.09Z" fill="#0B1319"/>
<path d="M718.349 307.074C715.168 308.91 711.74 308.259 710.087 305.396L712.313 304.111C713.216 305.626 715.165 306.113 717.221 304.925C718.981 303.909 719.703 302.418 718.932 301.082C716.617 297.073 710.296 304.682 706.843 298.701C705.545 296.453 706.279 293.512 709.416 291.701C711.939 290.244 715.246 290.145 717.076 293.217L714.765 294.551C713.92 293.088 712.385 292.73 710.583 293.77C708.76 294.823 708.475 296.288 709.087 297.349C711.157 300.933 717.722 293.551 721.187 299.553C722.62 302.035 721.762 305.103 718.349 307.074Z" fill="#0B1319"/>
<path d="M731.403 299.537C728.074 301.459 724.407 300.296 722.484 296.966C720.452 293.446 721.479 289.742 724.638 287.918C728.094 285.922 731.535 287.329 733.36 290.489L733.837 291.316L725.102 296.36C726.301 298.241 728.354 298.809 730.389 297.634C731.788 296.826 732.605 295.449 732.426 294.111L734.588 292.862C735.253 295.335 734.138 297.958 731.403 299.537ZM724.153 294.617L730.64 290.872C729.414 289.091 727.433 288.793 725.716 289.784C724.02 290.763 723.318 292.78 724.153 294.617Z" fill="#0B1319"/>
<path d="M744.684 291.869C741.249 293.852 737.448 292.653 735.562 289.387C733.664 286.1 734.569 282.184 737.94 280.238C740.569 278.72 743.726 279.046 745.704 281.298L743.415 282.62C742.298 281.567 740.6 281.417 739.137 282.261C737.038 283.473 736.615 285.923 737.852 288.065C739.113 290.25 741.486 291.029 743.563 289.83C744.984 289.01 745.724 287.451 745.383 285.98L747.651 284.67C748.633 287.496 747.292 290.363 744.684 291.869Z" fill="#0B1319"/>
<path d="M756.859 284.84C754.336 286.297 751.723 285.345 750.339 282.948L746.225 275.822L748.451 274.537L752.333 281.26C753.239 282.83 754.908 283.223 756.307 282.416C757.855 281.522 758.314 279.673 757.383 278.061L753.624 271.55L755.85 270.265L762.254 281.357L760.092 282.606L759.235 281.121L759.086 281.207C759.168 282.376 758.512 283.885 756.859 284.84Z" fill="#0B1319"/>
<path d="M765.723 279.355L759.319 268.262L761.46 267.026L762.575 268.956L762.723 268.87C762.548 267.784 762.996 266.111 764.565 265.205L765.54 264.642L766.789 266.806L765.75 267.405C763.863 268.495 763.602 270.54 764.79 272.597L767.949 278.069L765.723 279.355Z" fill="#0B1319"/>
<path d="M768.45 260.672C767.602 261.161 766.657 260.944 766.167 260.095C765.702 259.289 765.974 258.341 766.822 257.851C767.691 257.349 768.649 257.588 769.114 258.394C769.604 259.242 769.319 260.17 768.45 260.672ZM774.735 274.152L768.331 263.06L770.557 261.774L776.961 272.866L774.735 274.152Z" fill="#0B1319"/>
<path d="M784.951 268.253C782.767 269.514 780.755 269.064 779.42 266.752L776.102 261.005L774.109 262.156L773.068 260.353L774.531 259.508C774.912 259.288 775.029 258.853 774.772 258.408L773.363 255.969L775.462 254.757L777.275 257.896L780.497 256.035L781.55 257.859L778.328 259.72L781.609 265.404C782.222 266.464 783.034 266.843 784.2 266.17L785.706 265.301L786.795 267.188L784.951 268.253Z" fill="#0B1319"/>
<path d="M792.612 270.334L791.461 268.341L792.436 267.778C793.454 267.19 793.778 266.381 793.603 265.294L793.393 264.001L782.246 255.025L784.663 253.63L792.685 260.423L792.833 260.338L790.939 250.007L793.377 248.599L795.966 264.835C796.31 266.898 795.856 268.462 793.863 269.612L792.612 270.334Z" fill="#0B1319"/>
<path fill-rule="evenodd" clip-rule="evenodd" d="M924.415 164.788L921.579 178.472L928.107 174.703L925.344 188.24L916.998 181.117L911.781 172.082L923.559 165.282L924.415 164.788ZM929.782 170.157L931.778 160.537L935.337 158.482L940.554 167.517L942.559 178.301L936.558 187.795L925.344 188.24L936.259 166.3L929.782 170.157Z" fill="#4364FA"/>
<path d="M801.086 476.29L798.286 471.44L801.051 469.844L801.347 470.357L799.143 471.629L800.075 473.243L801.974 472.147L802.266 472.653L800.367 473.749L801.355 475.46L803.635 474.144L803.927 474.65L801.086 476.29ZM804.894 474.092L802.814 470.489L803.361 470.173L803.665 470.699L803.707 470.675C803.671 470.262 803.891 469.747 804.452 469.423C805.291 468.939 806.16 469.277 806.62 470.074L807.928 472.34L807.381 472.656L806.093 470.425C805.761 469.85 805.122 469.72 804.617 470.012C804.048 470.34 803.857 471.032 804.201 471.628L805.441 473.776L804.894 474.092ZM810.734 470.84C809.646 471.468 808.408 471.084 807.792 470.017C807.176 468.95 807.483 467.673 808.543 467.061C809.325 466.609 810.325 466.66 810.983 467.352L810.415 467.68C809.997 467.293 809.364 467.252 808.844 467.552C808.075 467.996 807.908 468.906 808.36 469.689C808.828 470.499 809.711 470.765 810.466 470.329C810.986 470.029 811.274 469.456 811.141 468.905L811.702 468.581C811.979 469.493 811.516 470.388 810.734 470.84ZM813.358 469.205L811.278 465.602L811.818 465.29L812.206 465.962L812.248 465.938C812.176 465.573 812.317 465.002 812.844 464.698L813.148 464.522L813.464 465.07L813.166 465.242C812.508 465.622 812.437 466.346 812.833 467.032L813.905 468.889L813.358 469.205ZM816.989 469.233L816.701 468.734L816.972 468.578C817.325 468.374 817.438 468.106 817.376 467.726L817.29 467.193L813.636 464.241L814.246 463.889L817.121 466.293L817.163 466.269L816.525 462.573L817.142 462.217L817.98 467.636C818.076 468.236 817.952 468.677 817.364 469.017L816.989 469.233ZM820.976 466.931L817.976 461.735L818.502 461.431L818.83 461.999L818.872 461.975C818.886 461.791 818.956 461.049 819.739 460.597C820.799 459.985 821.986 460.344 822.622 461.445C823.262 462.554 822.983 463.768 821.965 464.356C821.21 464.792 820.528 464.539 820.309 464.416L820.267 464.44L821.523 466.615L820.976 466.931ZM821.614 463.893C822.356 463.465 822.532 462.587 822.06 461.769C821.572 460.924 820.744 460.673 819.988 461.109C819.206 461.561 819.102 462.47 819.538 463.225C820.05 464.112 820.901 464.305 821.614 463.893ZM826.043 461.881C825.378 462.265 824.761 462.141 824.341 461.413L823.157 459.363L822.478 459.755L822.21 459.29L822.75 458.978C822.847 458.922 822.888 458.816 822.82 458.698L822.32 457.832L822.832 457.536L823.436 458.582L824.545 457.942L824.813 458.407L823.704 459.047L824.884 461.09C825.108 461.478 825.386 461.623 825.801 461.383L826.3 461.095L826.576 461.573L826.043 461.881ZM829.169 460.196C828.068 460.832 826.9 460.426 826.276 459.345C825.612 458.195 825.967 457.001 826.951 456.433C828.045 455.801 829.161 456.229 829.761 457.268L829.901 457.511L826.963 459.207C827.407 459.911 828.147 460.121 828.888 459.693C829.366 459.417 829.692 458.925 829.614 458.406L830.182 458.078C830.369 458.866 830.015 459.708 829.169 460.196ZM826.697 458.714L829.039 457.362C828.574 456.669 827.848 456.58 827.239 456.932C826.636 457.28 826.368 458.017 826.697 458.714ZM833.371 457.77C832.311 458.382 831.124 458.024 830.488 456.922C829.848 455.814 830.127 454.6 831.145 454.012C831.9 453.576 832.582 453.829 832.801 453.952L832.843 453.928L831.587 451.752L832.134 451.436L835.134 456.632L834.607 456.936L834.279 456.368L834.238 456.392C834.224 456.576 834.154 457.318 833.371 457.77ZM833.121 457.259C833.904 456.807 834.007 455.897 833.571 455.142C833.059 454.255 832.209 454.063 831.495 454.475C830.754 454.903 830.577 455.78 831.049 456.598C831.537 457.443 832.366 457.695 833.121 457.259ZM836.811 456.875L836.032 455.255L836.635 454.907L837.212 456.643L836.811 456.875ZM841.34 453.169C840.488 453.661 839.735 453.477 839.284 452.841L839.818 452.533C840.128 452.927 840.565 452.979 841.092 452.675C841.632 452.363 841.778 451.928 841.566 451.561C840.982 450.549 839.271 452.562 838.447 451.135C838.095 450.526 838.415 449.815 839.17 449.379C839.835 448.995 840.613 449.063 841.045 449.682L840.518 449.986C840.274 449.674 839.885 449.594 839.407 449.87C838.957 450.13 838.794 450.519 838.974 450.831C839.502 451.746 841.223 449.736 842.083 451.225C842.475 451.904 842.178 452.685 841.34 453.169ZM845.34 450.86C844.238 451.496 843.07 451.09 842.446 450.009C841.782 448.859 842.137 447.665 843.121 447.097C844.216 446.465 845.331 446.893 845.931 447.932L846.071 448.175L843.133 449.871C843.577 450.575 844.317 450.785 845.059 450.357C845.537 450.081 845.862 449.589 845.784 449.07L846.352 448.742C846.539 449.53 846.185 450.372 845.34 450.86ZM842.867 449.378L845.209 448.026C844.744 447.333 844.019 447.244 843.409 447.596C842.806 447.944 842.539 448.681 842.867 449.378ZM849.596 448.403C848.509 449.031 847.271 448.646 846.655 447.579C846.039 446.512 846.345 445.236 847.406 444.624C848.188 444.172 849.188 444.223 849.846 444.915L849.278 445.243C848.86 444.855 848.227 444.815 847.707 445.115C846.938 445.559 846.771 446.468 847.223 447.251C847.691 448.062 848.574 448.328 849.329 447.892C849.849 447.592 850.137 447.019 850.004 446.468L850.565 446.144C850.842 447.055 850.379 447.951 849.596 448.403ZM853.547 446.121C852.709 446.605 851.839 446.267 851.379 445.47L850.071 443.205L850.619 442.889L851.915 445.133C852.247 445.708 852.885 445.839 853.391 445.547C853.959 445.219 854.151 444.526 853.807 443.93L852.559 441.769L853.106 441.453L855.186 445.055L854.639 445.371L854.335 444.845L854.293 444.869C854.329 445.282 854.109 445.797 853.547 446.121ZM856.361 444.377L854.281 440.774L854.822 440.462L855.21 441.134L855.251 441.11C855.179 440.745 855.321 440.174 855.847 439.87L856.152 439.694L856.468 440.241L856.17 440.413C855.512 440.793 855.441 441.518 855.837 442.204L856.909 444.061L856.361 444.377ZM860.576 442.063C859.475 442.699 858.307 442.293 857.683 441.212C857.019 440.062 857.374 438.869 858.358 438.301C859.452 437.669 860.567 438.096 861.167 439.135L861.307 439.378L858.37 441.074C858.814 441.778 859.554 441.989 860.295 441.561C860.773 441.285 861.098 440.792 861.021 440.273L861.589 439.945C861.776 440.733 861.421 441.575 860.576 442.063ZM858.104 440.581L860.446 439.229C859.981 438.536 859.255 438.447 858.646 438.799C858.043 439.147 857.775 439.884 858.104 440.581ZM864.778 439.638C863.718 440.25 862.531 439.891 861.895 438.789C861.255 437.681 861.534 436.467 862.552 435.879C863.307 435.443 863.989 435.696 864.208 435.819L864.25 435.795L862.994 433.619L863.541 433.303L866.541 438.5L866.014 438.804L865.686 438.235L865.645 438.259C865.631 438.443 865.561 439.186 864.778 439.638ZM864.528 439.126C865.311 438.674 865.414 437.764 864.978 437.009C864.466 436.122 863.616 435.93 862.902 436.342C862.161 436.77 861.984 437.648 862.456 438.465C862.944 439.31 863.773 439.562 864.528 439.126ZM871.232 435.911C870.172 436.523 868.986 436.164 868.35 435.063C867.71 433.954 867.988 432.74 869.007 432.152C869.762 431.716 870.444 431.969 870.663 432.092L870.704 432.068L870.368 431.486L870.915 431.17L872.995 434.773L872.469 435.077L872.141 434.509L872.099 434.533C872.085 434.717 872.015 435.459 871.232 435.911ZM870.983 435.399C871.766 434.947 871.869 434.038 871.433 433.283C870.921 432.396 870.071 432.203 869.357 432.615C868.616 433.043 868.439 433.921 868.911 434.739C869.399 435.584 870.228 435.835 870.983 435.399ZM874.176 434.092L872.096 430.489L872.643 430.173L872.947 430.699L872.989 430.675C872.953 430.262 873.173 429.747 873.734 429.423C874.573 428.939 875.442 429.277 875.902 430.074L877.21 432.34L876.663 432.656L875.375 430.425C875.043 429.85 874.404 429.72 873.899 430.012C873.33 430.34 873.139 431.032 873.483 431.628L874.723 433.776L874.176 434.092ZM879.96 430.872C878.9 431.484 877.714 431.125 877.078 430.024C876.438 428.915 876.716 427.701 877.735 427.113C878.49 426.677 879.172 426.93 879.39 427.053L879.432 427.029L878.176 424.854L878.723 424.538L881.723 429.734L881.197 430.038L880.869 429.47L880.827 429.494C880.813 429.678 880.743 430.42 879.96 430.872ZM879.711 430.36C880.494 429.908 880.597 428.999 880.161 428.244C879.649 427.357 878.799 427.164 878.085 427.576C877.344 428.004 877.167 428.882 877.639 429.7C878.127 430.545 878.956 430.796 879.711 430.36ZM885.765 429.525L882.765 424.329L883.292 424.025L883.62 424.593L883.662 424.569C883.676 424.385 883.746 423.643 884.529 423.191C885.589 422.579 886.775 422.938 887.411 424.039C888.051 425.148 887.773 426.361 886.754 426.949C885.999 427.385 885.317 427.133 885.098 427.009L885.057 427.033L886.313 429.209L885.765 429.525ZM886.404 426.487C887.145 426.059 887.322 425.181 886.85 424.363C886.362 423.518 885.533 423.267 884.778 423.703C883.995 424.155 883.892 425.064 884.328 425.819C884.84 426.706 885.69 426.899 886.404 426.487ZM889.426 425.287L887.346 421.684L887.886 421.372L888.274 422.044L888.316 422.02C888.244 421.655 888.385 421.084 888.912 420.78L889.217 420.604L889.533 421.152L889.235 421.324C888.576 421.704 888.505 422.428 888.901 423.114L889.973 424.971L889.426 425.287ZM893.717 422.93C892.636 423.554 891.379 423.217 890.747 422.122C890.119 421.034 890.466 419.763 891.54 419.143C892.628 418.515 893.885 418.869 894.509 419.95C895.133 421.031 894.798 422.306 893.717 422.93ZM893.429 422.431C894.205 421.983 894.412 421.078 893.948 420.274C893.488 419.477 892.597 419.198 891.821 419.646C891.045 420.094 890.853 421.008 891.309 421.798C891.777 422.609 892.66 422.875 893.429 422.431ZM897.923 420.381C897.258 420.765 896.641 420.641 896.221 419.913L895.037 417.863L894.358 418.255L894.09 417.79L894.631 417.478C894.727 417.422 894.768 417.316 894.7 417.198L894.2 416.332L894.712 416.036L895.316 417.082L896.425 416.442L896.693 416.907L895.584 417.547L896.764 419.59C896.988 419.978 897.266 420.123 897.682 419.883L898.18 419.595L898.456 420.073L897.923 420.381ZM901.049 418.696C899.948 419.332 898.78 418.926 898.156 417.845C897.492 416.695 897.847 415.501 898.831 414.933C899.925 414.301 901.041 414.729 901.641 415.768L901.781 416.011L898.843 417.707C899.287 418.411 900.027 418.621 900.768 418.193C901.246 417.917 901.572 417.425 901.494 416.906L902.062 416.578C902.249 417.366 901.895 418.208 901.049 418.696ZM898.577 417.214L900.919 415.862C900.454 415.169 899.728 415.08 899.119 415.432C898.516 415.78 898.248 416.517 898.577 417.214ZM905.306 416.238C904.218 416.866 902.98 416.482 902.364 415.415C901.748 414.348 902.055 413.072 903.115 412.46C903.898 412.008 904.898 412.059 905.556 412.75L904.988 413.078C904.57 412.691 903.937 412.651 903.417 412.951C902.648 413.395 902.481 414.304 902.933 415.087C903.401 415.898 904.284 416.164 905.039 415.728C905.559 415.428 905.847 414.855 905.713 414.304L906.275 413.98C906.552 414.891 906.089 415.786 905.306 416.238ZM909.337 413.791C908.672 414.175 908.055 414.051 907.635 413.324L906.451 411.273L905.772 411.665L905.504 411.201L906.044 410.889C906.141 410.833 906.182 410.726 906.114 410.608L905.614 409.742L906.126 409.446L906.73 410.493L907.839 409.853L908.107 410.317L906.998 410.957L908.178 413.001C908.402 413.389 908.68 413.533 909.096 413.293L909.594 413.005L909.87 413.483L909.337 413.791ZM912.463 412.106C911.362 412.742 910.194 412.336 909.57 411.255C908.906 410.105 909.261 408.912 910.245 408.344C911.339 407.712 912.455 408.139 913.055 409.178L913.195 409.421L910.257 411.117C910.701 411.821 911.441 412.031 912.182 411.603C912.66 411.327 912.986 410.835 912.908 410.316L913.476 409.988C913.663 410.776 913.309 411.618 912.463 412.106ZM909.991 410.624L912.333 409.272C911.868 408.579 911.142 408.49 910.533 408.842C909.93 409.19 909.662 409.927 909.991 410.624ZM916.665 409.681C915.605 410.293 914.418 409.934 913.782 408.832C913.142 407.724 913.421 406.51 914.439 405.922C915.194 405.486 915.876 405.739 916.095 405.862L916.137 405.838L914.881 403.662L915.428 403.346L918.428 408.543L917.901 408.847L917.573 408.278L917.532 408.302C917.518 408.486 917.448 409.229 916.665 409.681ZM916.415 409.169C917.198 408.717 917.301 407.807 916.865 407.052C916.353 406.165 915.503 405.973 914.79 406.385C914.048 406.813 913.872 407.691 914.344 408.508C914.832 409.353 915.66 409.605 916.415 409.169ZM923.417 405.782C922.634 406.234 921.956 405.924 921.79 405.844L921.749 405.868L922.077 406.436L921.55 406.74L918.55 401.544L919.097 401.228L920.353 403.403L920.395 403.379C920.398 403.128 920.52 402.411 921.275 401.975C922.293 401.387 923.484 401.753 924.124 402.862C924.76 403.963 924.477 405.17 923.417 405.782ZM923.099 405.31C923.854 404.874 924.05 404.031 923.562 403.186C923.09 402.368 922.242 402.082 921.5 402.51C920.787 402.922 920.529 403.755 921.041 404.642C921.477 405.397 922.316 405.762 923.099 405.31ZM926.887 405.784L926.599 405.285L926.869 405.129C927.222 404.925 927.335 404.656 927.273 404.277L927.187 403.744L923.533 400.791L924.143 400.439L927.018 402.844L927.06 402.82L926.422 399.123L927.039 398.767L927.877 404.187C927.974 404.786 927.85 405.228 927.261 405.568L926.887 405.784ZM933.367 400.037C932.404 400.593 931.271 400.407 930.751 399.506L931.312 399.182C931.636 399.743 932.354 399.93 933.088 399.506C933.725 399.138 934.003 398.562 933.711 398.056C932.835 396.539 930.766 399.147 929.646 397.207C929.246 396.514 929.473 395.58 930.449 395.016C931.184 394.592 932.275 394.497 932.855 395.502L932.28 395.834C931.96 395.28 931.397 395.152 930.738 395.532C930.053 395.928 929.975 396.481 930.207 396.883C930.971 398.206 933.127 395.733 934.259 397.694C934.699 398.456 934.427 399.425 933.367 400.037ZM937.374 397.604C936.709 397.988 936.093 397.864 935.673 397.136L934.489 395.085L933.81 395.477L933.542 395.013L934.082 394.701C934.179 394.645 934.219 394.539 934.151 394.421L933.651 393.555L934.164 393.259L934.768 394.305L935.876 393.665L936.144 394.129L935.036 394.769L936.216 396.813C936.44 397.201 936.717 397.346 937.133 397.106L937.632 396.818L937.908 397.296L937.374 397.604ZM940.501 395.919C939.399 396.555 938.232 396.148 937.608 395.067C936.944 393.917 937.298 392.724 938.282 392.156C939.377 391.524 940.492 391.952 941.092 392.991L941.232 393.233L938.295 394.929C938.738 395.634 939.479 395.844 940.22 395.416C940.698 395.14 941.023 394.647 940.945 394.129L941.514 393.801C941.701 394.589 941.346 395.431 940.501 395.919ZM938.028 394.436L940.37 393.084C939.906 392.392 939.18 392.303 938.57 392.655C937.967 393.003 937.7 393.739 938.028 394.436ZM943.637 393.988C943.187 394.248 942.763 394.123 942.479 393.631L939.923 389.204L940.471 388.888L943.027 393.315C943.131 393.495 943.281 393.547 943.454 393.447L943.62 393.351L943.9 393.836L943.637 393.988ZM945.552 392.883C945.101 393.143 944.678 393.018 944.394 392.526L941.838 388.099L942.385 387.783L944.941 392.21C945.045 392.39 945.195 392.442 945.369 392.342L945.535 392.246L945.815 392.731L945.552 392.883ZM948.295 391.419C947.194 392.055 946.026 391.648 945.402 390.567C944.738 389.417 945.093 388.224 946.076 387.656C947.171 387.024 948.286 387.452 948.886 388.491L949.026 388.733L946.089 390.429C946.533 391.134 947.273 391.344 948.014 390.916C948.492 390.64 948.817 390.147 948.74 389.629L949.308 389.301C949.495 390.089 949.14 390.931 948.295 391.419ZM945.823 389.936L948.164 388.584C947.7 387.892 946.974 387.803 946.364 388.155C945.762 388.503 945.494 389.239 945.823 389.936ZM950.927 389.779L948.847 386.176L949.388 385.864L949.776 386.536L949.817 386.512C949.745 386.148 949.886 385.576 950.413 385.272L950.718 385.096L951.034 385.644L950.736 385.816C950.078 386.196 950.007 386.92 950.403 387.606L951.475 389.463L950.927 389.779ZM957.115 386.326C956.152 386.882 955.019 386.696 954.499 385.795L955.06 385.471C955.384 386.033 956.102 386.219 956.836 385.795C957.473 385.427 957.751 384.851 957.459 384.345C956.583 382.828 954.514 385.436 953.394 383.496C952.994 382.803 953.221 381.869 954.197 381.305C954.932 380.881 956.023 380.786 956.603 381.791L956.028 382.123C955.708 381.569 955.145 381.441 954.487 381.821C953.801 382.217 953.723 382.77 953.955 383.172C954.719 384.495 956.875 382.022 958.007 383.983C958.447 384.745 958.175 385.714 957.115 386.326ZM961.292 383.915C960.191 384.551 959.023 384.144 958.399 383.064C957.735 381.913 958.09 380.72 959.074 380.152C960.168 379.52 961.284 379.948 961.884 380.987L962.024 381.23L959.086 382.926C959.53 383.63 960.27 383.84 961.011 383.412C961.489 383.136 961.815 382.643 961.737 382.125L962.305 381.797C962.492 382.585 962.138 383.427 961.292 383.915ZM958.82 382.433L961.162 381.081C960.697 380.388 959.971 380.299 959.362 380.651C958.759 380.999 958.491 381.735 958.82 382.433ZM965.549 381.457C964.461 382.085 963.223 381.701 962.607 380.634C961.991 379.567 962.298 378.29 963.358 377.678C964.141 377.226 965.141 377.278 965.799 377.969L965.23 378.297C964.813 377.91 964.18 377.869 963.66 378.169C962.891 378.613 962.723 379.523 963.175 380.306C963.643 381.116 964.527 381.382 965.282 380.946C965.802 380.646 966.09 380.074 965.956 379.522L966.517 379.198C966.794 380.11 966.332 381.005 965.549 381.457ZM969.5 379.176C968.662 379.66 967.792 379.322 967.332 378.525L966.024 376.259L966.571 375.943L967.867 378.188C968.199 378.763 968.838 378.893 969.344 378.601C969.912 378.273 970.103 377.581 969.759 376.985L968.511 374.823L969.059 374.507L971.139 378.11L970.591 378.426L970.287 377.899L970.246 377.923C970.281 378.337 970.061 378.852 969.5 379.176ZM972.314 377.431L970.234 373.829L970.774 373.517L971.162 374.189L971.204 374.165C971.132 373.8 971.273 373.229 971.8 372.925L972.105 372.749L972.421 373.296L972.123 373.468C971.465 373.848 971.393 374.573 971.789 375.259L972.861 377.115L972.314 377.431ZM972.916 371.412C972.687 371.544 972.421 371.467 972.289 371.238C972.161 371.016 972.227 370.747 972.456 370.615C972.692 370.479 972.958 370.556 973.086 370.778C973.218 371.007 973.152 371.276 972.916 371.412ZM975.088 375.83L973.008 372.227L973.555 371.911L975.635 375.514L975.088 375.83ZM978.22 374.022C977.555 374.406 976.938 374.281 976.518 373.554L975.334 371.503L974.655 371.895L974.387 371.431L974.927 371.119C975.024 371.063 975.064 370.957 974.996 370.839L974.496 369.973L975.009 369.677L975.613 370.723L976.722 370.083L976.99 370.547L975.881 371.187L977.061 373.231C977.285 373.619 977.563 373.764 977.978 373.524L978.477 373.236L978.753 373.714L978.22 374.022ZM980.628 374.756L980.34 374.257L980.61 374.101C980.963 373.897 981.076 373.629 981.014 373.249L980.928 372.717L977.274 369.764L977.884 369.412L980.759 371.816L980.801 371.792L980.163 368.096L980.78 367.74L981.618 373.159C981.715 373.759 981.591 374.2 981.002 374.54L980.628 374.756Z" fill="#0B1319"/>
<path d="M789.699 476.629C789.125 476.96 788.929 477.694 789.26 478.268L789.46 478.615L791.538 477.415L791.338 477.068C791.007 476.494 790.273 476.298 789.699 476.629Z" fill="#60D38E"/>
<path fill-rule="evenodd" clip-rule="evenodd" d="M788.099 473.858C790.969 472.201 794.638 473.184 796.295 476.054C797.952 478.924 796.969 482.593 794.099 484.25C791.229 485.907 787.56 484.924 785.903 482.054C784.246 479.184 785.229 475.515 788.099 473.858ZM788.567 478.668L788.801 479.074C788.48 479.449 788.413 480.001 788.674 480.454L789.874 482.532C790.206 483.106 790.94 483.303 791.514 482.972L794.285 481.372C794.859 481.04 795.055 480.306 794.724 479.732L793.524 477.654C793.263 477.201 792.751 476.983 792.265 477.074L792.031 476.668C791.479 475.712 790.256 475.384 789.299 475.936C788.343 476.488 788.015 477.712 788.567 478.668Z" fill="#60D38E"/>
<path d="M979.725 243.364L974.225 233.838C972.016 230.012 967.123 228.701 963.297 230.91L910.123 261.61M898.692 268.21L883.202 277.153C881.364 278.214 880.023 279.961 879.474 282.011L874.235 301.564C873.686 303.613 873.973 305.797 875.034 307.634L899.077 349.278C901.286 353.104 906.179 354.415 910.006 352.206L937.892 336.106M949.323 329.506L1002.5 298.806C1006.32 296.597 1007.63 291.704 1005.43 287.878L1000.43 279.218" stroke="#85898C" stroke-width="4.8" stroke-linecap="round" stroke-linejoin="round"/>
<mask id="mask2_408_1398" style="mask-type:alpha" maskUnits="userSpaceOnUse" x="926" y="256" width="63" height="59">
<rect x="924.921" y="281.241" width="52" height="39.5417" rx="4" transform="rotate(-30 924.921 281.241)" fill="#D9D9D9"/>
</mask>
<g mask="url(#mask2_408_1398)">
<rect x="924.921" y="281.241" width="52" height="39.5417" transform="rotate(-30 924.921 281.241)" fill="#BDAC8E"/>
<path d="M931.468 293.097L948.579 283.218M939.579 272.48L950.291 275.35L953.27 280.51L948.579 283.218M956.21 262.877L953.34 273.589L956.319 278.749M976.949 266.839L959.603 276.854L966.103 288.112L983.449 278.097M937.968 304.356L955.079 294.477L948.579 283.218" stroke="black" stroke-width="0.8" stroke-linecap="square" stroke-linejoin="round"/>
<path d="M976.24 297.569L965.158 294.6L963.785 292.222C963.122 291.074 963.516 289.606 964.664 288.943L967.042 287.57" stroke="black" stroke-width="0.8" stroke-linecap="square" stroke-linejoin="round"/>
<path d="M958.67 307.713L961.639 296.631L960.267 294.253C959.604 293.105 958.136 292.712 956.988 293.375L954.61 294.747" stroke="black" stroke-width="0.8" stroke-linecap="square" stroke-linejoin="round"/>
</g>
</g>
</g>
<g filter="url(#filter1_d_408_1398)">
<rect x="95" y="192.718" width="305.287" height="626.5" rx="40.5562" transform="rotate(-30 95 192.718)" fill="black"/>
<g filter="url(#filter2_f_408_1398)">
<path d="M117.82 225.664C107.465 207.728 113.61 184.793 131.546 174.438L325.069 62.7077C343.483 52.0762 367.029 58.3854 377.661 76.7997L650.349 549.109C660.842 567.284 654.615 590.524 636.44 601.018L441.185 713.748C423.967 723.689 401.949 717.79 392.008 700.571L117.82 225.664Z" stroke="white" stroke-opacity="0.5" stroke-width="0.25"/>
</g>
<g filter="url(#filter3_f_408_1398)">
<path d="M119.893 224.756C110.159 207.896 115.936 186.338 132.796 176.604L326.319 64.873C343.418 55.0009 365.282 60.8594 375.154 77.9583L648.092 550.701C658.033 567.92 652.134 589.937 634.915 599.878L440.959 711.859C424.458 721.386 403.358 715.732 393.831 699.231L119.893 224.756Z" fill="black"/>
<path d="M119.893 224.756C110.159 207.896 115.936 186.338 132.796 176.604L326.319 64.873C343.418 55.0009 365.282 60.8594 375.154 77.9583L648.092 550.701C658.033 567.92 652.134 589.937 634.915 599.878L440.959 711.859C424.458 721.386 403.358 715.732 393.831 699.231L119.893 224.756Z" fill="url(#paint0_angular_408_1398)"/>
</g>
<g filter="url(#filter4_f_408_1398)">
<path d="M120.361 225.063C110.627 208.203 116.403 186.645 133.263 176.911L326.353 65.4303C343.452 55.5582 365.316 61.4167 375.188 78.5157L647.627 550.393C657.568 567.611 651.668 589.628 634.45 599.569L440.927 711.3C424.426 720.827 403.326 715.173 393.799 698.672L120.361 225.063Z" fill="url(#paint1_angular_408_1398)"/>
</g>
<path d="M124.131 222.596C115.571 207.769 120.651 188.81 135.478 180.25L329.219 68.3935C343.687 60.0402 362.188 64.9975 370.541 79.4658L644.23 553.509C652.859 568.456 647.738 587.568 632.792 596.197L436.02 709.804C423.345 717.121 407.138 712.779 399.82 700.104L124.131 222.596Z" fill="black"/>
<mask id="mask3_408_1398" style="mask-type:alpha" maskUnits="userSpaceOnUse" x="124" y="69" width="521" height="638">
<rect x="116.856" y="198.574" width="274" height="596" rx="22" transform="rotate(-30 116.856 198.574)" fill="#D9D9D9"/>
</mask>
<g mask="url(#mask3_408_1398)">
<rect x="116.856" y="198.574" width="274" height="596" rx="22" transform="rotate(-30 116.856 198.574)" fill="#F7F6FC"/>
<path d="M446.789 643.173L441.889 634.686L444.629 633.104C446.241 632.173 447.738 632.554 448.452 633.79C448.935 634.627 448.899 635.488 448.43 636.244L448.472 636.317C449.154 636.182 450.304 636.326 450.997 637.526C451.879 639.054 451.202 640.625 449.771 641.451L446.789 643.173ZM444.98 637.8L446.713 636.799C447.671 636.246 447.985 635.305 447.488 634.444C447.005 633.607 446.042 633.452 445.133 633.977L443.363 634.999L444.98 637.8ZM447.262 641.752L449.104 640.688C450.111 640.107 450.595 639.181 449.965 638.09C449.321 636.975 448.171 637.056 447.189 637.623L445.456 638.624L447.262 641.752ZM456.85 637.575C454.922 638.688 452.878 637.976 451.786 636.085C450.624 634.072 451.245 631.984 452.967 630.99C454.883 629.884 456.834 630.632 457.884 632.451L458.129 632.875L452.989 635.843C453.765 637.076 455.06 637.444 456.358 636.695C457.194 636.212 457.763 635.35 457.627 634.442L458.622 633.868C458.949 635.247 458.329 636.721 456.85 637.575ZM452.523 634.98L456.621 632.614C455.808 631.402 454.538 631.247 453.471 631.863C452.416 632.472 451.948 633.76 452.523 634.98ZM464.299 633.274C462.395 634.373 460.229 633.7 459.151 631.833C458.073 629.966 458.61 627.732 460.465 626.661C461.835 625.87 463.584 625.959 464.735 627.17L463.741 627.744C463.011 627.066 461.902 626.995 460.993 627.52C459.647 628.297 459.354 629.889 460.145 631.259C460.964 632.677 462.51 633.143 463.831 632.38C464.741 631.855 465.245 630.852 465.012 629.888L465.994 629.321C466.478 630.916 465.669 632.483 464.299 633.274ZM471.638 629.037C469.783 630.108 467.706 629.48 466.593 627.552C465.473 625.612 465.961 623.488 467.743 622.459C469.064 621.696 470.258 622.138 470.641 622.354L470.713 622.312L470.125 621.293L471.083 620.74L474.723 627.045L473.802 627.577L473.228 626.583L473.155 626.625C473.13 626.946 473.008 628.246 471.638 629.037ZM471.201 628.141C472.571 627.35 472.752 625.758 471.989 624.437C471.093 622.885 469.605 622.548 468.356 623.269C467.059 624.018 466.75 625.554 467.576 626.985C468.43 628.464 469.88 628.904 471.201 628.141ZM479.111 624.722C477.644 625.569 476.122 624.977 475.317 623.582L473.028 619.618L473.985 619.065L476.253 622.993C476.834 623.999 477.952 624.227 478.837 623.716C479.831 623.142 480.166 621.93 479.564 620.888L477.38 617.105L478.338 616.552L481.978 622.856L481.02 623.409L480.488 622.488L480.415 622.53C480.478 623.254 480.093 624.155 479.111 624.722ZM486.211 620.622C484.72 621.483 483.402 621.161 482.614 620.048L483.548 619.509C484.091 620.198 484.855 620.29 485.777 619.758C486.723 619.212 486.978 618.45 486.607 617.808C485.585 616.037 482.591 619.56 481.149 617.063C480.533 615.996 481.092 614.752 482.414 613.989C483.578 613.317 484.94 613.436 485.695 614.519L484.773 615.051C484.345 614.506 483.666 614.365 482.829 614.848C482.041 615.303 481.756 615.985 482.071 616.531C482.995 618.131 486.008 614.613 487.513 617.22C488.199 618.408 487.678 619.775 486.211 620.622ZM493.211 616.581C491.283 617.694 489.239 616.983 488.147 615.091C486.985 613.079 487.606 610.99 489.328 609.996C491.244 608.89 493.195 609.639 494.245 611.458L494.49 611.882L489.35 614.85C490.126 616.083 491.422 616.45 492.719 615.701C493.555 615.218 494.125 614.356 493.989 613.449L494.983 612.875C495.31 614.254 494.69 615.727 493.211 616.581ZM488.884 613.987L492.982 611.621C492.169 610.409 490.899 610.253 489.832 610.869C488.777 611.478 488.309 612.767 488.884 613.987ZM502.716 614.602L502.212 613.729L502.685 613.456C503.303 613.099 503.501 612.629 503.392 611.964L503.242 611.032L496.848 605.865L497.915 605.249L502.947 609.457L503.019 609.415L501.904 602.946L502.983 602.323L504.449 611.807C504.618 612.857 504.401 613.629 503.371 614.224L502.716 614.602ZM510.737 606.462C508.846 607.554 506.647 606.965 505.541 605.049C504.442 603.146 505.048 600.921 506.927 599.836C508.831 598.737 511.032 599.357 512.124 601.248C513.216 603.14 512.629 605.37 510.737 606.462ZM510.233 605.589C511.591 604.805 511.954 603.222 511.142 601.815C510.337 600.421 508.777 599.931 507.419 600.715C506.061 601.499 505.725 603.1 506.523 604.482C507.342 605.901 508.888 606.366 510.233 605.589ZM517.958 602.293C516.491 603.14 514.969 602.548 514.164 601.154L511.875 597.189L512.833 596.636L515.101 600.564C515.682 601.571 516.8 601.798 517.685 601.287C518.679 600.713 519.014 599.502 518.412 598.459L516.228 594.676L517.186 594.123L520.826 600.428L519.868 600.981L519.336 600.059L519.263 600.101C519.325 600.825 518.94 601.726 517.958 602.293ZM522.883 599.24L519.243 592.935L520.188 592.389L520.867 593.566L520.94 593.524C520.814 592.885 521.061 591.885 521.983 591.353L522.516 591.045L523.069 592.003L522.548 592.304C521.396 592.969 521.272 594.238 521.965 595.438L523.841 598.687L522.883 599.24ZM532.454 597.432L527.148 588.242L529.003 587.171L529.416 587.886L529.513 587.83C529.527 587.434 529.725 586.544 530.792 585.928C532.538 584.92 534.494 585.537 535.656 587.549C536.818 589.562 536.44 591.623 534.718 592.617C533.675 593.219 532.81 593.008 532.401 592.775L532.304 592.831L534.334 596.347L532.454 597.432ZM533.265 591.193C534.138 590.689 534.34 589.667 533.773 588.685C533.192 587.678 532.22 587.367 531.347 587.871C530.45 588.389 530.286 589.421 530.839 590.379C531.427 591.397 532.404 591.69 533.265 591.193ZM538.765 590.07L535.069 583.669L536.84 582.647L537.4 583.617L537.497 583.561C537.442 582.962 537.697 582.087 538.557 581.59L539.176 581.233L540.198 583.003L539.458 583.43C538.537 583.962 538.328 584.972 538.965 586.075L540.645 588.985L538.765 590.07ZM540.965 579.311C540.323 579.682 539.638 579.56 539.274 578.929C538.91 578.299 539.147 577.645 539.789 577.274C540.432 576.903 541.117 577.025 541.481 577.655C541.845 578.286 541.608 578.94 540.965 579.311ZM544.141 586.967L540.445 580.565L542.324 579.48L546.02 585.882L544.141 586.967ZM549.058 584.128L543.095 579.035L545.047 577.908L548.788 581.309L548.885 581.253L547.811 576.312L549.787 575.171L551.228 582.875L549.058 584.128ZM556.831 579.85C555.073 580.865 553.117 580.249 551.955 578.236C550.793 576.223 551.183 574.155 552.905 573.161C553.911 572.58 554.808 572.79 555.222 573.003L555.319 572.947L554.899 572.22L556.779 571.135L560.475 577.536L558.608 578.614L558.188 577.887L558.091 577.943C558.077 578.339 557.886 579.241 556.831 579.85ZM556.276 577.908C557.173 577.39 557.33 576.345 556.784 575.4C556.196 574.381 555.206 574.096 554.346 574.593C553.473 575.097 553.271 576.118 553.838 577.101C554.412 578.095 555.391 578.419 556.276 577.908ZM564.976 575.148C562.915 576.338 560.727 575.629 559.642 573.749C558.55 571.858 559.025 569.628 561.086 568.438C562.868 567.409 564.764 567.753 565.849 569.212L563.945 570.311C563.461 569.863 562.745 569.743 562.078 570.128C561.156 570.66 561.014 571.729 561.546 572.65C562.085 573.584 563.099 573.968 564.008 573.443C564.638 573.079 564.926 572.429 564.789 571.828L566.705 570.722C567.374 572.357 566.734 574.133 564.976 575.148ZM570.772 575.31L569.813 573.648L570.552 573.221C571.062 572.927 571.192 572.481 571.116 571.958L571.05 571.592L564.75 566.532L566.715 565.398L570.466 568.648L570.563 568.592L569.552 563.76L571.54 562.612L573.052 571.503C573.295 572.931 572.966 574.043 571.62 574.82L570.772 575.31ZM465.723 651.871L462.083 645.567L463.041 645.014L463.566 645.923L463.638 645.881C463.606 645.124 463.932 644.289 464.865 643.75C465.811 643.204 466.768 643.266 467.519 643.754L467.604 643.705C467.559 642.647 468.054 641.909 468.939 641.398C470.346 640.586 471.829 641.055 472.627 642.437L474.986 646.523L474.028 647.076L471.851 643.306C471.165 642.117 470.221 641.854 469.287 642.393C468.402 642.904 467.99 643.983 468.669 645.159L470.839 648.917L469.882 649.47L467.6 645.518C467.019 644.511 465.99 644.297 465.105 644.808C464.219 645.319 463.874 646.456 464.49 647.523L466.681 651.318L465.723 651.871ZM479.788 643.961C477.933 645.032 475.857 644.404 474.744 642.476C473.624 640.536 474.111 638.412 475.894 637.383C477.215 636.62 478.408 637.063 478.791 637.278L478.864 637.236L478.276 636.217L479.234 635.664L482.874 641.969L481.952 642.501L481.378 641.507L481.306 641.549C481.281 641.87 481.158 643.17 479.788 643.961ZM479.352 643.065C480.722 642.274 480.902 640.682 480.139 639.361C479.243 637.809 477.756 637.472 476.507 638.193C475.209 638.942 474.9 640.478 475.726 641.909C476.58 643.388 478.03 643.828 479.352 643.065ZM487.401 639.356C486.237 640.028 485.157 639.81 484.422 638.537L482.35 634.948L481.162 635.634L480.693 634.822L481.639 634.276C481.809 634.178 481.879 633.992 481.76 633.786L480.885 632.27L481.782 631.752L482.839 633.583L484.779 632.463L485.248 633.275L483.308 634.395L485.373 637.972C485.765 638.651 486.251 638.904 486.978 638.484L487.851 637.98L488.334 638.817L487.401 639.356ZM492.575 636.368C491.411 637.04 490.332 636.823 489.597 635.55L487.525 631.961L486.336 632.647L485.867 631.835L486.813 631.289C486.983 631.191 487.053 631.004 486.934 630.798L486.059 629.283L486.956 628.765L488.013 630.596L489.953 629.476L490.422 630.288L488.482 631.408L490.547 634.985C490.939 635.664 491.425 635.917 492.153 635.497L493.026 634.993L493.509 635.829L492.575 636.368ZM498.046 633.42C496.118 634.533 494.075 633.821 492.983 631.93C491.821 629.917 492.442 627.829 494.164 626.835C496.079 625.729 498.031 626.477 499.081 628.296L499.326 628.72L494.185 631.688C494.962 632.921 496.257 633.289 497.554 632.54C498.391 632.057 498.96 631.194 498.824 630.287L499.818 629.713C500.146 631.092 499.525 632.566 498.046 633.42ZM493.719 630.825L497.817 628.459C497.005 627.247 495.735 627.092 494.668 627.708C493.613 628.317 493.144 629.605 493.719 630.825ZM502.652 630.55L499.012 624.245L499.958 623.699L500.637 624.875L500.71 624.833C500.584 624.195 500.831 623.195 501.753 622.663L502.286 622.355L502.839 623.313L502.318 623.614C501.166 624.279 501.041 625.547 501.734 626.748L503.61 629.997L502.652 630.55ZM509.683 626.701C508.192 627.562 506.874 627.24 506.086 626.126L507.02 625.587C507.563 626.276 508.327 626.368 509.249 625.836C510.195 625.29 510.45 624.529 510.079 623.886C509.057 622.116 506.063 625.639 504.621 623.141C504.005 622.074 504.564 620.83 505.886 620.067C507.05 619.395 508.411 619.514 509.166 620.598L508.245 621.13C507.817 620.585 507.138 620.443 506.301 620.926C505.513 621.381 505.228 622.063 505.543 622.609C506.467 624.209 509.479 620.692 510.984 623.298C511.67 624.487 511.15 625.854 509.683 626.701ZM519.784 620.659C518.62 621.331 517.54 621.114 516.805 619.841L514.733 616.252L513.545 616.938L513.076 616.126L514.022 615.58C514.192 615.482 514.262 615.295 514.143 615.089L513.268 613.574L514.165 613.056L515.222 614.887L517.162 613.767L517.631 614.579L515.691 615.699L517.756 619.276C518.148 619.955 518.634 620.208 519.361 619.788L520.234 619.284L520.717 620.12L519.784 620.659ZM522.497 619.093L517.247 610L518.204 609.447L520.346 613.157L520.419 613.115C520.357 612.391 520.766 611.476 521.748 610.909C523.215 610.062 524.762 610.64 525.567 612.034L527.856 615.999L526.898 616.552L524.644 612.648C524.063 611.642 522.921 611.428 522.036 611.939C521.066 612.499 520.654 613.69 521.242 614.709L523.454 618.54L522.497 619.093ZM532.679 613.424C530.751 614.537 528.707 613.826 527.615 611.934C526.453 609.922 527.074 607.834 528.796 606.84C530.712 605.734 532.663 606.482 533.713 608.301L533.958 608.725L528.818 611.693C529.594 612.926 530.89 613.293 532.187 612.544C533.023 612.061 533.593 611.199 533.457 610.292L534.451 609.718C534.778 611.097 534.158 612.57 532.679 613.424ZM528.352 610.83L532.45 608.464C531.637 607.252 530.367 607.096 529.3 607.712C528.245 608.321 527.777 609.61 528.352 610.83ZM540.683 608.593L537.043 602.288L538.001 601.735L538.526 602.645L538.599 602.603C538.566 601.846 538.892 601.011 539.826 600.472C540.771 599.926 541.728 599.987 542.479 600.475L542.564 600.426C542.519 599.369 543.014 598.631 543.899 598.12C545.306 597.308 546.789 597.777 547.587 599.159L549.946 603.245L548.988 603.798L546.811 600.027C546.125 598.839 545.181 598.576 544.248 599.115C543.363 599.626 542.951 600.704 543.63 601.88L545.8 605.639L544.842 606.192L542.56 602.239C541.979 601.233 540.95 601.019 540.065 601.53C539.18 602.041 538.834 603.178 539.45 604.245L541.641 608.04L540.683 608.593ZM554.894 600.598C553.003 601.69 550.803 601.101 549.697 599.185C548.598 597.282 549.205 595.057 551.084 593.972C552.988 592.873 555.189 593.493 556.281 595.384C557.373 597.276 556.785 599.506 554.894 600.598ZM554.39 599.725C555.748 598.941 556.111 597.358 555.299 595.951C554.494 594.557 552.934 594.067 551.576 594.851C550.218 595.635 549.881 597.236 550.679 598.618C551.498 600.037 553.044 600.502 554.39 599.725ZM561.97 596.513C560.478 597.374 559.161 597.052 558.372 595.939L559.306 595.4C559.849 596.089 560.614 596.181 561.535 595.649C562.481 595.103 562.736 594.341 562.365 593.698C561.343 591.928 558.349 595.451 556.907 592.953C556.291 591.887 556.85 590.642 558.172 589.879C559.336 589.207 560.698 589.326 561.453 590.41L560.531 590.942C560.103 590.397 559.424 590.256 558.587 590.739C557.799 591.194 557.514 591.876 557.829 592.421C558.753 594.022 561.766 590.504 563.271 593.111C563.957 594.299 563.437 595.666 561.97 596.513ZM568.672 592.434C567.508 593.106 566.429 592.888 565.694 591.615L563.622 588.026L562.433 588.712L561.964 587.9L562.91 587.354C563.08 587.256 563.15 587.07 563.031 586.864L562.156 585.348L563.053 584.83L564.11 586.661L566.05 585.541L566.519 586.353L564.579 587.473L566.644 591.05C567.036 591.729 567.522 591.982 568.249 591.562L569.122 591.058L569.605 591.895L568.672 592.434ZM571.809 590.833C571.433 591.05 570.943 590.929 570.726 590.553C570.509 590.177 570.649 589.692 571.025 589.475C571.401 589.258 571.879 589.386 572.096 589.762C572.313 590.138 572.185 590.616 571.809 590.833Z" fill="#0B1319"/>
<path d="M340.731 498.869C337.34 500.826 333.68 500.124 331.911 497.06L334.284 495.69C335.251 497.311 337.331 497.835 339.524 496.569C341.4 495.486 342.168 493.893 341.342 492.462C338.865 488.172 332.133 496.296 328.437 489.894C327.048 487.488 327.825 484.346 331.171 482.414C333.86 480.861 337.389 480.761 339.348 484.049L336.884 485.472C335.98 483.905 334.341 483.52 332.419 484.629C330.475 485.751 330.174 487.318 330.83 488.453C333.044 492.289 340.037 484.408 343.746 490.832C345.279 493.488 344.37 496.768 340.731 498.869Z" fill="#0B1319"/>
<path d="M354.252 490.669C351.924 492.013 349.775 491.528 348.347 489.054L344.795 482.902L342.67 484.129L341.556 482.199L343.116 481.299C343.523 481.064 343.646 480.599 343.371 480.122L341.864 477.512L344.101 476.22L346.041 479.58L349.477 477.596L350.604 479.548L347.168 481.532L350.681 487.616C351.336 488.751 352.204 489.158 353.447 488.44L355.052 487.513L356.218 489.534L354.252 490.669Z" fill="#0B1319"/>
<path d="M364.653 485.058C361.104 487.106 357.188 485.856 355.13 482.292C352.954 478.524 354.044 474.565 357.412 472.621C361.096 470.494 364.771 472.004 366.724 475.387L367.235 476.272L357.923 481.649C359.206 483.662 361.397 484.274 363.567 483.021C365.059 482.159 365.928 480.689 365.734 479.257L368.04 477.926C368.753 480.571 367.568 483.374 364.653 485.058ZM356.906 479.784L363.823 475.79C362.511 473.884 360.396 473.562 358.565 474.619C356.757 475.663 356.012 477.818 356.906 479.784Z" fill="#0B1319"/>
<path d="M375.602 478.342C373.817 479.373 372.171 478.871 371.096 477.009L362.97 462.935L365.343 461.565L373.391 475.503C373.758 476.138 374.271 476.296 374.858 475.957L375.355 475.67L376.574 477.781L375.602 478.342Z" fill="#0B1319"/>
<path d="M382.296 474.478C380.51 475.509 378.864 475.006 377.789 473.145L369.664 459.07L372.037 457.7L380.084 471.638C380.451 472.274 380.964 472.432 381.552 472.092L382.049 471.805L383.268 473.917L382.296 474.478Z" fill="#0B1319"/>
<path d="M391.421 469.603C387.872 471.652 383.956 470.402 381.899 466.838C379.723 463.069 380.813 459.111 384.181 457.166C387.865 455.039 391.54 456.55 393.493 459.932L394.004 460.817L384.691 466.194C385.974 468.207 388.166 468.819 390.336 467.566C391.827 466.705 392.696 465.234 392.503 463.803L394.808 462.471C395.522 465.117 394.337 467.919 391.421 469.603ZM383.675 464.329L390.591 460.336C389.28 458.429 387.165 458.107 385.334 459.164C383.526 460.208 382.781 462.363 383.675 464.329Z" fill="#0B1319"/>
<path d="M400.098 464.2L393.243 452.327L395.526 451.009L396.719 453.075L396.877 452.984C396.688 451.821 397.163 450.034 398.836 449.068L399.876 448.468L401.212 450.783L400.105 451.423C398.093 452.584 397.819 454.771 399.09 456.973L402.471 462.829L400.098 464.2Z" fill="#0B1319"/>
<path d="M421.12 452.456C417.729 454.414 414.069 453.712 412.3 450.647L414.673 449.277C415.639 450.899 417.72 451.423 419.912 450.157C421.788 449.074 422.556 447.48 421.731 446.05C419.253 441.76 412.522 449.884 408.826 443.482C407.437 441.076 408.214 437.933 411.559 436.002C414.249 434.449 417.778 434.349 419.736 437.637L417.273 439.059C416.368 437.493 414.729 437.108 412.808 438.217C410.864 439.339 410.563 440.905 411.218 442.04C413.433 445.877 420.426 437.996 424.135 444.42C425.668 447.076 424.759 450.355 421.12 452.456Z" fill="#0B1319"/>
<path d="M435.037 444.421C431.488 446.47 427.572 445.22 425.514 441.656C423.339 437.888 424.428 433.929 427.796 431.985C431.481 429.858 435.155 431.368 437.108 434.75L437.619 435.636L428.307 441.012C429.59 443.026 431.781 443.637 433.951 442.384C435.443 441.523 436.312 440.053 436.118 438.621L438.424 437.29C439.137 439.935 437.953 442.738 435.037 444.421ZM427.291 439.147L434.207 435.154C432.895 433.248 430.78 432.925 428.95 433.982C427.141 435.026 426.397 437.182 427.291 439.147Z" fill="#0B1319"/>
<path d="M449.196 436.246C445.534 438.361 441.475 437.072 439.457 433.576C437.425 430.058 438.384 425.872 441.978 423.797C444.781 422.179 448.15 422.534 450.265 424.945L447.824 426.354C446.631 425.227 444.818 425.063 443.259 425.963C441.021 427.255 440.574 429.874 441.898 432.167C443.248 434.505 445.781 435.343 447.996 434.064C449.51 433.19 450.297 431.525 449.931 429.95L452.349 428.554C453.402 431.578 451.976 434.641 449.196 436.246Z" fill="#0B1319"/>
<path d="M462.175 428.753C459.485 430.306 456.695 429.283 455.214 426.718L450.81 419.091L453.184 417.721L457.338 424.917C458.308 426.597 460.09 427.021 461.582 426.159C463.232 425.207 463.719 423.231 462.722 421.506L458.699 414.537L461.072 413.166L467.927 425.039L465.621 426.37L464.704 424.781L464.546 424.872C464.634 426.122 463.938 427.735 462.175 428.753Z" fill="#0B1319"/>
<path d="M471.625 422.904L464.77 411.031L467.053 409.713L468.246 411.779L468.404 411.688C468.215 410.525 468.69 408.738 470.363 407.772L471.402 407.172L472.739 409.487L471.632 410.127C469.62 411.288 469.345 413.475 470.617 415.677L473.998 421.533L471.625 422.904Z" fill="#0B1319"/>
<path d="M474.501 402.931C473.596 403.453 472.587 403.219 472.063 402.311C471.565 401.448 471.853 400.434 472.757 399.912C473.684 399.377 474.707 399.634 475.205 400.497C475.729 401.405 475.427 402.396 474.501 402.931ZM481.232 417.357L474.377 405.485L476.751 404.114L483.605 415.987L481.232 417.357Z" fill="#0B1319"/>
<path d="M492.123 411.069C489.795 412.413 487.647 411.928 486.218 409.454L482.666 403.302L480.542 404.529L479.428 402.599L480.987 401.699C481.394 401.464 481.518 400.999 481.242 400.522L479.735 397.912L481.973 396.62L483.913 399.979L487.348 397.996L488.475 399.948L485.04 401.932L488.552 408.015C489.207 409.15 490.075 409.557 491.318 408.84L492.923 407.913L494.09 409.933L492.123 411.069Z" fill="#0B1319"/>
<path d="M500.302 413.308L499.07 411.174L500.11 410.574C501.195 409.947 501.54 409.083 501.351 407.92L501.125 406.537L489.213 396.919L491.79 395.432L500.362 402.71L500.52 402.619L498.48 391.569L501.079 390.068L503.872 407.433C504.243 409.641 503.761 411.311 501.636 412.538L500.302 413.308Z" fill="#0B1319"/>
<rect x="266.88" y="324.423" width="140" height="140" rx="16" transform="rotate(-30 266.88 324.423)" fill="#F7F6FC"/>
<path d="M305.851 301.923L280.737 316.423C273.084 320.841 270.462 330.627 274.88 338.279L289.38 363.394" stroke="#0B1319" stroke-width="2"/>
<path d="M419.153 398.166L444.267 383.667C451.92 379.248 454.542 369.463 450.124 361.81L435.624 336.695" stroke="#0B1319" stroke-width="2"/>
<path d="M410.624 293.394L396.124 268.279C391.705 260.627 381.92 258.005 374.267 262.423L349.153 276.923" stroke="#0B1319" stroke-width="2"/>
<path d="M314.38 406.695L328.88 431.81C333.298 439.463 343.084 442.085 350.737 437.667L375.851 423.167" stroke="#0B1319" stroke-width="2"/>
<path fill-rule="evenodd" clip-rule="evenodd" d="M342.239 306.967L331.455 359.008L356.282 344.674L345.774 396.157L314.031 369.067L294.193 334.706L338.986 308.845L342.239 306.967ZM345.774 396.157L387.285 312.715L362.653 327.386L370.244 290.798L383.779 282.983L403.618 317.344L411.244 358.358L388.42 394.467L345.774 396.157Z" fill="#4364FA"/>
</g>
<ellipse cx="141.51" cy="205.29" rx="9.45487" ry="9.45422" transform="rotate(-30 141.51 205.29)" fill="black"/>
<ellipse cx="141.399" cy="205.26" rx="7.12406" ry="7.12357" transform="rotate(-30 141.399 205.26)" fill="#0A0A0A"/>
<ellipse cx="141.399" cy="205.26" rx="7.12406" ry="7.12357" transform="rotate(-30 141.399 205.26)" fill="url(#paint2_radial_408_1398)"/>
<g filter="url(#filter5_i_408_1398)">
<ellipse cx="2.94578" cy="2.94594" rx="2.94578" ry="2.94594" transform="matrix(-0.753168 -0.657828 0.65786 -0.753141 141.929 209.428)" fill="black"/>
<ellipse cx="2.94578" cy="2.94594" rx="2.94578" ry="2.94594" transform="matrix(-0.753168 -0.657828 0.65786 -0.753141 141.929 209.428)" fill="url(#paint3_angular_408_1398)"/>
<ellipse cx="2.94578" cy="2.94594" rx="2.94578" ry="2.94594" transform="matrix(-0.753168 -0.657828 0.65786 -0.753141 141.929 209.428)" fill="url(#paint4_radial_408_1398)"/>
</g>
<g filter="url(#filter6_f_408_1398)">
<ellipse cx="142.186" cy="204.373" rx="0.75" ry="0.749851" transform="rotate(-30 142.186 204.373)" fill="#BA7FD6"/>
</g>
<path d="M636.501 550.829C652.748 578.969 630.367 589.573 627.982 591.441C626.959 594.918 664.48 574.793 636.501 550.829Z" fill="black"/>
<path d="M128.416 219.604C124.821 212.877 121.568 196.844 137.297 186.492C129.283 190.109 116.283 201.788 128.416 219.604Z" fill="black"/>
<path d="M329.308 75.6234C338.833 70.1241 356.048 64.9469 367.359 84.5369C363.171 73.5339 349.698 56.3472 329.308 75.6234Z" fill="#020203"/>
<path d="M434.312 169.921L434.745 169.671C435.343 169.326 436.107 169.531 436.452 170.128L457.323 206.277C457.668 206.875 457.463 207.64 456.865 207.985L456.432 208.235L434.312 169.921Z" fill="black"/>
<path d="M434.312 169.921L434.745 169.671C435.343 169.326 436.107 169.531 436.452 170.128L457.323 206.277C457.668 206.875 457.463 207.64 456.865 207.985L456.432 208.235L434.312 169.921Z" fill="url(#paint5_linear_408_1398)"/>
<path d="M477.803 245.25L478.236 245C478.834 244.655 479.598 244.86 479.943 245.458L521.435 317.323C521.78 317.921 521.575 318.685 520.977 319.03L520.544 319.28L477.803 245.25Z" fill="black"/>
</g>
</g>
<defs>
<filter id="filter0_d_408_1398" x="550.854" y="102.854" width="565.767" height="511.302" filterUnits="userSpaceOnUse" color-interpolation-filters="sRGB">
<feFlood flood-opacity="0" result="BackgroundImageFix"/>
<feColorMatrix in="SourceAlpha" type="matrix" values="0 0 0 0 0 0 0 0 0 0 0 0 0 0 0 0 0 0 127 0" result="hardAlpha"/>
<feOffset dy="20"/>
<feGaussianBlur stdDeviation="25"/>
<feComposite in2="hardAlpha" operator="out"/>
<feColorMatrix type="matrix" values="0 0 0 0 0.0431373 0 0 0 0 0.0745098 0 0 0 0 0.0980392 0 0 0 0.1 0"/>
<feBlend mode="normal" in2="BackgroundImageFix" result="effect1_dropShadow_408_1398"/>
<feBlend mode="normal" in="SourceGraphic" in2="effect1_dropShadow_408_1398" result="shape"/>
</filter>
<filter id="filter1_d_408_1398" x="59.8378" y="24.9119" width="647.961" height="765.533" filterUnits="userSpaceOnUse" color-interpolation-filters="sRGB">
<feFlood flood-opacity="0" result="BackgroundImageFix"/>
<feColorMatrix in="SourceAlpha" type="matrix" values="0 0 0 0 0 0 0 0 0 0 0 0 0 0 0 0 0 0 127 0" result="hardAlpha"/>
<feOffset dy="20"/>
<feGaussianBlur stdDeviation="25"/>
<feComposite in2="hardAlpha" operator="out"/>
<feColorMatrix type="matrix" values="0 0 0 0 0.0431373 0 0 0 0 0.0745098 0 0 0 0 0.0980392 0 0 0 0.1 0"/>
<feBlend mode="normal" in2="BackgroundImageFix" result="effect1_dropShadow_408_1398"/>
<feBlend mode="normal" in="SourceGraphic" in2="effect1_dropShadow_408_1398" result="shape"/>
</filter>
<filter id="filter2_f_408_1398" x="111.665" y="56.4182" width="544.906" height="663.284" filterUnits="userSpaceOnUse" color-interpolation-filters="sRGB">
<feFlood flood-opacity="0" result="BackgroundImageFix"/>
<feBlend mode="normal" in="SourceGraphic" in2="BackgroundImageFix" result="shape"/>
<feGaussianBlur stdDeviation="0.5" result="effect1_foregroundBlur_408_1398"/>
</filter>
<filter id="filter3_f_408_1398" x="114.665" y="59.5774" width="538.757" height="657.409" filterUnits="userSpaceOnUse" color-interpolation-filters="sRGB">
<feFlood flood-opacity="0" result="BackgroundImageFix"/>
<feBlend mode="normal" in="SourceGraphic" in2="BackgroundImageFix" result="shape"/>
<feGaussianBlur stdDeviation="0.25" result="effect1_foregroundBlur_408_1398"/>
</filter>
<filter id="filter4_f_408_1398" x="115.132" y="60.1348" width="537.824" height="656.293" filterUnits="userSpaceOnUse" color-interpolation-filters="sRGB">
<feFlood flood-opacity="0" result="BackgroundImageFix"/>
<feBlend mode="normal" in="SourceGraphic" in2="BackgroundImageFix" result="shape"/>
<feGaussianBlur stdDeviation="0.25" result="effect1_foregroundBlur_408_1398"/>
</filter>
<filter id="filter5_i_408_1398" x="138.703" y="202.325" width="5.89191" height="5.8916" filterUnits="userSpaceOnUse" color-interpolation-filters="sRGB">
<feFlood flood-opacity="0" result="BackgroundImageFix"/>
<feBlend mode="normal" in="SourceGraphic" in2="BackgroundImageFix" result="shape"/>
<feColorMatrix in="SourceAlpha" type="matrix" values="0 0 0 0 0 0 0 0 0 0 0 0 0 0 0 0 0 0 127 0" result="hardAlpha"/>
<feMorphology radius="0.25" operator="erode" in="SourceAlpha" result="effect1_innerShadow_408_1398"/>
<feOffset/>
<feGaussianBlur stdDeviation="0.375"/>
<feComposite in2="hardAlpha" operator="arithmetic" k2="-1" k3="1"/>
<feColorMatrix type="matrix" values="0 0 0 0 0 0 0 0 0 0 0 0 0 0 0 0 0 0 1 0"/>
<feBlend mode="normal" in2="shape" result="effect1_innerShadow_408_1398"/>
</filter>
<filter id="filter6_f_408_1398" x="140.436" y="202.623" width="3.50018" height="3.5" filterUnits="userSpaceOnUse" color-interpolation-filters="sRGB">
<feFlood flood-opacity="0" result="BackgroundImageFix"/>
<feBlend mode="normal" in="SourceGraphic" in2="BackgroundImageFix" result="shape"/>
<feGaussianBlur stdDeviation="0.5" result="effect1_foregroundBlur_408_1398"/>
</filter>
<radialGradient id="paint0_angular_408_1398" cx="0" cy="0" r="1" gradientUnits="userSpaceOnUse" gradientTransform="translate(384.18 388.053) rotate(60) scale(308.813 147.231)">
<stop offset="0.00370279"/>
<stop offset="0.0860873"/>
<stop offset="0.142579"/>
<stop offset="0.551797" stop-color="#898686"/>
<stop offset="0.597149"/>
<stop offset="0.62222"/>
<stop offset="0.635363"/>
<stop offset="0.644459" stop-color="#898686"/>
<stop offset="0.86974" stop-color="#1C1C1C"/>
<stop offset="0.875025"/>
</radialGradient>
<radialGradient id="paint1_angular_408_1398" cx="0" cy="0" r="1" gradientUnits="userSpaceOnUse" gradientTransform="translate(384.181 388.053) rotate(60) scale(308.313 165.875)">
<stop offset="0.000303672" stop-color="#4A4A4A"/>
<stop offset="0.0904875" stop-color="#404040"/>
<stop offset="0.111563"/>
<stop offset="0.136566" stop-color="#404040"/>
<stop offset="0.404505" stop-color="#848484"/>
<stop offset="0.596482" stop-color="#5E5E5E"/>
<stop offset="0.607769"/>
<stop offset="0.614698"/>
<stop offset="0.626401" stop-color="#535353"/>
<stop offset="0.872212" stop-color="#585858"/>
<stop offset="0.886458"/>
<stop offset="0.902914" stop-color="#575757"/>
</radialGradient>
<radialGradient id="paint2_radial_408_1398" cx="0" cy="0" r="1" gradientUnits="userSpaceOnUse" gradientTransform="translate(141.399 205.26) rotate(90) scale(7.12357 7.12406)">
<stop offset="0.552083" stop-opacity="0"/>
<stop offset="0.666667" stop-color="#5B5B5B" stop-opacity="0.21"/>
<stop offset="0.708333" stop-opacity="0"/>
</radialGradient>
<radialGradient id="paint3_angular_408_1398" cx="0" cy="0" r="1" gradientUnits="userSpaceOnUse" gradientTransform="translate(2.94578 2.94596) rotate(89.9999) scale(2.94593 2.78517)">
<stop offset="0.109898" stop-opacity="0.718268"/>
<stop offset="0.266542" stop-color="#6777CA"/>
<stop offset="0.473888" stop-color="#6C86CA"/>
<stop offset="0.665391" stop-color="#5583C7"/>
<stop offset="0.865938" stop-opacity="0.718268"/>
<stop offset="1" stop-color="#5351BA" stop-opacity="0"/>
</radialGradient>
<radialGradient id="paint4_radial_408_1398" cx="0" cy="0" r="1" gradientUnits="userSpaceOnUse" gradientTransform="translate(2.94578 2.94594) rotate(90) scale(2.94594 2.94578)">
<stop offset="0.0520833"/>
<stop offset="0.671875" stop-color="#767676" stop-opacity="0"/>
</radialGradient>
<linearGradient id="paint5_linear_408_1398" x1="435.069" y1="169.483" x2="457.19" y2="207.797" gradientUnits="userSpaceOnUse">
<stop stop-color="#353535"/>
<stop offset="0.0416667" stop-color="#AEAEAE"/>
<stop offset="0.104167" stop-color="#49494A"/>
<stop offset="0.677083" stop-color="#49494A"/>
<stop offset="0.901042" stop-color="#787879" stop-opacity="0.435484"/>
<stop offset="1" stop-opacity="0"/>
</linearGradient>
</defs>
</svg>
